<svg xmlns="http://www.w3.org/2000/svg" width="70" height="65.524" viewBox="0 0 70 65.524">
    <defs>
        <style>
            .cls-1{fill:#ed933e}.cls-2{fill:#f9ddbb}
        </style>
    </defs>
    <g id="aZ9ANf.tif" transform="translate(945 -1113.9)">
        <g id="Group_294" data-name="Group 294" transform="translate(-945 1113.9)">
            <path id="Path_440" d="M-909.85 1153.153a2.144 2.144 0 0 1-2.478 2.057c-4.942 0-9.884-.011-14.825 0a2.19 2.19 0 0 1-2.134-1.057 2.151 2.151 0 0 1 .162-2.315q10.792-18.324 21.572-36.655a2.1 2.1 0 0 1 3.852-.06q5.791 9.875 11.589 19.747c2.186 3.722 4.384 7.437 6.553 11.169a.935.935 0 0 0 .946.558c2.322-.027 4.647.029 6.968-.029a2.528 2.528 0 0 1 2.645 1.662v29.67c-.667 1.276-1.759 1.532-3.121 1.526-9.091-.042-18.183-.021-27.274-.023a2.195 2.195 0 0 1-2.417-2.409c0-2.415 0-4.83-.006-7.246 0-.21.085-.443-.087-.662-.143.171-.268.327-.4.478-5.042 5.739-11.268 8.455-18.958 7.384a21.4 21.4 0 0 1-17.2-15.848 10.359 10.359 0 0 0-.533-2.341v-4.238a5.674 5.674 0 0 0 .386-1.82 21.3 21.3 0 0 1 16.525-16.688 2.211 2.211 0 0 1 2.745 1.694 2.24 2.24 0 0 1-1.912 2.6c-6.89 1.488-11.474 5.5-13 12.471-1.8 8.249 2.623 17.339 11.879 19.568 8.507 2.048 17.756-2.348 20.08-11.793a29.164 29.164 0 0 0 .458-7.4c.007-1.3.019-2.6.021-3.893 0-1.878.784-2.67 2.639-2.67H-890l-15.628-26.567-18.28 31.077h11.576a2.139 2.139 0 0 1 2.482 2.053zm6.412 9.773c0 3.828.011 7.655-.013 11.483 0 .508.116.632.628.63q11.38-.029 22.761 0c.566 0 .7-.129.7-.7q-.032-11.38 0-22.76c0-.51-.118-.631-.629-.63q-11.414.028-22.829 0c-.509 0-.633.115-.63.628.025 3.785.013 7.567.012 11.349z" class="cls-1" data-name="Path 440" transform="translate(945 -1113.9)"/>
            <path id="Path_441" d="M-776.655 1191.811a2.139 2.139 0 0 0-2.48-2.054h-11.576l18.28-31.077 15.628 26.567h-15.177c-1.855 0-2.635.792-2.639 2.67 0 1.3-.014 2.6-.021 3.893z" class="cls-2" data-name="Path 441" transform="translate(811.805 -1152.558)"/>
        </g>
    </g>
</svg>
