<svg xmlns="http://www.w3.org/2000/svg" width="30" height="30" viewBox="0 0 30 30">
  <g id="email_icon" transform="translate(-824 -1145)">
    <rect id="Rectangle_113" data-name="Rectangle 113" width="30" height="30" transform="translate(824 1145)" fill="none"/>
    <g id="_27-Phone" data-name="27-Phone" transform="translate(551.311 437.65)">
      <path id="Path_571" data-name="Path 571" d="M735,709.5a15,15,0,0,0,0,30,1.875,1.875,0,0,0,0-3.75,11.25,11.25,0,1,1,11.25-11.25v5.625a1.875,1.875,0,1,1-3.75,0V724.5A7.5,7.5,0,1,0,735,732a7.417,7.417,0,0,0,3.83-1.087,5.612,5.612,0,0,0,11.17-.788V724.5A15.015,15.015,0,0,0,735,709.5Zm0,18.75a3.75,3.75,0,1,1,3.75-3.75A3.75,3.75,0,0,1,735,728.25Z" transform="translate(-447.311 -2.15)"/>
    </g>
  </g>
</svg>
