<svg xmlns="http://www.w3.org/2000/svg" width="166.5" height="40.791" viewBox="0 0 166.5 40.791">
  <g id="footer_logo" transform="translate(-79.5 -2195.475)">
    <g id="Group_10" data-name="Group 10" transform="translate(80 2196)">
      <path id="Path_1" data-name="Path 1" d="M465.475,449.726a1.441,1.441,0,0,0-1.4-.931c-2.008-.01-4.016,0-6.025,0a1.457,1.457,0,0,0-.34.04,1.553,1.553,0,0,0-1.207,1.661,10.51,10.51,0,0,1-.977,4.326A11.885,11.885,0,0,1,443.1,461.6a11.388,11.388,0,0,1-8.143-5.034,11.274,11.274,0,0,1-2-6.123,1.547,1.547,0,0,0-1.562-1.654q-3-.016-5.99,0a1.523,1.523,0,1,0,.008,3.046c.711.008,1.423,0,2.134,0h2.436a14.806,14.806,0,0,0,8.253,11.472,14.52,14.52,0,0,0,7.133,1.457,14.766,14.766,0,0,0,8.757-3.317,14.332,14.332,0,0,0,5.384-9.611h.386c1.377,0,2.754,0,4.131,0a1.494,1.494,0,0,0,1.168-.49A1.443,1.443,0,0,0,465.475,449.726Z" transform="translate(-423.851 -425.023)" fill="#212121" stroke="#212121" stroke-width="1"/>
      <path id="Path_2" data-name="Path 2" d="M706.527,116.33a1.476,1.476,0,0,0,2.51-1.086c.008-1.674,0-3.349,0-5.023q0-2.477,0-4.954a1.576,1.576,0,0,0-.384-1.109,1.475,1.475,0,0,0-1.6-.4,1.5,1.5,0,0,0-.976,1.512q-.008,4.954,0,9.908A1.5,1.5,0,0,0,706.527,116.33Z" transform="translate(-686.644 -103.667)" fill="#212121" stroke="#212121" stroke-width="1"/>
      <path id="Path_3" data-name="Path 3" d="M803.15,180.4a1.463,1.463,0,0,0,1.723-.743q2.009-3.584,4-7.18a1.485,1.485,0,0,0,.173-1.094,1.474,1.474,0,0,0-2.752-.332q-1.995,3.573-3.977,7.153a4.743,4.743,0,0,0-.268.766A1.579,1.579,0,0,0,803.15,180.4Z" transform="translate(-776.006 -165.653)" fill="#212121" stroke="#212121" stroke-width="1"/>
      <path id="Path_4" data-name="Path 4" d="M554.162,178.384c.245.441.478.89.75,1.313a1.371,1.371,0,0,0,1.517.634,1.4,1.4,0,0,0,1.138-1.108,1.539,1.539,0,0,0-.221-1.182q-1.547-2.779-3.094-5.559c-.318-.57-.621-1.151-.971-1.7a1.421,1.421,0,0,0-1.635-.564,1.624,1.624,0,0,0-1.089,1.424,7.345,7.345,0,0,0,.35.88C551.984,174.479,553.074,176.431,554.162,178.384Z" transform="translate(-541.833 -165.57)" fill="#212121" stroke="#212121" stroke-width="1"/>
      <path id="Path_5" data-name="Path 5" d="M453.4,308.3q2.7,1.576,5.416,3.135a5.3,5.3,0,0,0,.822.308,1.647,1.647,0,0,0,1.493-1.138,1.5,1.5,0,0,0-.718-1.768c-1.838-1.08-3.68-2.154-5.538-3.2a1.8,1.8,0,0,0-.982-.2,1.458,1.458,0,0,0-1.3,1.191A1.531,1.531,0,0,0,453.4,308.3Z" transform="translate(-450.583 -291.532)" fill="#212121" stroke="#212121" stroke-width="1"/>
      <path id="Path_6" data-name="Path 6" d="M877.7,310.438a1.666,1.666,0,0,0,1.474,1.132,7.545,7.545,0,0,0,.909-.362c.753-.414,1.49-.858,2.233-1.289,1.041-.6,2.086-1.2,3.123-1.812a1.529,1.529,0,1,0-1.541-2.637c-1.167.66-2.324,1.339-3.483,2.014-.723.421-1.457.826-2.158,1.28A1.447,1.447,0,0,0,877.7,310.438Z" transform="translate(-846.379 -291.353)" fill="#212121" stroke="#212121" stroke-width="1"/>
    </g>
    <text id="edufront" transform="translate(138 2226)" fill="#212121" font-size="26" font-family="Quicksand-SemiBold, Quicksand" font-weight="600" letter-spacing="-0.005em"><tspan x="0" y="0">edufront</tspan></text>
  </g>
</svg>
