<svg xmlns="http://www.w3.org/2000/svg" width="44" height="44" viewBox="0 0 44 44">
  <g id="resources_icon" transform="translate(0 -1)">
    <rect id="Rectangle_103" data-name="Rectangle 103" width="44" height="44" transform="translate(0 1)" fill="none"/>
    <g id="Group_368" data-name="Group 368" transform="translate(1 1)">
      <path id="Path_461" data-name="Path 461" d="M324.332-188a1.745,1.745,0,0,1,1.119,1.48c.083.564.238,1.118.365,1.676.1.441.386.566.8.34.712-.388,1.418-.787,2.129-1.176a1.466,1.466,0,0,1,1.968.274c.85.846,1.708,1.684,2.559,2.529a1.355,1.355,0,0,1,.256,1.861c-.395.7-.8,1.4-1.192,2.095-.256.454-.135.707.387.82l1.917.414a1.4,1.4,0,0,1,1.238,1.517c0,.988.009,1.976-.005,2.964,0,.251.039.363.327.337.318-.028.641,0,.962-.008a1.453,1.453,0,0,1,1.434.862q2.055,4.04,4.1,8.085a1.372,1.372,0,0,1-1.35,2.054q-14.717,0-29.434,0c-1.225,0-2.449.009-3.674-.007-.288,0-.358.077-.357.354q.013,7.218,0,14.436c0,.344.142.344.406.344q13.6-.007,27.2.005c.332,0,.4-.082.4-.4q-.018-5.951-.007-11.9a1.373,1.373,0,0,1,.916-1.373,1.394,1.394,0,0,1,1.545.4,1.337,1.337,0,0,1,.339.905q0,6.853,0,13.706A1.5,1.5,0,0,1,337.629-144H306.05a1.758,1.758,0,0,1-.976-1.7c.026-5.253.012-10.506.017-15.759,0-.266.017-.444-.372-.425-.814.039-1.632.027-2.447.008a1.353,1.353,0,0,1-1.248-1.948c1.392-2.778,2.811-5.543,4.229-8.309a1.326,1.326,0,0,1,1.239-.738c.364-.006.729-.018,1.092,0,.255.015.311-.074.308-.311-.013-1.016-.009-2.032,0-3.049a1.386,1.386,0,0,1,1.209-1.453q1-.215,2-.43c.447-.1.576-.382.348-.786-.4-.711-.813-1.418-1.216-2.129a1.358,1.358,0,0,1,.269-1.858q1.28-1.263,2.565-2.521a1.489,1.489,0,0,1,2.039-.241c.677.39,1.361.767,2.046,1.143.426.234.7.1.808-.381.122-.544.27-1.084.356-1.633A1.752,1.752,0,0,1,319.433-188Zm14.873,23.362c-.916-1.8-1.815-3.555-2.7-5.317-.1-.2-.242-.169-.4-.169h-2.623q-12.853,0-25.705-.008a.585.585,0,0,0-.621.382c-.48.992-.994,1.969-1.495,2.951-.362.71-.723,1.421-1.1,2.161Zm-21.235-8.238c-.03-.147-.052-.257-.076-.367a3.933,3.933,0,0,1,3.517-5.017,3.958,3.958,0,0,1,4.381,2.7,4.314,4.314,0,0,1,.057,2.374c-.066.248-.017.32.251.317,1.079-.013,2.158-.026,3.236,0a11.789,11.789,0,0,0,3.416-.346c.227-.061.351-.121.336-.387a12.931,12.931,0,0,1,0-1.331c.01-.224-.083-.3-.284-.341-.585-.115-1.168-.238-1.751-.364a1.4,1.4,0,0,1-1.131-1.014,6.511,6.511,0,0,0-.515-1.272,1.484,1.484,0,0,1,.048-1.587c.362-.6.7-1.223,1.057-1.827a.29.29,0,0,0-.059-.435c-.376-.338-.685-.89-1.111-.99-.4-.095-.85.406-1.291.619-.013.006-.025.015-.038.022-1.331.711-1.319.9-3.026.252a2.429,2.429,0,0,1-1.878-2.25.326.326,0,0,0-.006-.043c-.231-1.086-.231-1.086-1.382-1.087a3.829,3.829,0,0,1-.481,0c-.255-.033-.36.068-.406.313-.1.548-.238,1.09-.353,1.635a1.414,1.414,0,0,1-1.077,1.168,6.445,6.445,0,0,0-1.294.51,1.506,1.506,0,0,1-1.536-.037c-.618-.349-1.248-.678-1.861-1.035-.207-.121-.34-.14-.514.056a9.3,9.3,0,0,1-.833.821.352.352,0,0,0-.082.537c.382.625.731,1.269,1.094,1.905a1.346,1.346,0,0,1,.031,1.355,7.545,7.545,0,0,0-.556,1.348,1.423,1.423,0,0,1-1.195,1.052c-.556.111-1.108.242-1.664.348-.219.042-.324.118-.313.361.021.443.021.888,0,1.331-.011.24.091.314.309.366a11.654,11.654,0,0,0,3.065.355C315.348-172.908,316.645-172.876,317.97-172.876Zm3.883,0a1.564,1.564,0,0,0,1.524-1.386,1.765,1.765,0,0,0-1.486-1.455,1.744,1.744,0,0,0-1.5,1.482A1.564,1.564,0,0,0,321.853-172.875Z" transform="translate(-300.878 188)" fill="#8787f6"/>
      <path id="Path_462" data-name="Path 462" d="M420.214-143.728c-1.325,0-2.621-.032-3.915.01a11.656,11.656,0,0,1-3.065-.355c-.218-.051-.32-.125-.309-.366.021-.443.021-.888,0-1.331-.012-.243.093-.32.313-.361.557-.106,1.109-.237,1.664-.348a1.423,1.423,0,0,0,1.195-1.052,7.543,7.543,0,0,1,.556-1.348,1.346,1.346,0,0,0-.031-1.355c-.363-.636-.712-1.28-1.094-1.905a.352.352,0,0,1,.082-.537,9.306,9.306,0,0,0,.833-.821c.174-.2.307-.177.514-.056.613.357,1.243.686,1.861,1.035a1.506,1.506,0,0,0,1.536.037,6.446,6.446,0,0,1,1.294-.51,1.414,1.414,0,0,0,1.077-1.168c.115-.546.25-1.088.353-1.635.046-.244.151-.345.406-.313a3.834,3.834,0,0,0,.481,0c1.151,0,1.151,0,1.382,1.087a.315.315,0,0,1,.006.043,2.429,2.429,0,0,0,1.878,2.25c1.707.646,1.7.459,3.026-.252.013-.007.025-.015.038-.022.441-.213.888-.714,1.291-.619.425.1.735.652,1.111.99a.29.29,0,0,1,.059.435c-.36.6-.694,1.224-1.057,1.827a1.484,1.484,0,0,0-.048,1.587,6.515,6.515,0,0,1,.515,1.272,1.4,1.4,0,0,0,1.131,1.014c.582.126,1.166.249,1.751.364.2.04.294.117.284.341a12.94,12.94,0,0,0,0,1.331c.015.265-.109.325-.336.387a11.789,11.789,0,0,1-3.416.346c-1.078-.027-2.158-.014-3.236,0-.268,0-.318-.069-.251-.317a4.314,4.314,0,0,0-.057-2.374,3.958,3.958,0,0,0-4.381-2.7,3.933,3.933,0,0,0-3.517,5.017C420.161-143.985,420.183-143.875,420.214-143.728Z" transform="translate(-403.122 158.853)" fill="#aba9f8"/>
    </g>
  </g>
</svg>
