<svg xmlns="http://www.w3.org/2000/svg" width="44" height="44" viewBox="0 0 44 44">
  <g id="administration_icon" transform="translate(0 6)">
    <rect id="Rectangle_102" data-name="Rectangle 102" width="44" height="44" transform="translate(0 -6)" fill="none"/>
    <g id="Group_367" data-name="Group 367" transform="translate(0 -2)">
      <path id="Path_453" data-name="Path 453" d="M-182-166.79a1.358,1.358,0,0,0,.195-.627,7.686,7.686,0,0,1,7.121-5.643c.758-.014,1.517-.01,2.276,0A1.371,1.371,0,0,1-171-171.7a1.376,1.376,0,0,1-1.39,1.385,27.72,27.72,0,0,0-2.958.067,4.214,4.214,0,0,0-3.9,4.468q-.009,4.809,0,9.617c0,.658.017,1.317-.006,1.975-.01.292.054.385.365.38,1.2-.02,2.4-.01,3.606-.008a1.389,1.389,0,0,1,1.534,1.37,1.384,1.384,0,0,1-1.524,1.38c-1.76,0-3.521-.009-5.281.008a1.649,1.649,0,0,1-1.445-.952Z" transform="translate(182 186.813)" fill="#8787f6"/>
      <path id="Path_454" data-name="Path 454" d="M212.994-152.183a1.877,1.877,0,0,1-1.961.96c-1.631-.048-3.264-.009-4.9-.016a1.341,1.341,0,0,1-1.325-.96,1.351,1.351,0,0,1,.5-1.523,1.431,1.431,0,0,1,.885-.268c1.2.007,2.406-.019,3.607.015.4.011.452-.119.45-.473q-.02-5.518-.007-11.037a4.548,4.548,0,0,0-3.627-4.751,12.285,12.285,0,0,0-3.239-.25,1.358,1.358,0,0,1-1.306-.929,1.358,1.358,0,0,1,.425-1.51,1.222,1.222,0,0,1,.7-.3,9.767,9.767,0,0,1,6.053,1.313,7.415,7.415,0,0,1,3.68,5.079c0,.017.043.028.066.042Z" transform="translate(-168.994 186.988)" fill="#8787f6"/>
      <path id="Path_455" data-name="Path 455" d="M-42.95-167.816q-4.789,0-9.578,0a1.379,1.379,0,0,1-1.508-1.525c0-4.009-.009-8.018,0-12.027a10.25,10.25,0,0,1,8.441-9.808,15.023,15.023,0,0,1,6.345.243,10.274,10.274,0,0,1,7.354,9.744q.012,5.885,0,11.769a1.407,1.407,0,0,1-1.607,1.6Zm-.028-2.751c2.648,0,5.3-.006,7.944.008.329,0,.4-.091.4-.407-.02-1.03,0-2.061-.008-3.092-.027-2.69.1-5.383-.059-8.07a6.842,6.842,0,0,0-5-6.148,14.823,14.823,0,0,0-4.393-.3,7.01,7.01,0,0,0-7.19,7.331c0,3.421,0,6.842-.007,10.263,0,.326.069.428.415.426C-48.245-170.573-45.611-170.566-42.978-170.566Z" transform="translate(65.036 203.566)" fill="#8787f6"/>
      <path id="Path_456" data-name="Path 456" d="M15.481-333.005a5.755,5.755,0,0,1,5.509,5.545A5.766,5.766,0,0,1,15.477-322a5.757,5.757,0,0,1-5.488-5.567A5.771,5.771,0,0,1,15.481-333.005Zm.02,2.751a2.54,2.54,0,0,0-2.761,2.706,2.543,2.543,0,0,0,2.717,2.793,2.541,2.541,0,0,0,2.782-2.727A2.543,2.543,0,0,0,15.5-330.254Z" transform="translate(6.51 333.005)" fill="#8787f6"/>
      <path id="Path_457" data-name="Path 457" d="M180.818-278.053a4.089,4.089,0,0,1-3.851,3.874A4.1,4.1,0,0,1,173.1-278a4.089,4.089,0,0,1,3.874-3.9A4.1,4.1,0,0,1,180.818-278.053Zm-2.215.036a1.471,1.471,0,0,0-1.622-1.662,1.472,1.472,0,0,0-1.662,1.624,1.478,1.478,0,0,0,1.667,1.661A1.464,1.464,0,0,0,178.6-278.016Z" transform="translate(-142.586 286.286)" fill="#8787f6"/>
      <path id="Path_458" data-name="Path 458" d="M-111.029-281.877a4.093,4.093,0,0,1,3.866,3.86,4.092,4.092,0,0,1-3.872,3.855,4.1,4.1,0,0,1-3.843-3.84A4.089,4.089,0,0,1-111.029-281.877Zm-1.635,3.826a1.471,1.471,0,0,0,1.611,1.673,1.472,1.472,0,0,0,1.673-1.612,1.478,1.478,0,0,0-1.655-1.672A1.464,1.464,0,0,0-112.663-278.051Z" transform="translate(120.646 286.271)" fill="#8787f6"/>
      <path id="Path_459" data-name="Path 459" d="M-13.768-140.833c-2.634,0-5.267-.007-7.9.009-.346,0-.416-.1-.415-.426.012-3.421.007-6.842.007-10.263a7.01,7.01,0,0,1,7.19-7.331,14.824,14.824,0,0,1,4.393.3,6.843,6.843,0,0,1,5,6.148c.157,2.687.033,5.38.059,8.07.01,1.03-.012,2.061.008,3.092.006.316-.069.409-.4.407C-8.472-140.84-11.12-140.834-13.768-140.833Z" transform="translate(35.827 173.834)" fill="#aba9f8"/>
      <path id="Path_460" data-name="Path 460" d="M44.765-301a2.543,2.543,0,0,1,2.738,2.772,2.541,2.541,0,0,1-2.782,2.727A2.543,2.543,0,0,1,42-298.289,2.54,2.54,0,0,1,44.765-301Z" transform="translate(-22.754 303.746)" fill="#aba9f8"/>
    </g>
  </g>
</svg>
