<svg xmlns="http://www.w3.org/2000/svg" width="30" height="30" viewBox="0 0 30 30">
  <g id="timeresource_icon" transform="translate(-187.369 -783.333)">
    <rect id="Rectangle_111" data-name="Rectangle 111" width="30" height="30" transform="translate(187.369 783.333)" fill="none"/>
    <g id="Group_260" data-name="Group 260" transform="translate(188.369 783.333)">
      <path id="Path_425" data-name="Path 425" d="M210.587,786.917l1.075-1.3c.266-.323.393-.341.706-.088.569.46,1.13.93,1.705,1.383a.382.382,0,0,1,.063.635c-.371.447-.734.9-1.1,1.352.433.486.872.935,1.261,1.423a13.6,13.6,0,0,1,3.047,9.576,14,14,0,0,1-24.467,8.36,13.686,13.686,0,0,1-3.5-9.565,13.836,13.836,0,0,1,9.932-13c.22-.067.316-.151.306-.4-.022-.5-.012-1,0-1.5a.745.745,0,0,1,.839-.816q2.922,0,5.845,0a.752.752,0,0,1,.849.84c.005.5-.007,1,.008,1.5a.369.369,0,0,0,.152.284C208.374,786.046,209.456,786.469,210.587,786.917Zm4.059,12.115A11.275,11.275,0,1,0,203.4,810.263,11.244,11.244,0,0,0,214.646,799.032Z" transform="translate(-189.369 -782.975)" fill="#00d5e6"/>
      <path id="Path_426" data-name="Path 426" d="M398.14,880.158q-2.182,0-4.364,0c-.546,0-.72-.175-.72-.714q0-4.273,0-8.547c0-.65.2-.842.847-.795a10.17,10.17,0,0,1,9.114,8.022c.083.412.137.831.187,1.249.068.567-.129.783-.7.784Q400.323,880.16,398.14,880.158Z" transform="translate(-379.049 -864.135)" fill="#aaf4f6"/>
    </g>
  </g>
</svg>
