<svg xmlns="http://www.w3.org/2000/svg" width="44" height="44" viewBox="0 0 44 44">
  <g id="ai_icon" transform="translate(245 -230)">
    <rect id="Rectangle_105" data-name="Rectangle 105" width="44" height="44" transform="translate(-245 230)" fill="none"/>
    <g id="Group_369" data-name="Group 369" transform="translate(-245 230)">
      <path id="Path_465" data-name="Path 465" d="M-227.9,230h1.461c.013.023.023.064.04.067a5.468,5.468,0,0,1,3.2,1.739c.158.165.235.167.392,0a5.771,5.771,0,0,1,2.536-1.6,1.582,1.582,0,0,0,.62-.2h1.375a5.436,5.436,0,0,1,2.275.979,1.664,1.664,0,0,0,1.168.4,7.15,7.15,0,0,1,6.8,5.553.744.744,0,0,0,.41.536,7.442,7.442,0,0,1,3.86,6.018.619.619,0,0,0,.252.456,7.17,7.17,0,0,1,2.264,3.657,3.8,3.8,0,0,0,.245.967v1.719c-.162.078-.119.248-.147.373a6.834,6.834,0,0,1-10.6,4.216,1.125,1.125,0,0,0-1.327-.147c-.193.112-.3.172-.3.421q.016,3.781,0,7.561c0,.254.083.3.315.3.816-.013,1.633-.015,2.449,0a.347.347,0,0,0,.393-.278,3.2,3.2,0,0,1,1.542-1.826,4.278,4.278,0,0,1,4.6.167,3.831,3.831,0,0,1,1.546,3.973,3.654,3.654,0,0,1-3.515,3.332,3.823,3.823,0,0,1-4.158-2.335c-.1-.263-.241-.294-.472-.293-1.289.007-2.578,0-3.867,0a1.4,1.4,0,0,1-1.577-1.586c0-2.807-.006-5.614.007-8.421,0-.36-.054-.488-.466-.506a9.292,9.292,0,0,1-6.238-2.347c-.127-.12-.2-.147-.345-.011a9.341,9.341,0,0,1-6.276,2.363c-.346.016-.444.079-.442.442.018,2.85.01,5.7.009,8.55a1.38,1.38,0,0,1-1.515,1.518c-1.318,0-2.635.007-3.953-.005a.4.4,0,0,0-.46.307,3.306,3.306,0,0,1-1.335,1.683c-1.987,1.316-5.91.863-6.373-2.826a3.914,3.914,0,0,1,2.746-4.391,4.005,4.005,0,0,1,4.981,2.225.357.357,0,0,0,.4.265c.773-.015,1.547-.026,2.32,0,.348.013.45-.062.447-.432-.02-2.42-.007-4.84-.016-7.261,0-.186.144-.481-.174-.535-.368-.063-.649-.484-1.128-.129a6.668,6.668,0,0,1-5.423,1.33,6.851,6.851,0,0,1-5.5-5.327c-.035-.125.015-.295-.147-.373v-1.8c.068-.015.079-.066.089-.125a7.2,7.2,0,0,1,2.519-4.5.463.463,0,0,0,.149-.374,7.449,7.449,0,0,1,3.828-6,.847.847,0,0,0,.455-.6,7.107,7.107,0,0,1,6.152-5.465,3.99,3.99,0,0,0,2.313-.766A6.776,6.776,0,0,1-227.9,230Zm-8.551,21.433a3.893,3.893,0,0,1-1.915.567,1.366,1.366,0,0,1-1.4-1.323,1.37,1.37,0,0,1,1.344-1.428c1.007-.048,1.3-.306,1.394-1.293a4.779,4.779,0,0,1,5.332-4.386,3.646,3.646,0,0,1,3.2,4.625,2.1,2.1,0,0,1-.208.513,1.376,1.376,0,0,1-1.727.533,1.368,1.368,0,0,1-.742-1.679c.152-.494.066-.876-.241-1.068a1.909,1.909,0,0,0-2.472.579,3.751,3.751,0,0,0-.489,2.224,3.036,3.036,0,0,0,1.735,2.542,7.321,7.321,0,0,0,3.941.8,5.665,5.665,0,0,0,2.917-.888,2.97,2.97,0,0,0,1.415-2.633c-.015-2.09,0-4.181-.005-6.271a.816.816,0,0,0-.034-.436c-.322.065-.627.138-.937.186a3.927,3.927,0,0,1-4.224-5.243,1.39,1.39,0,0,1,1.875-.92,1.37,1.37,0,0,1,.674,1.934.908.908,0,0,0,.5,1.4,2.282,2.282,0,0,0,.816.246,1.177,1.177,0,0,0,1.33-1.2c0-.873,0-1.747,0-2.62a6.4,6.4,0,0,0-.086-1.5,2.3,2.3,0,0,0-1.779-1.835,2.1,2.1,0,0,0-2.56.731,1.244,1.244,0,0,1-1.116.531c-.487,0-.973-.007-1.46,0a3.891,3.891,0,0,0-4,4.032c-.008,1.043.35,1.417,1.4,1.464a1.37,1.37,0,0,1,1.271.921c.378,1.07-.531,2.009-1.754,1.8a4.283,4.283,0,0,1-2.9-1.884c-.214-.312-.344-.3-.6-.075a4.021,4.021,0,0,0-1.278,1.842,4.28,4.28,0,0,0,.363,3.713,1.328,1.328,0,0,1-.12,1.6,1.386,1.386,0,0,1-1.519.409,1.949,1.949,0,0,1-1-1.092c-.06.079-.114.143-.16.213a4.15,4.15,0,0,0,2.359,6.122,3.856,3.856,0,0,0,3.336-.4c.113-.074.315-.113.159-.343C-236.044,252.124-236.24,251.776-236.449,251.433Zm14.83-9.047c0,2.4,0,4.749,0,7.1a1.39,1.39,0,0,0,.032.255,3.254,3.254,0,0,0,2.346,2.5,7.352,7.352,0,0,0,5.717-.316,3.2,3.2,0,0,0,1.822-2.105,4.026,4.026,0,0,0-.165-2.231,1.845,1.845,0,0,0-1.5-1.316c-1.044-.245-1.677.381-1.421,1.394a1.366,1.366,0,0,1-.886,1.61,1.333,1.333,0,0,1-1.707-.752,3.511,3.511,0,0,1,.473-3.53c1.476-1.931,4.534-1.731,5.975-.569a5.354,5.354,0,0,1,2.013,3.831.957.957,0,0,0,.881.953,4.983,4.983,0,0,0,.555.043,1.369,1.369,0,0,1,1.25,1.389A1.361,1.361,0,0,1-207.519,252a3.071,3.071,0,0,1-1.181-.182c-.293-.1-.646-.395-.844-.308-.246.107-.333.538-.536.792s-.136.383.118.55a4.177,4.177,0,0,0,6.037-2.388,4.026,4.026,0,0,0-.549-3.607c-.123.207-.222.4-.345.573a1.347,1.347,0,0,1-1.426.564,1.361,1.361,0,0,1-1.063-1.154,1.64,1.64,0,0,1,.293-1.092,4.328,4.328,0,0,0-1-5.337c-.251-.2-.387-.3-.64.064a4.1,4.1,0,0,1-3.293,1.9,1.349,1.349,0,0,1-1.341-.884A1.377,1.377,0,0,1-212,239.626c.877-.037,1.286-.332,1.351-1.066a3.9,3.9,0,0,0-2.618-4.206,7.235,7.235,0,0,0-2.594-.229,1.557,1.557,0,0,1-1.474-.689,1.405,1.405,0,0,0-.973-.651c-1.791-.237-3.283.608-3.318,2.627-.021,1.188,0,2.377,0,3.566a.72.72,0,0,0,.055.375,1.454,1.454,0,0,0,2.005.45c.775-.361.881-.669.531-1.541a1.385,1.385,0,0,1,.686-1.811,1.376,1.376,0,0,1,1.835.71,4.029,4.029,0,0,1-2.365,5.307A4.786,4.786,0,0,1-221.619,242.386Zm-16.418,22a1.753,1.753,0,0,0-1.431-1.484,1.733,1.733,0,0,0-1.5,1.451,1.729,1.729,0,0,0,1.472,1.483A1.752,1.752,0,0,0-238.037,264.39Zm31.526,1.451a1.76,1.76,0,0,0,1.475-1.44,1.739,1.739,0,0,0-1.463-1.5,1.748,1.748,0,0,0-1.473,1.439A1.733,1.733,0,0,0-206.511,265.842Z" transform="translate(245 -230)" fill="#efa251"/>
      <path id="Path_466" data-name="Path 466" d="M26.939,271.6a4.786,4.786,0,0,0,2.743.081,4.029,4.029,0,0,0,2.365-5.307,1.376,1.376,0,1,0-2.522,1.1c.351.873.245,1.181-.531,1.541a1.454,1.454,0,0,1-2.005-.45.72.72,0,0,1-.055-.375c0-1.189-.018-2.378,0-3.566.035-2.02,1.527-2.864,3.318-2.627a1.405,1.405,0,0,1,.973.651,1.557,1.557,0,0,0,1.474.689,7.236,7.236,0,0,1,2.594.229,3.9,3.9,0,0,1,2.618,4.206c-.065.735-.474,1.03-1.351,1.066a1.377,1.377,0,0,0-1.291,1.861,1.349,1.349,0,0,0,1.341.884,4.1,4.1,0,0,0,3.293-1.9c.253-.362.389-.268.64-.064a4.328,4.328,0,0,1,1,5.337,1.64,1.64,0,0,0-.293,1.092,1.361,1.361,0,0,0,1.063,1.154,1.347,1.347,0,0,0,1.426-.564c.122-.175.221-.366.345-.573a4.026,4.026,0,0,1,.549,3.607,4.177,4.177,0,0,1-6.037,2.388c-.254-.167-.331-.285-.118-.55s.291-.684.536-.792c.2-.086.551.208.844.308a3.072,3.072,0,0,0,1.181.182,1.376,1.376,0,0,0,.035-2.744,4.983,4.983,0,0,1-.555-.043.957.957,0,0,1-.881-.953,5.354,5.354,0,0,0-2.013-3.831c-1.441-1.162-4.5-1.362-5.975.569a3.511,3.511,0,0,0-.473,3.53,1.333,1.333,0,0,0,1.707.752,1.366,1.366,0,0,0,.886-1.61c-.256-1.013.377-1.639,1.421-1.394a1.845,1.845,0,0,1,1.5,1.316,4.026,4.026,0,0,1,.165,2.231,3.2,3.2,0,0,1-1.822,2.105,7.351,7.351,0,0,1-5.717.316,3.254,3.254,0,0,1-2.346-2.5,1.39,1.39,0,0,1-.032-.255C26.938,276.345,26.939,274,26.939,271.6Z" transform="translate(-3.558 -259.21)" fill="#f9ddbb"/>
      <path id="Path_467" data-name="Path 467" d="M-30.424,539.434q0,2.041,0,4.082c0,.18-.02.325.226.426a3.912,3.912,0,0,1,2.4,4.244c-.431,3.685-4.393,4.213-6.426,2.807a3.827,3.827,0,0,1-1.587-3.681,3.6,3.6,0,0,1,2.419-3.38c.255-.1.212-.259.212-.435q0-4.039,0-8.078a1.382,1.382,0,0,1,1.868-1.41,1.365,1.365,0,0,1,.882,1.343C-30.421,536.713-30.424,538.074-30.424,539.434Zm.092,8.24a1.759,1.759,0,0,0-1.444-1.47,1.747,1.747,0,0,0-1.491,1.468,1.751,1.751,0,0,0,1.444,1.468A1.738,1.738,0,0,0-30.332,547.674Z" transform="translate(53.8 -507.795)" fill="#efa251"/>
    </g>
  </g>
</svg>
