<svg xmlns="http://www.w3.org/2000/svg" width="44" height="44" viewBox="0 0 44 44">
  <g id="data_icon" transform="translate(-32 -1444)">
    <rect id="Rectangle_104" data-name="Rectangle 104" width="44" height="44" transform="translate(32 1444)" fill="none"/>
    <g id="Group_307" data-name="Group 307" transform="translate(32 1444)">
      <path id="Path_497" data-name="Path 497" d="M115.567,1444a3.646,3.646,0,0,1,1.056.823q1.762,1.792,3.554,3.554a1.7,1.7,0,0,1,.553,1.293c-.01,3.122,0,6.243-.008,9.365a2.977,2.977,0,0,1-2.834,2.839c-1.231,0-2.463.01-3.694-.006-.281,0-.361.074-.352.353.021.672.027,1.347,0,2.019-.014.329.084.393.4.393q6.551-.017,13.1-.008c1.118,0,1.631.509,1.632,1.617,0,1.26,0,2.52,0,3.781a1.379,1.379,0,1,1-2.75-.018c0-.773-.008-1.547.006-2.32,0-.231-.043-.316-.3-.315q-5.885.013-11.771,0c-.287,0-.32.1-.316.343.014.787.009,1.575,0,2.363a1.375,1.375,0,1,1-2.748.009c-.009-.8-.011-1.6,0-2.406,0-.243-.065-.307-.307-.307q-5.885.011-11.771,0c-.241,0-.313.061-.308.306.016.787.01,1.575.006,2.363a1.378,1.378,0,1,1-2.75-.008q-.006-1.955,0-3.909a1.383,1.383,0,0,1,1.5-1.5q6.594,0,13.189.009c.341,0,.472-.055.451-.431-.036-.642-.027-1.289,0-1.932.012-.308-.052-.411-.388-.4-1.2.025-2.405.01-3.608.011a2.976,2.976,0,0,1-2.885-2.877q0-6.014,0-12.029a3.043,3.043,0,0,1,2.156-2.882c.062-.019.149.014.165-.089Zm-8.594,8.9c0,1.962.006,3.924-.007,5.885,0,.281.072.351.351.351q5.155-.015,10.31,0c.278,0,.353-.068.352-.35q-.018-3.78,0-7.561c0-.28-.073-.356-.352-.352-1.145.016-2.291,0-3.436.014-.284,0-.353-.077-.349-.354.016-1.145,0-2.291.014-3.436,0-.284-.076-.349-.353-.348q-3.093.018-6.186,0c-.284,0-.351.076-.349.353C106.979,1449.029,106.974,1450.962,106.973,1452.9Z" transform="translate(-90.473 -1444)" fill="#efa251"/>
      <path id="Path_498" data-name="Path 498" d="M210.087,1795.042c-.027-.029-.048-.072-.081-.085a3.117,3.117,0,0,1-2.166-3.229c.046-2.962.013-5.926.013-8.888a2.972,2.972,0,0,1,2.923-2.922c2.161,0,4.323.008,6.484-.008a1.807,1.807,0,0,1,1.4.606c.792.827,1.607,1.631,2.424,2.433a1.655,1.655,0,0,1,.524,1.261c-.011,2.6-.006,5.21-.006,7.815a3.025,3.025,0,0,1-2.194,2.931c-.055.016-.111.016-.126.086Zm.515-7.562c0,1.489,0,2.978,0,4.467,0,.234.018.353.313.352q3.823-.02,7.646,0c.257,0,.3-.092.3-.321q-.011-3.114,0-6.228c0-.256-.052-.346-.328-.338-.7.021-1.4-.006-2.1.014-.271.008-.337-.075-.33-.336.018-.687,0-1.375.011-2.062.006-.263-.043-.37-.343-.367q-2.405.024-4.811,0c-.276,0-.361.067-.358.352C210.611,1784.5,210.6,1785.991,210.6,1787.481Z" transform="translate(-192.727 -1751.042)" fill="#efa251"/>
      <path id="Path_499" data-name="Path 499" d="M32,1781.939c.014,0,.036-.006.039-.014a3.311,3.311,0,0,1,3.619-2.241c1.957.088,3.92.025,5.881.018a1.541,1.541,0,0,1,1.15.482c.857.863,1.71,1.73,2.574,2.586a1.573,1.573,0,0,1,.491,1.187c-.008,2.619-.042,5.239.013,7.856a3.181,3.181,0,0,1-2.168,2.926c-.064.019-.147-.005-.169.09h-9.2a5.509,5.509,0,0,1-1.408-.918A6.171,6.171,0,0,1,32,1792.6Zm2.75,5.322c0,1.489,0,2.979,0,4.468,0,.224,0,.361.3.359q3.823-.021,7.647,0c.248,0,.307-.076.306-.314-.009-2.076-.012-4.153,0-6.229,0-.3-.1-.349-.366-.343-.687.016-1.375-.006-2.062.012-.261.007-.344-.058-.336-.33.02-.7-.007-1.4.014-2.1.008-.274-.079-.33-.338-.328-1.6.012-3.208.015-4.812,0-.319,0-.367.105-.364.389C34.757,1784.311,34.75,1785.786,34.75,1787.26Z" transform="translate(-32 -1750.83)" fill="#efa251"/>
      <path id="Path_500" data-name="Path 500" d="M386.034,1795.066c-.014-.023-.023-.06-.042-.067a3.188,3.188,0,0,1-2.21-3.376c.062-2.933.015-5.868.016-8.8a2.984,2.984,0,0,1,2.882-2.881c2.2,0,4.408.006,6.613,0a1.626,1.626,0,0,1,1.225.512c.744.754,1.486,1.51,2.241,2.253a3.6,3.6,0,0,1,.792,1.022v9.109a3.735,3.735,0,0,1-2.32,2.234Zm.516-7.585c0,1.5.007,3.007-.007,4.511,0,.269.073.332.334.331q3.8-.015,7.6,0c.225,0,.326-.033.325-.3q-.016-3.136,0-6.272c0-.29-.111-.32-.35-.316-.7.012-1.4-.006-2.1.01-.247.005-.313-.074-.308-.313.015-.673-.01-1.346.012-2.019.01-.315-.047-.439-.407-.433-1.575.023-3.15.018-4.725,0-.3,0-.385.064-.381.372C386.56,1784.531,386.55,1786.006,386.55,1787.481Z" transform="translate(-353.55 -1751.066)" fill="#efa251"/>
      <path id="Path_501" data-name="Path 501" d="M239.931,1816.735c0-1.489.008-2.978-.006-4.467,0-.285.082-.354.358-.352q2.405.019,4.811,0c.3,0,.349.1.343.367-.016.687.007,1.375-.011,2.062-.007.261.059.344.33.336.7-.02,1.4.008,2.1-.014.275-.008.329.081.328.338q-.015,3.114,0,6.228c0,.229-.043.322-.3.321q-3.823-.014-7.646,0c-.294,0-.314-.117-.313-.352C239.934,1819.713,239.93,1818.224,239.931,1816.735Z" transform="translate(-222.056 -1780.297)" fill="#f9ddbb"/>
      <path id="Path_502" data-name="Path 502" d="M63.928,1816.716c0-1.475.007-2.95-.006-4.425,0-.284.046-.393.364-.389,1.6.018,3.208.014,4.812,0,.258,0,.346.054.338.328-.021.7.007,1.4-.014,2.1-.008.272.076.337.336.33.687-.019,1.375,0,2.062-.012.263-.006.368.043.366.343-.014,2.077-.011,4.153,0,6.229,0,.238-.058.314-.306.314q-3.823-.013-7.647,0c-.3,0-.306-.135-.3-.359C63.931,1819.7,63.929,1818.206,63.928,1816.716Z" transform="translate(-61.179 -1780.285)" fill="#f9ddbb"/>
      <path id="Path_503" data-name="Path 503" d="M415.92,1816.684c0-1.475.01-2.95-.008-4.425,0-.308.086-.375.381-.372,1.575.015,3.15.02,4.725,0,.36-.005.417.118.407.433-.022.672,0,1.346-.012,2.019-.005.24.061.319.308.313.7-.016,1.4,0,2.1-.01.238,0,.352.025.35.316q-.02,3.136,0,6.272c0,.263-.1.3-.325.3q-3.8-.01-7.6,0c-.262,0-.337-.061-.334-.331C415.927,1819.691,415.92,1818.188,415.92,1816.684Z" transform="translate(-382.919 -1780.269)" fill="#f9ddbb"/>
    </g>
  </g>
</svg>
