<svg xmlns="http://www.w3.org/2000/svg" width="30" height="30" viewBox="0 0 30 30">
  <g id="dataai_icon" transform="translate(217.043 -72.96)">
    <rect id="Rectangle_110" data-name="Rectangle 110" width="30" height="30" transform="translate(-217.043 72.96)" fill="none"/>
    <g id="Group_252" data-name="Group 252" transform="translate(-217.043 72.96)">
      <path id="Path_421" data-name="Path 421" d="M-189.626,96.958a2.5,2.5,0,0,1-2.419,2.44c0,.916,0,1.839,0,2.761,0,.609-.193.8-.811.8-.687,0-1.374,0-2.062,0-.512,0-.723-.216-.725-.732,0-.936,0-1.873,0-2.837h-1.2v1.107c0,.587,0,1.175,0,1.762,0,.47-.222.7-.681.7q-1.125.009-2.249,0a.6.6,0,0,1-.666-.676c-.006-.825,0-1.649,0-2.474,0-.135,0-.27,0-.425h-1.2v.347c0,.837,0,1.674,0,2.512,0,.495-.216.715-.7.718q-1.106.007-2.212,0a.608.608,0,0,1-.684-.7c0-.949,0-1.9,0-2.873h-1.2q0,1.211,0,2.422c0,1.085-.064,1.149-1.134,1.15-.562,0-1.125,0-1.687,0-.581,0-.777-.2-.778-.794,0-.923,0-1.845,0-2.787a2.548,2.548,0,0,1-1.7-.724,2.492,2.492,0,0,1-.712-1.695h-1c-.637,0-1.275,0-1.912,0a.6.6,0,0,1-.674-.67q-.01-1.125,0-2.249c0-.458.232-.675.7-.677.948,0,1.9,0,2.868,0v-1.2h-2.694c-.715,0-.88-.165-.88-.88,0-.662,0-1.325,0-1.987,0-.517.213-.73.725-.733.825,0,1.649,0,2.474,0h.382v-1.2h-.547c-.787,0-1.574,0-2.361,0a.6.6,0,0,1-.671-.672c-.006-.737,0-1.474,0-2.212,0-.492.218-.711.707-.712.948,0,1.9,0,2.867,0v-1.2H-215.2c-.664,0-.839-.177-.84-.844s0-1.349,0-2.024c0-.514.215-.729.728-.73.947,0,1.894,0,2.835,0a2.5,2.5,0,0,1,2.435-2.424c0-.878,0-1.762,0-2.646,0-.786.145-.929.944-.928.65,0,1.3,0,1.949,0,.488,0,.7.221.706.714,0,.947,0,1.894,0,2.863h1.2v-.346c0-.825,0-1.649,0-2.474,0-.545.206-.755.738-.757q1.068,0,2.137,0c.511,0,.722.216.723.734,0,.936,0,1.872,0,2.836h1.2V75.276c0-.537,0-1.075,0-1.612,0-.47.221-.7.682-.7q1.125-.009,2.249,0a.6.6,0,0,1,.665.678c.006.837,0,1.674,0,2.511v.387h1.2v-.348c0-.837,0-1.674,0-2.512,0-.494.217-.714.7-.717q1.106-.007,2.212,0a.61.61,0,0,1,.683.7c0,.948,0,1.9,0,2.868a2.5,2.5,0,0,1,2.427,2.431h2.69c.716,0,.881.164.881.878,0,.662,0,1.325,0,1.987,0,.517-.213.732-.724.734-.825,0-1.649,0-2.474,0h-.382v1.2h.471c.812,0,1.624,0,2.437,0a.6.6,0,0,1,.672.671q.01,1.124,0,2.249c0,.457-.232.674-.7.676-.948,0-1.9,0-2.868,0v1.2h2.734c.664,0,.84.177.841.843,0,.687,0,1.375,0,2.062a.609.609,0,0,1-.689.693c-.949.005-1.9,0-2.879,0v1.2H-189c.762,0,1.524,0,2.287,0a.6.6,0,0,1,.669.674c.006.737.005,1.474,0,2.211,0,.491-.219.709-.709.711C-187.7,96.961-188.652,96.958-189.626,96.958Zm-10.817-8.988q0,3.318,0,6.635a1.107,1.107,0,0,0,.859,1.127,1.111,1.111,0,0,0,1.282-.609.757.757,0,0,1,.783-.5,1.068,1.068,0,0,0,1.035-1.306c-.143-.676.02-.891.7-.93a1.061,1.061,0,0,0,.972-1.347,1.086,1.086,0,0,0-1.047-.813.6.6,0,0,1-.6-.593.62.62,0,0,1,.641-.6c.162-.01.326.007.487-.006a1.944,1.944,0,0,0,.513-.079,1.047,1.047,0,0,0,.667-1.1,1.07,1.07,0,0,0-.957-.95c-.625-.1-.833-.549-.476-1.037a1.022,1.022,0,0,0,.123-1.248,1.108,1.108,0,0,0-1.264-.489.622.622,0,0,1-.752-.26.622.622,0,0,1,.138-.781,1.054,1.054,0,0,0-.423-1.741,1.786,1.786,0,0,1-.495-.461,3.744,3.744,0,0,0-.448-.533,1.014,1.014,0,0,0-1.133-.058,1.1,1.1,0,0,0-.608,1.041Q-200.442,84.652-200.443,87.97Zm-1.2-.007q0-3.3,0-6.6a1.122,1.122,0,0,0-.882-1.185,1.184,1.184,0,0,0-1.313.695,1.182,1.182,0,0,1-.517.48,1.06,1.06,0,0,0-.4,1.727.628.628,0,0,1,.146.78.6.6,0,0,1-.748.266,1.275,1.275,0,0,0-.22-.044,1.082,1.082,0,0,0-1.065.561.989.989,0,0,0,.06,1.128q.662.944-.467,1.136A1.072,1.072,0,0,0-207.942,88a1.05,1.05,0,0,0,.95,1.031c.2.02.4.009.6.012.46.008.727.2.76.555s-.207.582-.663.651a1.093,1.093,0,0,0-1.02,1.131,1.074,1.074,0,0,0,1.127,1.015.6.6,0,0,1,.623.827,1.065,1.065,0,0,0,1.08,1.412.674.674,0,0,1,.657.4,1.142,1.142,0,0,0,1.335.7,1.14,1.14,0,0,0,.853-1.245Q-201.642,91.224-201.643,87.963Zm-5.4-7.795a1.8,1.8,0,0,0-1.773-1.806,1.8,1.8,0,0,0-1.825,1.792,1.8,1.8,0,0,0,1.773,1.806A1.8,1.8,0,0,0-207.042,80.169Zm13.815-1.807a1.806,1.806,0,0,0-1.817,1.763,1.8,1.8,0,0,0,1.782,1.835,1.8,1.8,0,0,0,1.816-1.8A1.8,1.8,0,0,0-193.227,78.362Zm-15.607,19.2a1.8,1.8,0,0,0,1.792-1.825,1.8,1.8,0,0,0-1.806-1.773,1.805,1.805,0,0,0-1.792,1.825A1.8,1.8,0,0,0-208.834,97.557Zm17.389-1.782a1.8,1.8,0,0,0-1.8-1.816,1.8,1.8,0,0,0-1.8,1.782,1.8,1.8,0,0,0,1.8,1.816A1.8,1.8,0,0,0-191.445,95.775Z" transform="translate(216.043 -72.96)" fill="#00d5e6"/>
      <path id="Path_422" data-name="Path 422" d="M-8.007,176.845q0-3.4,0-6.795a1.138,1.138,0,0,1,.592-1.066.948.948,0,0,1,1.1.06,3.793,3.793,0,0,1,.436.546,1.777,1.777,0,0,0,.482.472,1.1,1.1,0,0,1,.412,1.783.66.66,0,0,0-.134.8.591.591,0,0,0,.732.266,1.057,1.057,0,0,1,1.231.5,1.089,1.089,0,0,1-.119,1.278.626.626,0,0,0,.463,1.062,1.071,1.071,0,0,1,.932.972,1.079,1.079,0,0,1-.65,1.128,1.808,1.808,0,0,1-.5.081c-.157.013-.317,0-.474.006a.619.619,0,0,0-.624.614.6.6,0,0,0,.585.607,1.069,1.069,0,0,1,1.02.832,1.08,1.08,0,0,1-.946,1.38c-.666.04-.825.26-.685.952a1.082,1.082,0,0,1-1.008,1.338.736.736,0,0,0-.763.509,1.066,1.066,0,0,1-1.248.624A1.125,1.125,0,0,1-8,183.64Q-8.011,180.242-8.007,176.845Z" transform="translate(23.715 -161.834)" fill="#defbfc"/>
      <path id="Path_423" data-name="Path 423" d="M-101.876,176.911q0,3.339,0,6.679a1.164,1.164,0,0,1-.831,1.275,1.1,1.1,0,0,1-1.3-.717.654.654,0,0,0-.639-.41,1.08,1.08,0,0,1-1.051-1.446c.115-.509-.113-.828-.607-.847a1.068,1.068,0,0,1-1.1-1.04,1.1,1.1,0,0,1,.993-1.158c.444-.07.678-.311.646-.666s-.292-.56-.74-.568c-.195,0-.39.008-.583-.013a1.055,1.055,0,0,1-.925-1.055,1.085,1.085,0,0,1,.871-1.112q1.1-.2.455-1.163a1.056,1.056,0,0,1-.059-1.155,1.042,1.042,0,0,1,1.038-.575,1.187,1.187,0,0,1,.214.045.575.575,0,0,0,.728-.272.666.666,0,0,0-.143-.8,1.111,1.111,0,0,1,.389-1.769,1.176,1.176,0,0,0,.5-.491,1.141,1.141,0,0,1,1.279-.712,1.141,1.141,0,0,1,.859,1.213Q-101.873,173.533-101.876,176.911Z" transform="translate(116.167 -161.907)" fill="#defbfc"/>
    </g>
  </g>
</svg>
