<svg xmlns="http://www.w3.org/2000/svg" width="44" height="44" viewBox="0 0 44 44">
  <g id="infrastructure1_icon" transform="translate(760 -1108)">
    <rect id="Rectangle_106" data-name="Rectangle 106" width="44" height="44" transform="translate(-760 1108)" fill="none"/>
    <g id="Group_302" data-name="Group 302" transform="translate(-760 1108)">
      <path id="Path_468" data-name="Path 468" d="M-669.524,1356.726a1.836,1.836,0,0,1-.958-1.963c.05-.788.01-.788-.791-.788-2.463,0-4.927.007-7.39,0a1.378,1.378,0,0,1-1.337-1.889,1.393,1.393,0,0,1,1.362-.859c2.578,0,5.156-.008,7.734.008.352,0,.486-.073.441-.439a6.5,6.5,0,0,1-.007-.816,1.377,1.377,0,0,1,1.486-1.5c.773,0,1.547-.014,2.32.007.274.008.332-.075.325-.334-.019-.687-.024-1.375,0-2.062.012-.311-.086-.368-.379-.367-2.793.012-5.585,0-8.378.007a3.666,3.666,0,0,1-3.627-3.634q.005-3.244,0-6.488a3.669,3.669,0,0,1,3.632-3.632q10.14,0,20.279,0a3.675,3.675,0,0,1,3.593,3.584q0,3.265,0,6.531a3.669,3.669,0,0,1-3.624,3.64c-2.793,0-5.586,0-8.378-.007-.288,0-.394.049-.382.364.026.686.019,1.375,0,2.062-.007.254.044.345.323.337.773-.022,1.547-.009,2.32-.008a1.388,1.388,0,0,1,1.492,1.461c.01.423-.185.99.083,1.229.234.208.789.059,1.2.059,2.306,0,4.612,0,6.917,0a1.355,1.355,0,0,1,1.37,1.019,1.363,1.363,0,0,1-.568,1.5,1.539,1.539,0,0,1-.9.232c-2.535-.005-5.07.006-7.6-.013-.394,0-.589.062-.511.5.027.153-.01.316.007.472a1.584,1.584,0,0,1-1.034,1.792Zm4.511-13.75q5.155,0,10.31,0c.618,0,.733-.112.733-.719q0-3.394,0-6.788c0-.637-.108-.743-.753-.743h-20.491c-.659,0-.755.1-.755.783q0,3.329,0,6.659c0,.722.087.808.817.808Zm.084,8.25c-.83,0-1.661,0-2.491,0-.192,0-.313,0-.305.264.021.744.016,1.489,0,2.233,0,.213.065.26.266.259q2.491-.011,4.983,0c.211,0,.263-.064.26-.266-.012-.73-.017-1.461,0-2.191.006-.249-.072-.307-.31-.3C-663.326,1351.235-664.128,1351.226-664.929,1351.226Z" transform="translate(686.969 -1312.726)" fill="#568ce0"/>
      <path id="Path_469" data-name="Path 469" d="M-716,1130.688a12.749,12.749,0,0,0-.339,1.6,9.727,9.727,0,0,1-2.969,4.965,1.4,1.4,0,0,1-2.119-.006,1.39,1.39,0,0,1,.315-2.065,6.909,6.909,0,0,0-.459-10.812,6.772,6.772,0,0,0-3.857-1.243,1.408,1.408,0,0,1-1.573-1.6,10.721,10.721,0,0,0-9.627-10.711,10.705,10.705,0,0,0-8.424,2.359,10.924,10.924,0,0,0-3.677,6.094,1.388,1.388,0,0,1-1.333,1.182,8.087,8.087,0,0,0-7.109,6.971,7.864,7.864,0,0,0,2.379,7.066,1.458,1.458,0,0,1,.512,1.457,1.372,1.372,0,0,1-2.343.6,10.864,10.864,0,0,1-2.948-5.094,12.618,12.618,0,0,1-.337-1.811c-.008-.068,0-.146-.092-.166v-.516a2.045,2.045,0,0,0,0-.945v-.516a8.636,8.636,0,0,0,.294-1.392,11.1,11.1,0,0,1,8.072-8.147.706.706,0,0,0,.571-.472,13.938,13.938,0,0,1,10.132-9.167,5.553,5.553,0,0,0,1.384-.33h3.008a4.31,4.31,0,0,0,1.02.2,14.086,14.086,0,0,1,11.154,11.849c.051.364.184.453.511.515a9.813,9.813,0,0,1,7.642,7.475,4.37,4.37,0,0,0,.212,1.1Z" transform="translate(760 -1108)" fill="#568ce0"/>
      <path id="Path_470" data-name="Path 470" d="M-760,1341a2.045,2.045,0,0,1,0,.945Z" transform="translate(760 -1320.977)" fill="#568ce0"/>
      <path id="Path_471" data-name="Path 471" d="M-621.048,1372.248h-10.138c-.73,0-.817-.086-.817-.808q0-3.329,0-6.659c0-.682.1-.783.755-.783h20.491c.645,0,.752.106.753.743q0,3.394,0,6.788c0,.606-.115.718-.733.719Q-615.893,1372.25-621.048,1372.248Zm-9.581-4.123c0,.529-.005,1.059,0,1.589a1.365,1.365,0,0,0,1.386,1.427,1.362,1.362,0,0,0,1.361-1.41q.012-1.61,0-3.22a1.355,1.355,0,0,0-1.365-1.4,1.354,1.354,0,0,0-1.381,1.387C-630.636,1367.037-630.628,1367.581-630.629,1368.125Zm4.125-.045q0,.408,0,.816c0,.272,0,.544,0,.816a1.362,1.362,0,0,0,1.385,1.428,1.357,1.357,0,0,0,1.362-1.407q.012-1.61,0-3.22a1.357,1.357,0,0,0-1.362-1.406,1.36,1.36,0,0,0-1.384,1.428C-626.508,1367.05-626.5,1367.565-626.5,1368.08Zm6.875.049c0-.558.011-1.117,0-1.674a1.354,1.354,0,0,0-1.377-1.348,1.347,1.347,0,0,0-1.366,1.357q-.019,1.653,0,3.306a1.352,1.352,0,0,0,1.4,1.369,1.355,1.355,0,0,0,1.346-1.379C-619.621,1369.217-619.629,1368.673-619.629,1368.129Zm6.816-.01a1.2,1.2,0,0,0-1.341-1.312,1.2,1.2,0,0,0-1.29,1.319,1.2,1.2,0,0,0,1.341,1.311A1.2,1.2,0,0,0-612.813,1368.119Z" transform="translate(643.004 -1341.998)" fill="#9fcdf9"/>
      <path id="Path_472" data-name="Path 472" d="M-616.027,1379.918c0-.544-.007-1.088,0-1.631a1.354,1.354,0,0,1,1.381-1.387,1.355,1.355,0,0,1,1.365,1.4q.012,1.61,0,3.22a1.362,1.362,0,0,1-1.361,1.41,1.365,1.365,0,0,1-1.386-1.427C-616.032,1380.977-616.027,1380.448-616.027,1379.918Z" transform="translate(628.402 -1353.791)" fill="#568ce0"/>
      <path id="Path_473" data-name="Path 473" d="M-568.014,1379.877c0-.515,0-1.03,0-1.546a1.36,1.36,0,0,1,1.384-1.428,1.357,1.357,0,0,1,1.362,1.406q.012,1.61,0,3.22a1.357,1.357,0,0,1-1.362,1.407,1.362,1.362,0,0,1-1.385-1.428c0-.272,0-.544,0-.816S-568.014,1380.149-568.014,1379.877Z" transform="translate(584.514 -1353.795)" fill="#568ce0"/>
      <path id="Path_474" data-name="Path 474" d="M-517.316,1379.922c0,.544.008,1.088,0,1.632a1.355,1.355,0,0,1-1.346,1.379,1.352,1.352,0,0,1-1.4-1.369q-.019-1.653,0-3.306a1.347,1.347,0,0,1,1.366-1.357,1.354,1.354,0,0,1,1.377,1.348C-517.3,1378.806-517.316,1379.364-517.316,1379.922Z" transform="translate(540.691 -1353.791)" fill="#568ce0"/>
      <path id="Path_475" data-name="Path 475" d="M-436.67,1398a1.2,1.2,0,0,1-1.29,1.319,1.2,1.2,0,0,1-1.341-1.311,1.2,1.2,0,0,1,1.29-1.319A1.2,1.2,0,0,1-436.67,1398Z" transform="translate(466.861 -1371.88)" fill="#568ce0"/>
    </g>
  </g>
</svg>
