<svg xmlns="http://www.w3.org/2000/svg" width="44" height="44" viewBox="0 0 44 44">
  <g id="infrastructure2_icon" transform="translate(584 -556.767)">
    <rect id="Rectangle_107" data-name="Rectangle 107" width="44" height="44" transform="translate(-584 556.767)" fill="none"/>
    <g id="Group_303" data-name="Group 303" transform="translate(-584 558.767)">
      <path id="Path_476" data-name="Path 476" d="M-585,563.224c.141-.047.117-.19.142-.287a4.592,4.592,0,0,1,4.316-3.171c7.2.052,14.405.018,21.608.019a4.363,4.363,0,0,1,4.18,4.141c.012,4.1.006,8.191,0,12.286a1.378,1.378,0,0,1-1.371,1.45,1.378,1.378,0,0,1-1.378-1.441c-.006-.773-.018-1.547.005-2.32.009-.3-.072-.373-.373-.372q-7.3.016-14.606.008c-3.122,0-6.243,0-9.365-.008-.327,0-.424.069-.421.413q.026,3.716,0,7.432c0,.327.067.422.411.422q7.99-.018,15.981-.007a1.379,1.379,0,0,1,1.4,1.874,1.391,1.391,0,0,1-1.393.874q-3.866,0-7.733,0c-2.764,0-5.527.006-8.291-.007-.3,0-.375.072-.373.373.014,2.176,0,4.353.009,6.53,0,.932.416,1.35,1.336,1.351q9.9.006,19.8,0c.043,0,.085-.007.167-.015a27.016,27.016,0,0,1-1.054-2.935,31.137,31.137,0,0,1-1.013-9.007c.005-.382.241-.238.4-.218a14.52,14.52,0,0,0,3.468.073,10.182,10.182,0,0,0,6.621-3.062c.118-.125.252-.235.365-.363s.2-.115.312.005c.166.178.351.338.52.513a10.2,10.2,0,0,0,6.383,2.9,17.982,17.982,0,0,0,3.939-.1v3.609c-.092.026-.081.1-.084.172-.043.8-.14,1.6-.262,2.388A21.384,21.384,0,0,1-544,594.526a14.389,14.389,0,0,1-7.337,6.367,1.759,1.759,0,0,1-1.323,0,13.919,13.919,0,0,1-6.474-5.028.716.716,0,0,0-.663-.339c-6.915.009-13.831-.027-20.746.027a4.6,4.6,0,0,1-4.315-3.171c-.026-.1,0-.239-.142-.287Zm41.173,21.042c0-.057.006-.114.01-.171.038-.566.039-.569-.537-.613a14.173,14.173,0,0,1-7.461-2.5c-.171-.125-.27-.073-.408.029a10.878,10.878,0,0,1-1.726,1.035,15.32,15.32,0,0,1-5.916,1.44c-.309.017-.385.1-.344.4.066.481.077.969.125,1.453a19,19,0,0,0,1.808,6.707,12.551,12.551,0,0,0,5.89,6.013.806.806,0,0,0,.762,0,12.192,12.192,0,0,0,5.019-4.494A18.885,18.885,0,0,0-543.827,584.266Zm-26.068-13.48q6.014,0,12.028.007c.3,0,.376-.069.374-.372-.014-2.148,0-4.3-.008-6.443,0-1.039-.4-1.439-1.422-1.44q-10.976,0-21.951,0c-.95,0-1.372.416-1.374,1.357,0,2.176.005,4.353-.01,6.529,0,.308.083.368.378.368Q-575.888,570.776-569.9,570.785Z" transform="translate(585 -559.767)" fill="#568ce0"/>
      <path id="Path_477" data-name="Path 477" d="M-518.3,735.944c0,.529.007,1.057,0,1.586a1.364,1.364,0,0,1-1.376,1.39,1.357,1.357,0,0,1-1.372-1.393q-.014-1.628,0-3.257a1.349,1.349,0,0,1,1.374-1.388,1.359,1.359,0,0,1,1.374,1.391C-518.294,734.83-518.3,735.387-518.3,735.944Z" transform="translate(526.551 -718.005)" fill="#568ce0"/>
      <path id="Path_478" data-name="Path 478" d="M-470.288,735.89c0,.529,0,1.057,0,1.585a1.364,1.364,0,0,1-1.363,1.444,1.357,1.357,0,0,1-1.385-1.421q-.01-1.585,0-3.171a1.36,1.36,0,0,1,1.4-1.444,1.369,1.369,0,0,1,1.343,1.463C-470.285,734.861-470.288,735.375-470.288,735.89Z" transform="translate(482.663 -718.007)" fill="#568ce0"/>
      <path id="Path_479" data-name="Path 479" d="M-518.293,863.913c0,.529,0,1.057,0,1.585a1.36,1.36,0,0,1-1.385,1.422,1.354,1.354,0,0,1-1.362-1.4q-.012-1.607,0-3.214a1.355,1.355,0,0,1,1.384-1.422,1.364,1.364,0,0,1,1.363,1.443C-518.29,862.856-518.293,863.385-518.293,863.913Z" transform="translate(526.543 -835.008)" fill="#568ce0"/>
      <path id="Path_480" data-name="Path 480" d="M-473.057,863.848c0-.529-.007-1.057,0-1.586a1.354,1.354,0,0,1,1.337-1.382,1.348,1.348,0,0,1,1.408,1.354q.023,1.671,0,3.343a1.346,1.346,0,0,1-1.335,1.339,1.351,1.351,0,0,1-1.407-1.311C-473.073,865.02-473.057,864.434-473.057,863.848Z" transform="translate(482.683 -835.003)" fill="#568ce0"/>
      <path id="Path_481" data-name="Path 481" d="M-327.031,755.261a1.212,1.212,0,0,1-1.329-1.331,1.211,1.211,0,0,1,1.312-1.308,1.214,1.214,0,0,1,1.327,1.334A1.2,1.2,0,0,1-327.031,755.261Z" transform="translate(350.416 -736.048)" fill="#568ce0"/>
      <path id="Path_482" data-name="Path 482" d="M-280.243,809.139a18.885,18.885,0,0,1-2.777,9.3,12.192,12.192,0,0,1-5.019,4.494.806.806,0,0,1-.762,0,12.551,12.551,0,0,1-5.89-6.013,19,19,0,0,1-1.808-6.707c-.048-.484-.059-.972-.125-1.453-.041-.3.035-.384.344-.4a15.321,15.321,0,0,0,5.916-1.44,10.877,10.877,0,0,0,1.726-1.035c.138-.1.237-.153.408-.029a14.173,14.173,0,0,0,7.46,2.5c.575.044.575.048.537.613C-280.237,809.024-280.239,809.082-280.243,809.139Z" transform="translate(321.416 -784.64)" fill="#9fcdf9"/>
      <path id="Path_483" data-name="Path 483" d="M-518.321,607.9c0,.543.008,1.086,0,1.628a1.354,1.354,0,0,1-1.391,1.371,1.354,1.354,0,0,1-1.356-1.365q-.015-1.65,0-3.3a1.359,1.359,0,0,1,1.392-1.373,1.362,1.362,0,0,1,1.356,1.367c.007.286,0,.571,0,.857S-518.321,607.628-518.321,607.9Z" transform="translate(526.571 -600.986)" fill="#568ce0"/>
      <path id="Path_484" data-name="Path 484" d="M-470.311,607.93c0,.529.006,1.057,0,1.586a1.366,1.366,0,0,1-1.365,1.4,1.353,1.353,0,0,1-1.383-1.381c-.01-1.1-.012-2.2,0-3.3a1.347,1.347,0,0,1,1.4-1.357,1.366,1.366,0,0,1,1.344,1.379c0,.014,0,.029,0,.043Q-470.311,607.116-470.311,607.93Z" transform="translate(482.687 -601.003)" fill="#568ce0"/>
      <path id="Path_485" data-name="Path 485" d="M-327.011,627.292A1.2,1.2,0,0,1-328.333,626a1.21,1.21,0,0,1,1.314-1.345,1.2,1.2,0,0,1,1.323,1.292A1.211,1.211,0,0,1-327.011,627.292Z" transform="translate(350.391 -619.079)" fill="#568ce0"/>
    </g>
  </g>
</svg>
