<svg xmlns="http://www.w3.org/2000/svg" width="44" height="44" viewBox="0 0 44 44">
  <g id="infrastructure3_icon" transform="translate(-46.806 -981)">
    <rect id="Rectangle_108" data-name="Rectangle 108" width="44" height="44" transform="translate(46.806 981)" fill="none"/>
    <g id="Group_304" data-name="Group 304" transform="translate(49.806 981)">
      <path id="Path_486" data-name="Path 486" d="M73.463,981c.2.146.447.125.667.205a4.569,4.569,0,0,1,2.958,4.171c-.053,3.565-.014,7.131-.017,10.7a1.374,1.374,0,0,1-2.736.224,7.813,7.813,0,0,1-.007-1.2c.017-.282-.071-.352-.351-.351q-8.678.013-17.356.007c-2.22,0-4.439.007-6.659-.008-.317,0-.4.07-.4.395q.023,3.737,0,7.475c0,.319.071.4.394.4q5.95-.02,11.9-.008a1.38,1.38,0,0,1,.955,2.445,1.565,1.565,0,0,1-1.044.309c-3.924-.005-7.847,0-11.771-.013-.365,0-.437.095-.435.444.016,2.592.012,5.184.006,7.776a1.373,1.373,0,0,1-2.707.365,1.986,1.986,0,0,1-.04-.468c0-9.494.018-18.988-.018-28.482a4.534,4.534,0,0,1,3.414-4.29c.058-.011.111-.016.126-.085ZM61.942,992q5.992,0,11.985.007c.3,0,.408-.048.4-.386-.019-2.148-.008-4.3-.01-6.443,0-1.021-.41-1.427-1.436-1.427q-10.932,0-21.865,0c-1.051,0-1.447.4-1.448,1.459,0,2.119.008,4.238-.01,6.357,0,.353.076.443.437.442C53.981,991.994,57.962,992,61.942,992Z" transform="translate(-46.806 -981)" fill="#568ce0"/>
      <path id="Path_487" data-name="Path 487" d="M87.967,1317.356c-2.949-2.329-5.791-4.787-8.683-7.186a1.328,1.328,0,0,1,0-2.127q4.11-3.449,8.243-6.871a1.282,1.282,0,0,1,1.484-.168,1.317,1.317,0,0,1,.763,1.246c0,.787.016,1.575-.007,2.362-.008.3.064.377.37.375,2.562-.014,5.124-.008,7.686-.006a1.4,1.4,0,0,1,1.576,1.586q0,2.576,0,5.153a1.382,1.382,0,0,1-1.522,1.511c-2.576,0-5.153.006-7.729-.006-.29,0-.394.051-.381.365.027.657-.025,1.319.018,1.974a1.624,1.624,0,0,1-1.041,1.792Zm-.945-4.311c0-.395,0-.69,0-.986a1.4,1.4,0,0,1,1.586-1.578c2.562,0,5.124,0,7.685.006.27,0,.372-.055.362-.348-.023-.657-.03-1.318,0-1.974.017-.359-.085-.446-.442-.443-2.533.017-5.066.01-7.6.009a1.406,1.406,0,0,1-1.592-1.615v-.95c-1.564,1.3-3.044,2.543-4.531,3.773-.19.158-.112.239.029.356C83.995,1310.52,85.466,1311.748,87.022,1313.045Z" transform="translate(-76.005 -1273.356)" fill="#568ce0"/>
      <path id="Path_488" data-name="Path 488" d="M259.579,1201.288c-1.031,0-2.061,0-3.092,0a1.374,1.374,0,0,1-1.505-1.484q0-2.641,0-5.282a1.37,1.37,0,0,1,1.505-1.483c2.119,0,4.237-.009,6.356.007.32,0,.408-.071.4-.4-.028-.729,0-1.46-.012-2.19a1.406,1.406,0,0,1,2.408-1.122q1.661,1.393,3.324,2.783,2.258,1.884,4.519,3.764a1.448,1.448,0,0,1,0,2.553q-3.96,3.294-7.916,6.595a1.385,1.385,0,0,1-2.332-1.083c0-.229,0-.458,0-.687,0-.558-.012-1.117.006-1.675.008-.244-.065-.308-.308-.305-1.116.013-2.233.006-3.35.006Zm6.4-.186c1.565-1.3,3.044-2.544,4.532-3.773.236-.2.061-.276-.066-.382q-1.73-1.443-3.462-2.884c-.312-.26-.626-.518-1-.83,0,.4,0,.711,0,1.021a1.388,1.388,0,0,1-1.543,1.534c-2.118,0-4.236.005-6.353-.005-.272,0-.37.059-.36.349.022.672.026,1.346,0,2.017-.013.326.083.4.4.4,2.1-.015,4.207-.009,6.31-.007a1.39,1.39,0,0,1,1.547,1.53C265.982,1200.379,265.981,1200.69,265.981,1201.1Z" transform="translate(-237.09 -1171.038)" fill="#568ce0"/>
      <path id="Path_489" data-name="Path 489" d="M113.68,1156.9c0,.543.009,1.086,0,1.628a1.373,1.373,0,0,1-2.747-.005q-.014-1.65,0-3.3a1.373,1.373,0,0,1,2.747.005C113.688,1155.79,113.68,1156.347,113.68,1156.9Z" transform="translate(-105.413 -1139.005)" fill="#568ce0"/>
      <path id="Path_490" data-name="Path 490" d="M161.689,1156.887c0,.543.006,1.086,0,1.628a1.374,1.374,0,1,1-2.748.019c-.01-1.1-.012-2.2,0-3.3a1.346,1.346,0,0,1,1.4-1.356,1.361,1.361,0,0,1,1.342,1.38C161.7,1155.8,161.689,1156.344,161.689,1156.887Z" transform="translate(-149.296 -1139.022)" fill="#568ce0"/>
      <path id="Path_491" data-name="Path 491" d="M306.283,1174.985a1.319,1.319,0,1,1-1.291-1.324A1.211,1.211,0,0,1,306.283,1174.985Z" transform="translate(-281.574 -1157.104)" fill="#568ce0"/>
      <path id="Path_492" data-name="Path 492" d="M125.613,1359.034c-1.556-1.3-3.027-2.525-4.5-3.75-.141-.117-.22-.2-.029-.356,1.487-1.23,2.966-2.468,4.531-3.773v.95a1.406,1.406,0,0,0,1.592,1.615c2.533,0,5.066.008,7.6-.009.358,0,.46.084.442.443-.032.657-.025,1.317,0,1.974.01.293-.092.349-.362.348-2.562-.01-5.124-.006-7.685-.006a1.4,1.4,0,0,0-1.586,1.578C125.613,1358.344,125.613,1358.639,125.613,1359.034Z" transform="translate(-114.597 -1319.345)" fill="#9fcdf9"/>
      <path id="Path_493" data-name="Path 493" d="M295.144,1247.132c0-.412,0-.723,0-1.033a1.39,1.39,0,0,0-1.547-1.53c-2.1,0-4.207-.008-6.31.007-.318,0-.415-.071-.4-.4.028-.671.024-1.345,0-2.017-.009-.29.088-.351.36-.349,2.118.01,4.236.006,6.353.005a1.388,1.388,0,0,0,1.543-1.534c0-.31,0-.62,0-1.021.377.312.691.571,1,.83q1.732,1.442,3.462,2.884c.127.106.3.187.066.382C298.188,1244.588,296.709,1245.827,295.144,1247.132Z" transform="translate(-266.252 -1217.068)" fill="#9fcdf9"/>
      <path id="Path_494" data-name="Path 494" d="M113.709,1028.912c0,.543.008,1.086,0,1.628a1.373,1.373,0,1,1-2.746-.025q-.012-1.607,0-3.214a1.374,1.374,0,1,1,2.748-.018c0,.271,0,.543,0,.814S113.709,1028.641,113.709,1028.912Z" transform="translate(-105.442 -1022.025)" fill="#568ce0"/>
      <path id="Path_495" data-name="Path 495" d="M158.954,1028.837c0-.529-.007-1.057,0-1.586a1.374,1.374,0,1,1,2.748,0q.014,1.628,0,3.257a1.374,1.374,0,1,1-2.748,0C158.949,1029.951,158.954,1029.394,158.954,1028.837Z" transform="translate(-149.314 -1022.006)" fill="#568ce0"/>
      <path id="Path_496" data-name="Path 496" d="M304.956,1048.3a1.319,1.319,0,1,1,1.327-1.289A1.21,1.21,0,0,1,304.956,1048.3Z" transform="translate(-281.574 -1040.107)" fill="#568ce0"/>
    </g>
  </g>
</svg>
