<svg xmlns="http://www.w3.org/2000/svg" width="44" height="44" viewBox="0 0 44 44">
  <g id="learning_icon" transform="translate(0 3)">
    <rect id="Rectangle_101" data-name="Rectangle 101" width="44" height="44" transform="translate(0 -3)" fill="none"/>
    <g id="Group_366" data-name="Group 366" transform="translate(0 -1)">
      <path id="Path_445" data-name="Path 445" d="M13.441,135.177l-.854-.535-.112-.083-.738-.586-.271-.259A6.335,6.335,0,0,1,10,131.231v-1.719c.165-.139.152-.351.213-.531a7.856,7.856,0,0,1,2.1-3.073c.543-.525,1.149-.974,1.734-1.448l1.195-.778L18,122.238l.743-.314,2.092-.807a1.885,1.885,0,0,0,.592-.2,2.3,2.3,0,0,1,.912.1l.371.258a2.124,2.124,0,0,1,.38.7l.053.406a1.513,1.513,0,0,1-.613,1.022,8.21,8.21,0,0,1-.759.355,2.143,2.143,0,0,0-.684.226,14.865,14.865,0,0,0-2.065.812,4.067,4.067,0,0,0-.871.376A15.836,15.836,0,0,0,14.6,127.3a6.029,6.029,0,0,0-1.48,1.65,2.423,2.423,0,0,0-.361,1.678.523.523,0,0,0,.086.345,1.758,1.758,0,0,0,.486.866.636.636,0,0,0,.256.29,2.246,2.246,0,0,0,.7.578.4.4,0,0,0,.256.171,2.306,2.306,0,0,0,.76.425.6.6,0,0,0,.361.169,3.805,3.805,0,0,0,.936.389l.357.113a3.216,3.216,0,0,0,.943.273.46.46,0,0,0,.341.089,3.85,3.85,0,0,0,1.122.248.469.469,0,0,0,.344.076,4.753,4.753,0,0,0,1.116.173.947.947,0,0,0,.431.073,5.436,5.436,0,0,0,1.116.1.877.877,0,0,0,.432.056l1.112.06a.83.83,0,0,0,.434.034l1.287.017.43,0,1.288-.01.431,0a8.437,8.437,0,0,0,1.373-.078l.5-.02a8.484,8.484,0,0,0,1.393-.138l.491-.029,1.4-.168.517-.075a8.238,8.238,0,0,0,1.548-.232,1.042,1.042,0,0,0,.513-.083,7.642,7.642,0,0,0,1.548-.287l.589-.11a11.487,11.487,0,0,0,1.646-.4,1.484,1.484,0,0,0,.6-.147,2.175,2.175,0,0,1,.919.08l.371.248a2.589,2.589,0,0,1,.415.692l.03.424a1.569,1.569,0,0,1-1.391,1.36,1.766,1.766,0,0,0-.57.121l-1.664.4a1.035,1.035,0,0,0-.515.1l-1.545.275-.59.1-1.473.227a.93.93,0,0,0-.515.067,9.228,9.228,0,0,0-1.463.178l-.475.027-1.327.109-.518.044-1.287.041a1.132,1.132,0,0,0-.515.021,6.756,6.756,0,0,0-1.2.012,1.025,1.025,0,0,0-.523-.013,6.432,6.432,0,0,0-1.2-.045l-.431-.013a5.608,5.608,0,0,0-1.2-.084l-.432-.058-1.115-.109-.431-.073-1.019-.156-.428-.07-1.044-.21L18.421,137l-1.03-.259-.167-.045-1.111-.358-.356-.12-.941-.366-.263-.133-.845-.411Z" transform="translate(-10 -107.371)" fill="#8787f6"/>
      <path id="Path_446" data-name="Path 446" d="M366.551,102.145c-.168.138-.148.351-.208.531a8.956,8.956,0,0,1-3.053,4.032c-.573.47-1.207.851-1.811,1.275l-.6.186a2.248,2.248,0,0,1-.836-.19l-.369-.328a2.121,2.121,0,0,1-.284-.692q.009-.259.017-.518a1.608,1.608,0,0,1,.5-.733c.265-.189.537-.367.806-.55a8.342,8.342,0,0,0,2.4-1.964,2.177,2.177,0,0,0,.527-.961,1.765,1.765,0,0,0,.085-1.377.665.665,0,0,0-.167-.448,1.54,1.54,0,0,0-.454-.668.846.846,0,0,0-.33-.325,2.479,2.479,0,0,0-.767-.553.383.383,0,0,0-.262-.157,2.7,2.7,0,0,0-.86-.423.322.322,0,0,0-.25-.107,3.261,3.261,0,0,0-.948-.345.881.881,0,0,0-.436-.144,4.027,4.027,0,0,0-.944-.254l-.345-.086a4.244,4.244,0,0,0-1.027-.2.692.692,0,0,0-.433-.079,3.967,3.967,0,0,0-1.118-.167.728.728,0,0,0-.43-.072,4.977,4.977,0,0,0-1.115-.1.747.747,0,0,0-.432-.06,2.06,2.06,0,0,1-.94-.293l-.173-.165a2.417,2.417,0,0,1-.353-.766l.006-.43a1.589,1.589,0,0,1,1.116-1.12l.43-.007a6.1,6.1,0,0,0,1.2.108.493.493,0,0,0,.348.061l1.106.163.417.077,1.054.193a.593.593,0,0,0,.345.084l1.03.257.159.043,1.119.354.356.117.944.36a.255.255,0,0,0,.22.1l.892.433c.031.078.1.078.169.093l.84.5a.946.946,0,0,0,.368.256l.678.548.261.24a6.022,6.022,0,0,1,1.557,2.725Z" transform="translate(-322.551 -82.667)" fill="#8787f6"/>
      <path id="Path_447" data-name="Path 447" d="M151.191-35.716a13.328,13.328,0,0,1,2.063-.8l.566-.092a6.9,6.9,0,0,1,1.238-.015l.419.064.953.329a.45.45,0,0,0,.263.15l.6.437.349.338.5.612a.449.449,0,0,0,.172.256l.5.945.071.18.315.846.135.439.209.936a.909.909,0,0,0,.083.431l.126,1.131.041.416q-.011.645-.022,1.29a1.621,1.621,0,0,1-1.012,1.012A1.784,1.784,0,0,1,157.648-27l-.181-.141a2.6,2.6,0,0,1-.416-.691l-.031-.425a4.864,4.864,0,0,0-.048-1.211l-.032-.421a3.477,3.477,0,0,0-.155-1.117.479.479,0,0,0-.074-.349,2.786,2.786,0,0,0-.331-1.04.675.675,0,0,0-.19-.359,1.458,1.458,0,0,0-.528-.659.628.628,0,0,0-.346-.247,1.558,1.558,0,0,0-1.031-.267.782.782,0,0,0-.43.007,4.337,4.337,0,0,0-2.15.845,1.369,1.369,0,0,0-.189.091,18.378,18.378,0,0,0-4.462,4.551,28.15,28.15,0,0,0-2.511,3.79,5.335,5.335,0,0,0-.582,1.023,22.75,22.75,0,0,0-1.388,2.67,3.247,3.247,0,0,0-.406.857,21.175,21.175,0,0,0-1.012,2.266,3.03,3.03,0,0,0-.282.74,14.025,14.025,0,0,0-.773,2.065,2.244,2.244,0,0,0-.235.688,11.561,11.561,0,0,0-.549,1.8,1.4,1.4,0,0,0-.165.6,2.334,2.334,0,0,0-.132.351,1.447,1.447,0,0,1-1.4,1.246l-.426-.067a2.6,2.6,0,0,1-.691-.508l-.159-.284a1.989,1.989,0,0,1-.009-1.082,1.389,1.389,0,0,0,.167-.6l.563-1.816.2-.677.7-1.977a2.415,2.415,0,0,0,.261-.683l.939-2.239a2.886,2.886,0,0,0,.351-.769l1.3-2.585a5.5,5.5,0,0,0,.51-.936l2.093-3.359,1.09-1.538c.516-.625,1.023-1.257,1.551-1.872a23.066,23.066,0,0,1,4.112-3.778Z" transform="translate(-125.411 36.648)" fill="#8787f6"/>
      <path id="Path_448" data-name="Path 448" d="M89.048.621,88.6.112l-.137-.351-.207-1.024a.539.539,0,0,0-.074-.345l-.12-1.136-.048-.411q0-.645,0-1.289l.055-.517.285-1.545.213-.587A4.843,4.843,0,0,1,91.194-9.78l.664-.188,1.4-.158.43.012,1.117.159.345.082,1.029.281c.064.087.161.085.254.091l.849.339.429.208.661.317a.674.674,0,0,0,.325.179,2.315,2.315,0,0,1,.568.668l.094.34a1.421,1.421,0,0,1-1.544,1.564l-.346-.085-.758-.369a.651.651,0,0,0-.35-.181,3.151,3.151,0,0,0-.951-.42c-.06-.09-.158-.088-.249-.1a3.174,3.174,0,0,0-1.04-.309l-.432-.076A2.421,2.421,0,0,0,91.19-6.312,3.449,3.449,0,0,0,90.7-4.358l0,.432a5.408,5.408,0,0,0,.1,1.135l.067.411a4.344,4.344,0,0,0,.224,1.037A.579.579,0,0,0,91.165-1a1.828,1.828,0,0,1-.08,1.049c-.286.6-.81.835-1.7.748Z" transform="translate(-81.312 12.405)" fill="#8787f6"/>
      <path id="Path_449" data-name="Path 449" d="M260.661,100.17l-.852-.377-.167-.068L258.6,99.2a.45.45,0,0,0-.268-.137,3.641,3.641,0,0,0-.767-.449.424.424,0,0,0-.262-.157,2.828,2.828,0,0,0-.667-.435.91.91,0,0,0-.367-.245,4.071,4.071,0,0,0-.763-.545l-.268-.208-.594-.456a.91.91,0,0,0-.343-.27,2.725,2.725,0,0,0-.6-.506.942.942,0,0,0-.338-.29,2.3,2.3,0,0,1-.426-.746l-.028-.335a1.458,1.458,0,0,1,1.294-1.33l.433.031.666.364a1.116,1.116,0,0,0,.37.321,3.156,3.156,0,0,0,.674.556.574.574,0,0,0,.27.222,2.25,2.25,0,0,0,.577.448.856.856,0,0,0,.356.268,2.706,2.706,0,0,0,.692.5.865.865,0,0,0,.349.247,2.651,2.651,0,0,0,.681.441l.352.227a3.8,3.8,0,0,0,.856.465.422.422,0,0,0,.261.147,3.25,3.25,0,0,0,.852.379.621.621,0,0,0,.35.143,2.744,2.744,0,0,0,.942.278.652.652,0,0,0,.432.087,2.65,2.65,0,0,0,1.2.038,2.4,2.4,0,0,0,2.069-2.024,3.419,3.419,0,0,0,.169-1.462l-.01-.43a4.471,4.471,0,0,0-.108-1.139l-.075-.408a4.527,4.527,0,0,0-.242-1.03.536.536,0,0,0-.092-.344,3.537,3.537,0,0,0-.328-1.033.29.29,0,0,0-.091-.256,4.216,4.216,0,0,0-.4-1.114l-.068-.188-.356-.859a1.041,1.041,0,0,0-.2-.421,3.2,3.2,0,0,0-.354-.768.621.621,0,0,0-.167-.343,4.964,4.964,0,0,0-.486-.942c-.018-.069-.017-.147-.1-.182a3.866,3.866,0,0,0-.505-.922.6.6,0,0,0-.182-.315,2.58,2.58,0,0,0-.368-.647.861.861,0,0,0-.235-.374,4.076,4.076,0,0,0-.5-.815.547.547,0,0,0-.187-.3,2.476,2.476,0,0,0-.439-.664.854.854,0,0,0-.248-.366,2.882,2.882,0,0,0-.445-.662.8.8,0,0,0-.25-.35l-.434-.6a.878.878,0,0,0-.254-.347,2.992,2.992,0,0,0-.511-.687.864.864,0,0,0-.262-.344l-.453-.6a.553.553,0,0,0-.216-.267,3.725,3.725,0,0,0-.553-.679,1.129,1.129,0,0,0-.315-.372,2.2,2.2,0,0,0-.5-.585.869.869,0,0,0-.285-.325l-.581-.652a.373.373,0,0,0-.193-.206,3.255,3.255,0,0,0-.59-.614.658.658,0,0,0-.258-.269l-.514-.676a.34.34,0,0,0-.08-.258,1.426,1.426,0,0,1,1.618-1.643l.344.1.617.51a.616.616,0,0,0,.246.256,3.291,3.291,0,0,0,.588.613.679.679,0,0,0,.259.271,2.739,2.739,0,0,0,.518.586.6.6,0,0,0,.24.265,4.005,4.005,0,0,0,.6.69.849.849,0,0,0,.28.34,2.756,2.756,0,0,0,.5.6.868.868,0,0,0,.276.338l.454.6a.574.574,0,0,0,.215.267,3.32,3.32,0,0,0,.522.685.847.847,0,0,0,.262.355l.494.684a.447.447,0,0,0,.183.252l.529.768a.856.856,0,0,0,.25.371,2.95,2.95,0,0,0,.431.663.421.421,0,0,0,.168.259l.464.767.229.362a3.248,3.248,0,0,0,.44.755.426.426,0,0,0,.149.266,5.439,5.439,0,0,0,.51.932c.018.069.019.147.1.182a4.02,4.02,0,0,0,.438.857.645.645,0,0,0,.172.351,3.441,3.441,0,0,0,.357.764.647.647,0,0,0,.162.345l.361.858a.7.7,0,0,0,.154.345,3.748,3.748,0,0,0,.337.862l.115.341.33.944a1.019,1.019,0,0,0,.151.459l.233.845.1.336.227,1.048.083.417.159,1.019a.743.743,0,0,0,.065.43l.044,1.2q0,.26-.007.519l-.144,1.376-.137.6c-.121.3-.227.612-.366.906a4.429,4.429,0,0,1-2.992,2.459l-.56.09-1.237.042a.869.869,0,0,0-.438-.048l-1.114-.192a.489.489,0,0,0-.34-.091l-.828-.259A1.037,1.037,0,0,0,260.661,100.17Z" transform="translate(-232.039 -61.541)" fill="#8787f6"/>
      <path id="Path_450" data-name="Path 450" d="M127.525,340.2l-1.2-.071a.5.5,0,0,0-.345-.087l-.852-.359-.26-.161-.611-.5-.335-.356-.436-.59a.441.441,0,0,0-.165-.26l-.492-1.019-.069-.2-.312-.932a.642.642,0,0,0-.09-.345l-.209-1.045-.059-.417-.127-1.125-.028-.421.024-1.29a1.621,1.621,0,0,1,1.012-1.012,2.147,2.147,0,0,1,.919.079l.37.249a2.6,2.6,0,0,1,.416.691l.031.424a5.806,5.806,0,0,0,.035,1.216.8.8,0,0,0,.038.416,4.473,4.473,0,0,0,.106,1.116l.082.432a3.34,3.34,0,0,0,.253.944.567.567,0,0,0,.149.347,1.838,1.838,0,0,0,.526.856.337.337,0,0,0,.2.2,1.444,1.444,0,0,0,.859.435.976.976,0,0,0,.576.056,3.478,3.478,0,0,0,1.987-.661,6.674,6.674,0,0,0,1.531-1.1c.3-.26.618-.5.891-.784a1.67,1.67,0,0,1,1.607-.546l.344.17a2.741,2.741,0,0,1,.515.6.362.362,0,0,0,.088.258,1.748,1.748,0,0,1-.689,1.569,18.46,18.46,0,0,1-3.18,2.3l-.838.367a12.362,12.362,0,0,1-1.74.5A1.128,1.128,0,0,0,127.525,340.2Z" transform="translate(-112.312 -298.48)" fill="#8787f6"/>
      <circle id="Ellipse_9" data-name="Ellipse 9" cx="5.133" cy="5.133" r="5.133" transform="translate(16.867 15.4)" fill="#aba9f8"/>
    </g>
  </g>
</svg>
