<svg xmlns="http://www.w3.org/2000/svg" width="30" height="30" viewBox="0 0 30 30">
  <g id="learningtools_icon" transform="translate(-637.343 -886.164)">
    <rect id="Rectangle_109" data-name="Rectangle 109" width="30" height="30" transform="translate(637.343 886.164)" fill="none"/>
    <g id="Group_251" data-name="Group 251" transform="translate(637.343 890.164)">
      <path id="Path_417" data-name="Path 417" d="M691.453,909.768c-.736-.207-1.444-.425-2.162-.6a5.507,5.507,0,0,0-1.245-.173c-2.44-.016-4.88-.008-7.321-.008h-.414V891.266a2.634,2.634,0,0,1,.267-.026c2.11,0,4.22-.015,6.33.005a4.521,4.521,0,0,1,4.449,3.718,4.89,4.89,0,0,1,.093.96q.008,6.79,0,13.581Z" transform="translate(-677.271 -891.229)" fill="#00d5e6"/>
      <path id="Path_418" data-name="Path 418" d="M870.941,891.2v17.571h-.419c-2.451,0-4.9-.014-7.354.012a6.411,6.411,0,0,0-1.4.26c-.607.146-1.207.323-1.847.5v-.4c0-4.31.008-8.621-.011-12.932a5.92,5.92,0,0,1-.033-1.48,4.423,4.423,0,0,1,4.356-3.544c2.168-.041,4.337-.009,6.5-.008A1.831,1.831,0,0,1,870.941,891.2Z" transform="translate(-844.095 -891.164)" fill="#00d5e6"/>
      <path id="Path_419" data-name="Path 419" d="M859.126,955.148c-.1-1.7.625-2.6,2.417-2.837a28.1,28.1,0,0,1,3.314-.162c1.992-.023,3.985-.006,5.977-.006.727,0,.951-.226.951-.961q0-7.185,0-14.371v-.406h1.643V953.98h-.643c-2.995,0-5.989,0-8.983.02A8.821,8.821,0,0,0,859.126,955.148Z" transform="translate(-843.427 -933.162)" fill="#aaf4f6"/>
      <path id="Path_420" data-name="Path 420" d="M637.343,936.246H639v.455q0,7.2,0,14.4c0,.787.257,1.042,1.039,1.042q3.624,0,7.247,0a8.519,8.519,0,0,1,2.79.37,2.169,2.169,0,0,1,1.558,2.5,6.63,6.63,0,0,0-3.087-1.043c-.889-.091-1.786-.129-2.68-.135-2.7-.017-5.4-.006-8.1-.006h-.428Z" transform="translate(-637.343 -933.014)" fill="#aaf4f6"/>
    </g>
  </g>
</svg>
