<svg xmlns="http://www.w3.org/2000/svg" width="221.127" height="242.799" viewBox="0 0 221.127 242.799">
    <defs>
        <style>
            .cls-1{fill:#efa251}.cls-2{fill:#fcf2e4}.cls-3{fill:#fff}
        </style>
    </defs>
    <g id="Group_235" data-name="Group 235" transform="translate(-30.876 -35.087)">
        <path id="Path_44" d="M1430.4 688.442h-18.64l-9.318 16.14 9.318 16.14h18.64l9.318-16.14z" class="cls-1" data-name="Path 44" transform="translate(-1248.762 -600.725)"/>
        <path id="Path_52" d="M1474.4 713.442h-18.64l-9.318 16.14 9.318 16.14h18.64l9.318-16.14z" class="cls-1" data-name="Path 52" transform="translate(-1261.886 -608.182)"/>
        <path id="Path_53" d="M1474.4 813.442h-18.64l-9.318 16.14 9.318 16.14h18.64l9.318-16.14z" class="cls-2" data-name="Path 53" transform="translate(-1261.886 -638.009)"/>
        <path id="Path_81" d="M1299.4 713.442h-18.64l-9.318 16.14 9.318 16.14h18.64l9.318-16.14z" class="cls-1" data-name="Path 81" transform="translate(-1209.689 -608.182)"/>
        <path id="Path_82" d="M1299.4 813.442h-18.64l-9.318 16.14 9.318 16.14h18.64l9.318-16.14z" class="cls-2" data-name="Path 82" transform="translate(-1209.689 -638.009)"/>
        <path id="Path_88" d="M1342.4 688.442h-18.64l-9.318 16.14 9.318 16.14h18.64l9.318-16.14z" class="cls-1" data-name="Path 88" transform="translate(-1222.515 -600.725)"/>
        <path id="Path_95" d="M1386.4 663.442h-18.64l-9.318 16.14 9.318 16.14h18.64l9.318-16.14z" class="cls-2" data-name="Path 95" transform="translate(-1235.638 -593.269)"/>
        <path id="Path_100" d="M1386.4 863.442h-18.64l-9.318 16.14 9.318 16.14h18.64l9.318-16.14z" class="cls-1" data-name="Path 100" transform="translate(-1235.638 -652.922)"/>
        <path id="Path_46" d="M1430.4 738.442h-18.64l-9.318 16.14 9.318 16.14h18.64l9.318-16.14z" class="cls-1" data-name="Path 46" transform="translate(-1248.762 -615.639)"/>
        <path id="Path_47" d="M1430.4 838.442h-18.64l-9.318 16.14 9.318 16.14h18.64l9.318-16.14z" class="cls-1" data-name="Path 47" transform="translate(-1248.762 -645.466)"/>
        <path id="Path_54" d="M1474.4 763.442h-18.64l-9.318 16.14 9.318 16.14h18.64l9.318-16.14z" class="cls-1" data-name="Path 54" transform="translate(-1261.886 -623.095)"/>
        <path id="Path_83" d="M1299.4 763.442h-18.64l-9.318 16.14 9.318 16.14h18.64l9.318-16.14z" class="cls-1" data-name="Path 83" transform="translate(-1209.689 -623.095)"/>
        <path id="Path_90" d="M1342.4 738.442h-18.64l-9.318 16.14 9.318 16.14h18.64l9.318-16.14z" class="cls-1" data-name="Path 90" transform="translate(-1222.515 -615.639)"/>
        <path id="Path_91" d="M1342.4 838.442h-18.64l-9.318 16.14 9.318 16.14h18.64l9.318-16.14z" class="cls-1" data-name="Path 91" transform="translate(-1222.515 -645.466)"/>
        <path id="Path_98" d="M1386.4 813.442h-18.64l-9.318 16.14 9.318 16.14h18.64l9.318-16.14z" class="cls-1" data-name="Path 98" transform="translate(-1235.638 -638.009)"/>
        <g id="Group_13" data-name="Group 13" transform="translate(91.927 105.26)">
            <path id="Path_45" d="M1430.4 788.442h-18.64l-9.318 16.14 9.318 16.14h18.64l9.318-16.14z" class="cls-2" data-name="Path 45" transform="translate(-1340.689 -735.812)"/>
            <path id="Path_89" d="M1342.4 788.442h-18.64l-9.318 16.14 9.318 16.14h18.64l9.318-16.14z" class="cls-2" data-name="Path 89" transform="translate(-1314.442 -735.812)"/>
            <path id="Path_99" d="M1386.4 763.442h-18.64l-9.318 16.14 9.318 16.14h18.64l9.318-16.14z" class="cls-3" data-name="Path 99" transform="translate(-1327.565 -728.355)"/>
            <path id="Path_97" d="M1386.4 713.442h-18.64l-9.318 16.14 9.318 16.14h18.64l9.318-16.14z" class="cls-2" data-name="Path 97" transform="translate(-1327.565 -713.442)"/>
        </g>
        <g id="Group_147" data-name="Group 147" transform="translate(30.876 35.087)">
            <path id="Path_49" d="M1430.4 888.442h-18.64l-9.318 16.14 9.318 16.14h18.64l9.318-16.14z" class="cls-1" data-name="Path 49" transform="translate(-1279.639 -695.466)"/>
            <path id="Path_55" d="M1474.4 863.442h-18.64l-9.318 16.14 9.318 16.14h18.64l9.318-16.14z" class="cls-2" data-name="Path 55" transform="translate(-1292.762 -688.009)"/>
            <path id="Path_59" d="M1517.4 788.442h-18.64l-9.318 16.14 9.318 16.14h18.64l9.318-16.14z" class="cls-2" data-name="Path 59" transform="translate(-1305.588 -665.639)"/>
            <path id="Path_60" d="M1517.4 738.442h-18.64l-9.318 16.14 9.318 16.14h18.64l9.318-16.14z" class="cls-1" data-name="Path 60" transform="translate(-1305.588 -650.725)"/>
            <path id="Path_61" d="M1517.4 838.442h-18.64l-9.318 16.14 9.318 16.14h18.64l9.318-16.14z" class="cls-2" data-name="Path 61" transform="translate(-1305.588 -680.552)"/>
            <path id="Path_75" d="M1255.4 788.442h-18.64l-9.318 16.14 9.318 16.14h18.64l9.318-16.14z" class="cls-2" data-name="Path 75" transform="translate(-1227.442 -665.639)"/>
            <path id="Path_76" d="M1255.4 738.442h-18.64l-9.318 16.14 9.318 16.14h18.64l9.318-16.14z" class="cls-1" data-name="Path 76" transform="translate(-1227.442 -650.725)"/>
            <path id="Path_77" d="M1255.4 838.442h-18.64l-9.318 16.14 9.318 16.14h18.64l9.318-16.14z" class="cls-2" data-name="Path 77" transform="translate(-1227.442 -680.552)"/>
            <path id="Path_84" d="M1299.4 863.442h-18.64l-9.318 16.14 9.318 16.14h18.64l9.318-16.14z" class="cls-2" data-name="Path 84" transform="translate(-1240.566 -688.009)"/>
            <path id="Path_93" d="M1342.4 888.442h-18.64l-9.318 16.14 9.318 16.14h18.64l9.318-16.14z" class="cls-1" data-name="Path 93" transform="translate(-1253.391 -695.466)"/>
            <path id="Path_42" d="M1430.4 638.442h-18.64l-9.318 16.14 9.318 16.14h18.64l9.318-16.14z" class="cls-2" data-name="Path 42" transform="translate(-1279.639 -620.898)"/>
            <path id="Path_50" d="M1474.4 663.442h-18.64l-9.318 16.14 9.318 16.14h18.64l9.318-16.14z" class="cls-1" data-name="Path 50" transform="translate(-1292.762 -628.355)"/>
            <path id="Path_58" d="M1517.4 688.442h-18.64l-9.318 16.14 9.318 16.14h18.64l9.318-16.14z" class="cls-1" data-name="Path 58" transform="translate(-1305.588 -635.812)"/>
            <path id="Path_74" d="M1255.4 688.442h-18.64l-9.318 16.14 9.318 16.14h18.64l9.318-16.14z" class="cls-1" data-name="Path 74" transform="translate(-1227.442 -635.812)"/>
            <path id="Path_79" d="M1299.4 663.442h-18.64l-9.318 16.14 9.318 16.14h18.64l9.318-16.14z" class="cls-1" data-name="Path 79" transform="translate(-1240.566 -628.355)"/>
            <path id="Path_86" d="M1342.4 638.442h-18.64l-9.318 16.14 9.318 16.14h18.64l9.318-16.14z" class="cls-2" data-name="Path 86" transform="translate(-1253.391 -620.898)"/>
            <path id="Path_96" d="M1386.4 613.442h-18.64l-9.318 16.14 9.318 16.14h18.64l9.318-16.14z" class="cls-2" data-name="Path 96" transform="translate(-1266.515 -613.442)"/>
            <path id="Path_102" d="M1386.4 913.442h-18.64l-9.318 16.14 9.318 16.14h18.64l9.318-16.14z" class="cls-1" data-name="Path 102" transform="translate(-1266.515 -702.922)"/>
        </g>
    </g>
</svg>
