<svg xmlns="http://www.w3.org/2000/svg" width="528" height="478" viewBox="0 0 528 478">
    <defs>
        <style>
            .cls-1,.cls-13{fill:#fff}.cls-2{fill:#f8fbfd}.cls-3,.cls-4{fill:none}.cls-3{stroke:#e6f3fd}.cls-4{stroke:#64deb4}.cls-5{fill:#00d5e6}.cls-6{fill:#00cc84}.cls-7{fill:#aaf4f6}.cls-8{fill:#ebebfe}.cls-9{fill:#e6f3fd}.cls-10{fill:#fcf2e4}.cls-11{fill:#00c4d2}.cls-11,.cls-12,.cls-13,.cls-14,.cls-15{font-size:14px;font-family:Raleway-SemiBold,Raleway;font-weight:600;letter-spacing:.03em}.cls-12{fill:#6e69f2}.cls-14{fill:#568ce0}.cls-15{fill:#ed933e}.cls-16{fill:#f8f8f8}.cls-17{filter:url(#Rectangle_12)}
        </style>
        <filter id="Rectangle_12" width="528" height="478" x="0" y="0" filterUnits="userSpaceOnUse">
            <feOffset dy="10"/>
            <feGaussianBlur result="blur" stdDeviation="10"/>
            <feFlood flood-color="#777" flood-opacity=".102"/>
            <feComposite in2="blur" operator="in"/>
            <feComposite in="SourceGraphic"/>
        </filter>
    </defs>
    <g id="Group_242" data-name="Group 242" transform="translate(-822.795 -2532)">
        <g class="cls-17" transform="translate(822.79 2532)">
            <rect id="Rectangle_12-2" width="468" height="418" class="cls-1" data-name="Rectangle 12" rx="12" transform="translate(30 20)"/>
        </g>
        <g id="Group_322" data-name="Group 322" transform="translate(0 100)">
            <path id="Rectangle_59" d="M0 0h468v44H0z" class="cls-2" data-name="Rectangle 59" transform="translate(852.795 2624)"/>
            <path id="Rectangle_60" d="M0 0h468v44H0z" class="cls-2" data-name="Rectangle 60" transform="translate(852.795 2710)"/>
            <path id="Rectangle_61" d="M0 0h468v44H0z" class="cls-2" data-name="Rectangle 61" transform="translate(852.795 2796)"/>
            <path id="Line_11" d="M0 0v213" class="cls-3" data-name="Line 11" transform="translate(1087.295 2627.5)"/>
            <path id="Line_17" d="M0 0v213" class="cls-3" data-name="Line 17" transform="translate(1155.295 2627.5)"/>
            <path id="Line_15" d="M0 0v213" class="cls-3" data-name="Line 15" transform="translate(1223.295 2627.5)"/>
            <path id="Line_16" d="M0 0v213" class="cls-3" data-name="Line 16" transform="translate(1291.295 2627.5)"/>
            <path id="Line_12" d="M0 0v213" class="cls-3" data-name="Line 12" transform="translate(1019.295 2627.5)"/>
            <path id="Line_13" d="M0 0v213" class="cls-3" data-name="Line 13" transform="translate(883.295 2627.5)"/>
            <path id="Line_14" d="M0 0v213" class="cls-3" data-name="Line 14" transform="translate(951.295 2627.5)"/>
        </g>
        <path id="Line_10" d="M0 0v213" class="cls-4" data-name="Line 10" transform="translate(1245.295 2727.5)"/>
        <circle id="Ellipse_13" cx="4.5" cy="4.5" r="4.5" class="cls-5" data-name="Ellipse 13" transform="translate(1240.795 2723)"/>
        <g id="Group_321" data-name="Group 321" transform="translate(0 100)">
            <rect id="Rectangle_58" width="58" height="26" class="cls-6" data-name="Rectangle 58" rx="13" transform="translate(1245.795 2805)"/>
            <rect id="Rectangle_41" width="200" height="26" class="cls-7" data-name="Rectangle 41" rx="13" transform="translate(883.795 2633)"/>
            <rect id="Rectangle_56" width="232" height="26" class="cls-8" data-name="Rectangle 56" rx="13" transform="translate(988.795 2719)"/>
            <rect id="Rectangle_55" width="98" height="26" class="cls-9" data-name="Rectangle 55" rx="13" transform="translate(952.795 2676)"/>
            <rect id="Rectangle_57" width="122" height="26" class="cls-10" data-name="Rectangle 57" rx="13" transform="translate(1122.795 2762)"/>
            <text id="Decision_Onboarding" class="cls-11" data-name="Decision &amp; Onboarding" transform="translate(983.795 2651)">
                <tspan x="-80.045" y="0">Decision &amp; Onboarding</tspan>
            </text>
            <text id="Infrastructure_Management" class="cls-12" data-name="Infrastructure Management" transform="translate(1104.795 2737)">
                <tspan x="-96.159" y="0">Infrastructure Management</tspan>
            </text>
            <text id="Live" class="cls-13" transform="translate(1274.795 2823)">
                <tspan x="-14.252" y="0">Live</tspan>
            </text>
            <text id="Security" class="cls-14" transform="translate(1001.795 2694)">
                <tspan x="-28.798" y="0">Security</tspan>
            </text>
            <text id="Distribution" class="cls-15" transform="translate(1183.795 2780)">
                <tspan x="-40.684" y="0">Distribution</tspan>
            </text>
        </g>
        <path id="Path_542" d="M12 0h444c6.627 0 12 5.828 12 13.017V64H0V13.017C0 5.828 5.373 0 12 0z" class="cls-16" data-name="Path 542" transform="translate(852.795 2552)"/>
    </g>
</svg>
