<svg xmlns="http://www.w3.org/2000/svg" width="70" height="70" viewBox="0 0 70 70">
    <defs>
        <style>
            .cls-1{fill:#ed933e}.cls-2{fill:#f9ddbb}
        </style>
    </defs>
    <g id="gtEfq2.tif" transform="translate(1162.004 -484.996)">
        <g id="Group_295" data-name="Group 295" transform="translate(-1162.004 484.996)">
            <path id="Path_442" d="M-1092 520.052c0 18.98-16.04 34.956-35.077 34.944-18.977-.011-34.932-16.045-34.923-35.094.009-18.962 16.069-34.929 35.112-34.906 18.934.022 34.888 16.053 34.888 35.056zm-4.67-.033a29.933 29.933 0 0 0-30.178-30.356 29.937 29.937 0 0 0-30.484 30.345 29.936 29.936 0 0 0 29.926 30.318c17.406.043 30.706-13.066 30.732-30.307z" class="cls-1" data-name="Path 442" transform="translate(1162.004 -484.996)"/>
            <path id="Path_443" d="M-1035.366 567.689a2.556 2.556 0 0 1-.81 1.807c-2.812 2.994-5.6 6.007-8.427 8.988a1.515 1.515 0 0 0-.434 1.546c.884 4.2 1.7 8.414 2.573 12.617a2.367 2.367 0 0 1-.793 2.55 2.356 2.356 0 0 1-2.728.15c-4.024-2.028-8.062-4.029-12.082-6.065a1.231 1.231 0 0 0-1.264 0c-3.977 2.013-7.975 3.986-11.952 6a2.452 2.452 0 0 1-2.8-.039 2.439 2.439 0 0 1-.849-2.666c.829-4.361 1.6-8.732 2.426-13.094a.959.959 0 0 0-.281-.959c-2.8-2.976-5.57-5.97-8.367-8.944a2.439 2.439 0 0 1-.766-2.567 2.449 2.449 0 0 1 2.165-1.673c4.063-.7 8.118-1.456 12.179-2.173a1.068 1.068 0 0 0 .829-.7c1.945-3.983 3.907-7.958 5.855-11.941a2.332 2.332 0 0 1 2.219-1.485 2.362 2.362 0 0 1 2.194 1.522q2.9 6.02 5.793 12.043a1.183 1.183 0 0 0 1 .772c4.075.638 8.143 1.323 12.213 1.992a2.356 2.356 0 0 1 2.107 2.319zm-12.652 21.281c-.032-.233-.053-.47-.1-.7-.6-2.969-1.186-5.944-1.831-8.9a2.89 2.89 0 0 1 .8-2.849c2-2.085 3.957-4.214 5.931-6.326.244-.261.484-.527.771-.841-.245-.069-.4-.13-.562-.156-2.991-.493-5.979-1.006-8.976-1.461a2.7 2.7 0 0 1-2.208-1.65c-1.348-2.847-2.729-5.679-4.108-8.511-.121-.248-.159-.566-.474-.722-.084.156-.167.3-.241.451-1.412 2.871-2.828 5.739-4.229 8.615a2.519 2.519 0 0 1-1.964 1.544c-1.006.156-2 .36-3.007.541l-6.841 1.24c.305.338.522.585.747.825 1.988 2.131 3.968 4.271 5.971 6.387a2.54 2.54 0 0 1 .71 2.334c-.35 1.908-.713 3.813-1.067 5.721-.281 1.519-.557 3.039-.852 4.654.343-.163.583-.272.819-.39 2.927-1.462 5.859-2.915 8.776-4.4a2.67 2.67 0 0 1 2.573.015q4.347 2.2 8.7 4.377a.945.945 0 0 0 .662.202z" class="cls-1" data-name="Path 443" transform="translate(1093.7 -539.704)"/>
            <path id="Path_444" d="M-1007.1 634.685a.945.945 0 0 1-.658-.2q-4.353-2.183-8.7-4.377a2.67 2.67 0 0 0-2.573-.015c-2.918 1.48-5.85 2.933-8.777 4.4-.235.118-.475.227-.819.39.3-1.615.57-3.135.852-4.654.354-1.907.717-3.813 1.067-5.721a2.54 2.54 0 0 0-.71-2.334c-2-2.117-3.984-4.256-5.972-6.387-.224-.24-.441-.487-.746-.825l6.841-1.24c1-.182 2-.385 3.006-.542a2.519 2.519 0 0 0 1.964-1.544c1.4-2.876 2.817-5.744 4.229-8.615.074-.149.157-.294.241-.451.315.156.354.474.474.722 1.38 2.832 2.76 5.664 4.108 8.511a2.7 2.7 0 0 0 2.208 1.65c3 .455 5.985.967 8.976 1.461.161.027.317.087.562.156-.288.314-.527.579-.771.841-1.973 2.112-3.929 4.241-5.931 6.326a2.89 2.89 0 0 0-.8 2.849c.645 2.961 1.227 5.935 1.831 8.9.044.229.064.466.098.699z" class="cls-2" data-name="Path 444" transform="translate(1052.784 -585.419)"/>
        </g>
    </g>
</svg>
