<svg xmlns="http://www.w3.org/2000/svg" width="70" height="70.001" viewBox="0 0 70 70.001">
    <defs>
        <style>
            .cls-1{fill:#ed933e}.cls-2{fill:#f9ddbb}
        </style>
    </defs>
    <g id="mIZx71.tif" transform="translate(663 -744)">
        <g id="Group_293" data-name="Group 293" transform="translate(-663 744)">
            <path id="Path_432" d="M-663 921.346a3 3 0 0 1 3.216-1.571c1.145.08 2.3.008 3.449.02a2.253 2.253 0 0 1 2.365 2.258 2.261 2.261 0 0 1-2.365 2.255c-1.15.007-2.305-.066-3.449.019a2.988 2.988 0 0 1-3.216-1.57z" class="cls-1" data-name="Path 432" transform="translate(663 -894.962)"/>
            <path id="Path_433" d="M-484.332 744a2.67 2.67 0 0 1 1.71 2.941c-.077 1.239-.01 2.486-.018 3.729a2.26 2.26 0 0 1-2.258 2.36 2.252 2.252 0 0 1-2.255-2.365c-.012-1.243.058-2.491-.017-3.729a2.67 2.67 0 0 1 1.709-2.936z" class="cls-1" data-name="Path 433" transform="translate(511.986 -744)"/>
            <path id="Path_434" d="M-457.595 938.492q6.66 1.5 13.319 2.99c3.846.859 7.7 1.7 11.539 2.568a4.8 4.8 0 0 1 3.581 3.687 4.74 4.74 0 0 1-2.208 4.584c-2.165 1.489-4.359 2.937-6.548 4.407.083.287.31.419.481.59q4.284 4.294 8.576 8.582a2.293 2.293 0 0 1-.018 3.671q-4.263 4.266-8.529 8.529c-1.251 1.249-2.453 1.24-3.721-.027q-4.241-4.239-8.474-8.484a4.281 4.281 0 0 1-.464-.737c-1.612 2.445-3.069 4.66-4.531 6.872a4.794 4.794 0 0 1-4.808 2.122 4.621 4.621 0 0 1-3.578-3.67q-2.725-12.334-5.475-24.662c-.01-.046-.027-.09-.041-.135l-2.268-10.364a2.291 2.291 0 0 1 2.95-2.792c3.399.787 6.812 1.516 10.217 2.269zm23.853 9.969l-31.881-7.106 7.085 31.983a1.285 1.285 0 0 0 .487-.574q2.7-4.083 5.386-8.173c1.135-1.723 2.633-1.845 4.077-.386 2.977 3.009 5.983 5.989 8.959 9 .32.323.474.284.769-.016 1.648-1.677 3.3-3.349 4.992-4.983.419-.406.348-.605-.023-.973q-4.461-4.417-8.889-8.869c-1.485-1.484-1.344-2.883.412-4.069q2.714-1.833 5.431-3.662c1.028-.697 2.052-1.396 3.195-2.172z" class="cls-1" data-name="Path 434" transform="translate(497.945 -909.03)"/>
            <path id="Path_435" d="M-526.628 869.627c-3.406-.753-6.818-1.482-10.216-2.269a2.291 2.291 0 0 0-2.95 2.792l2.268 10.364a10.452 10.452 0 0 1-2.34.285 2.361 2.361 0 0 0-2.236-2.524 11.064 11.064 0 0 1-8.85-13.419c1.279-6.377 7.161-9.835 13.359-8.67a10.755 10.755 0 0 1 8.716 8.785c.325 1.621.968 2.206 2.533 2.306a10.835 10.835 0 0 1-.284 2.35z" class="cls-2" data-name="Path 435" transform="translate(566.978 -840.164)"/>
            <path id="Path_436" d="M-553.492 839.769c-1.566-.1-2.208-.685-2.533-2.306a10.755 10.755 0 0 0-8.716-8.785c-6.2-1.165-12.079 2.293-13.359 8.67a11.064 11.064 0 0 0 8.85 13.419 2.361 2.361 0 0 1 2.236 2.524c-.5 1.764-1.445 2.284-3.372 1.849-7.264-1.638-12.778-8.562-12.408-15.976.313-6.287 3.638-10.816 9.166-13.629 6.821-3.472 15-1.124 19.56 5.441a15.652 15.652 0 0 1 2.479 5.626 2.337 2.337 0 0 1-1.903 3.167z" class="cls-1" data-name="Path 436" transform="translate(594.126 -812.657)"/>
            <path id="Path_437" d="M-604.232 800.531a2.209 2.209 0 0 1-1.289 2.007 2.062 2.062 0 0 1-2.426-.316q-1.774-1.656-3.432-3.435a2.184 2.184 0 0 1 .138-3.051 2.19 2.19 0 0 1 3.055-.081c1.161 1.093 2.273 2.239 3.391 3.378a2.21 2.21 0 0 1 .563 1.498z" class="cls-1" data-name="Path 437" transform="translate(619.141 -787.868)"/>
            <path id="Path_438" d="M-376.948 797.323a2.47 2.47 0 0 1-.72 1.659c-1.034 1.025-2.05 2.067-3.091 3.084a2.238 2.238 0 0 1-3.208.047 2.229 2.229 0 0 1 0-3.214 116.76 116.76 0 0 1 3.19-3.183 2.111 2.111 0 0 1 2.47-.423 2.265 2.265 0 0 1 1.359 2.03z" class="cls-1" data-name="Path 438" transform="translate(423.924 -787.865)"/>
            <path id="Path_439" d="M-609.716 1030.029a2.271 2.271 0 0 1-2.011-1.272 2.04 2.04 0 0 1 .281-2.427q1.675-1.806 3.485-3.485a2.2 2.2 0 0 1 3 .141 2.2 2.2 0 0 1 .168 2.992c-1.127 1.225-2.333 2.38-3.528 3.543a2.158 2.158 0 0 1-1.395.508z" class="cls-1" data-name="Path 439" transform="translate(619.195 -983.052)"/>
        </g>
    </g>
</svg>
