<svg xmlns="http://www.w3.org/2000/svg" width="30" height="30" viewBox="0 0 30 30">
  <g id="phone_icon" transform="translate(-819 -1000)">
    <rect id="Rectangle_112" data-name="Rectangle 112" width="30" height="30" transform="translate(819 1000)" fill="none"/>
    <g id="_27-Phone" data-name="27-Phone" transform="translate(547.311 291.65)">
      <path id="Path_569" data-name="Path 569" d="M298.429,729.57l-3.775-2.637a2.911,2.911,0,0,0-4.057.722l-.876,1.256a35.173,35.173,0,0,1-8.591-8.592l1.255-.876a2.91,2.91,0,0,0,.721-4.058l-2.637-3.775a2.917,2.917,0,0,0-2.38-1.26,2.731,2.731,0,0,0-.948.17,5.223,5.223,0,0,0-.982.482l-.521.367a3.93,3.93,0,0,0-.367.328,5.235,5.235,0,0,0-1.342,2.392c-1.087,4.073,1.605,10.232,6.7,15.325,4.277,4.277,9.415,6.933,13.408,6.934h0a7.441,7.441,0,0,0,1.917-.237,5.235,5.235,0,0,0,2.392-1.342,3.946,3.946,0,0,0,.344-.39l.368-.524a5.263,5.263,0,0,0,.465-.956A2.868,2.868,0,0,0,298.429,729.57Z"/>
    </g>
  </g>
</svg>
