<svg xmlns="http://www.w3.org/2000/svg" width="798" height="400" viewBox="0 0 798 400">
  <g id="products-tab-resource" transform="translate(1737 -1937)">
    <g id="Group_287" data-name="Group 287" transform="translate(-1918 -2715)">
      <rect id="Rectangle_27" data-name="Rectangle 27" width="105" height="41" rx="20.5" transform="translate(576 4958)" fill="#fff" opacity="0.897"/>
      <rect id="Rectangle_70" data-name="Rectangle 70" width="133" height="41" rx="20.5" transform="matrix(1, 0.017, -0.017, 1, 796.366, 4957.087)" fill="#fff" opacity="0.897"/>
      <rect id="Rectangle_43" data-name="Rectangle 43" width="142" height="41" rx="20.5" transform="translate(576 4893)" fill="#fff" opacity="0.897"/>
      <rect id="Rectangle_69" data-name="Rectangle 69" width="91" height="41" rx="20.5" transform="translate(796 4893)" fill="#fff" opacity="0.897"/>
      <rect id="Rectangle_28" data-name="Rectangle 28" width="161" height="41" rx="20.5" transform="translate(576 4698)" fill="#fff" opacity="0.897"/>
      <rect id="Rectangle_66" data-name="Rectangle 66" width="168" height="41" rx="20.5" transform="translate(796 4698)" fill="#fff" opacity="0.897"/>
      <rect id="Rectangle_41" data-name="Rectangle 41" width="154" height="41" rx="20.5" transform="translate(576 4828)" fill="#fff" opacity="0.897"/>
      <rect id="Rectangle_68" data-name="Rectangle 68" width="120" height="41" rx="20.5" transform="translate(796 4828)" fill="#fff" opacity="0.897"/>
      <rect id="Rectangle_29" data-name="Rectangle 29" width="190" height="41" rx="20.5" transform="translate(576 4763)" fill="#fff" opacity="0.897"/>
      <rect id="Rectangle_67" data-name="Rectangle 67" width="183" height="41" rx="20.5" transform="translate(796 4763)" fill="#fff" opacity="0.897"/>
      <text id="Single_Sign-In" data-name="Single Sign-In" transform="translate(598 4918)" fill="#568ce0" font-size="14" font-family="Raleway-Medium, Raleway" font-weight="500" letter-spacing="0.03em"><tspan x="0" y="0">Single Sign-In</tspan></text>
      <text id="AI_Tutor" data-name="AI Tutor" transform="translate(818 4918)" fill="#568ce0" font-size="14" font-family="Raleway-Medium, Raleway" font-weight="500" letter-spacing="0.03em"><tspan x="0" y="0">AI Tutor</tspan></text>
      <text id="Tablet_Management" data-name="Tablet Management" transform="translate(598 4788)" fill="#568ce0" font-size="14" font-family="Raleway-Medium, Raleway" font-weight="500" letter-spacing="0.03em"><tspan x="0" y="0">Tablet Management</tspan></text>
      <text id="Lecture_Annotation" data-name="Lecture Annotation" transform="translate(818 4788)" fill="#568ce0" font-size="14" font-family="Raleway-Medium, Raleway" font-weight="500" letter-spacing="0.03em"><tspan x="0" y="0">Lecture Annotation</tspan></text>
      <text id="Homework_Tool" data-name="Homework Tool" transform="translate(598 4853)" fill="#568ce0" font-size="14" font-family="Raleway-Medium, Raleway" font-weight="500" letter-spacing="0.03em"><tspan x="0" y="0">Homework Tool</tspan></text>
      <text id="Exam_Tools" data-name="Exam Tools" transform="translate(818 4853)" fill="#568ce0" font-size="14" font-family="Raleway-Medium, Raleway" font-weight="500" letter-spacing="0.03em"><tspan x="0" y="0">Exam Tools</tspan></text>
      <text id="Chat_Tool" data-name="Chat Tool" transform="translate(598 4983)" fill="#568ce0" font-size="14" font-family="Raleway-Medium, Raleway" font-weight="500" letter-spacing="0.03em"><tspan x="0" y="0">Chat Tool</tspan></text>
      <text id="Media_Player" data-name="Media Player" transform="translate(818 4983)" fill="#568ce0" font-size="14" font-family="Raleway-Medium, Raleway" font-weight="500" letter-spacing="0.03em"><tspan x="0" y="0">Media Player</tspan></text>
      <text id="Lesson_Planning" data-name="Lesson Planning" transform="translate(598 4723)" fill="#568ce0" font-size="14" font-family="Raleway-Medium, Raleway" font-weight="500" letter-spacing="0.03em"><tspan x="0" y="0">Lesson Planning</tspan></text>
      <text id="Parental_Updates" data-name="Parental Updates" transform="translate(818 4723)" fill="#568ce0" font-size="14" font-family="Raleway-Medium, Raleway" font-weight="500" letter-spacing="0.03em"><tspan x="0" y="0">Parental Updates</tspan></text>
    </g>
    <g id="Group_320" data-name="Group 320" transform="translate(-360 6)">
      <circle id="Ellipse_4" data-name="Ellipse 4" cx="168.5" cy="168.5" r="168.5" transform="translate(-1377 1967)" fill="#568ce0" opacity="0.072"/>
      <circle id="Ellipse_3" data-name="Ellipse 3" cx="35" cy="35" r="35" transform="translate(-1243 1931)" fill="#00d5e6"/>
      <circle id="Ellipse_6" data-name="Ellipse 6" cx="54" cy="54" r="54" transform="translate(-1262 2082)" fill="#568ce0"/>
      <g id="UOCYc9.tif" transform="translate(-1239 1982.648)">
        <g id="Group_296" data-name="Group 296" transform="translate(10 -36.648)">
          <path id="Path_445" data-name="Path 445" d="M13.284,134.528l-.815-.51-.107-.079-.7-.559-.259-.247a6.047,6.047,0,0,1-1.4-2.37v-1.641c.158-.132.145-.336.2-.507a7.5,7.5,0,0,1,2-2.934c.518-.5,1.1-.93,1.655-1.382L15,123.556l2.636-1.379.71-.3,2-.77a1.8,1.8,0,0,0,.565-.189,2.191,2.191,0,0,1,.87.1l.354.246a2.027,2.027,0,0,1,.363.665l.05.388a1.444,1.444,0,0,1-.585.975,7.837,7.837,0,0,1-.724.339,2.045,2.045,0,0,0-.653.216,14.19,14.19,0,0,0-1.972.775,3.882,3.882,0,0,0-.831.359A15.116,15.116,0,0,0,14.4,127.01a5.755,5.755,0,0,0-1.413,1.575,2.313,2.313,0,0,0-.344,1.6.5.5,0,0,0,.082.329,1.679,1.679,0,0,0,.464.826.607.607,0,0,0,.244.277,2.144,2.144,0,0,0,.668.551.378.378,0,0,0,.244.163,2.2,2.2,0,0,0,.726.406.573.573,0,0,0,.344.161,3.633,3.633,0,0,0,.893.371l.341.108a3.069,3.069,0,0,0,.9.261.439.439,0,0,0,.325.085,3.675,3.675,0,0,0,1.071.236.448.448,0,0,0,.329.073,4.536,4.536,0,0,0,1.066.166.9.9,0,0,0,.412.07,5.189,5.189,0,0,0,1.065.1.837.837,0,0,0,.412.054l1.062.057a.792.792,0,0,0,.414.032l1.229.016.411,0,1.23-.01.412,0a8.054,8.054,0,0,0,1.311-.075l.476-.019a8.1,8.1,0,0,0,1.33-.132l.469-.027,1.334-.16.494-.071a7.864,7.864,0,0,0,1.477-.221,1,1,0,0,0,.489-.079,7.294,7.294,0,0,0,1.478-.274l.562-.1a10.962,10.962,0,0,0,1.571-.385,1.416,1.416,0,0,0,.573-.141,2.076,2.076,0,0,1,.877.077l.354.237a2.471,2.471,0,0,1,.4.66l.029.4a1.5,1.5,0,0,1-1.327,1.3,1.686,1.686,0,0,0-.544.115L36.742,136a.987.987,0,0,0-.492.1l-1.475.263-.563.093-1.406.217a.888.888,0,0,0-.491.064,8.811,8.811,0,0,0-1.4.169l-.453.025-1.266.1-.494.042-1.228.039a1.081,1.081,0,0,0-.492.02,6.453,6.453,0,0,0-1.147.011.978.978,0,0,0-.5-.012,6.139,6.139,0,0,0-1.144-.043l-.411-.013a5.354,5.354,0,0,0-1.148-.08l-.412-.056-1.064-.1-.412-.069-.972-.149-.408-.067-1-.2-.33-.08-.983-.247-.159-.043-1.06-.342-.34-.114-.9-.349-.251-.127-.807-.392Z" transform="translate(-10 -107.986)" fill="#fff"/>
          <path id="Path_446" data-name="Path 446" d="M365.887,101.769c-.161.132-.141.336-.2.507a8.549,8.549,0,0,1-2.914,3.849c-.547.449-1.152.812-1.729,1.217l-.573.178a2.145,2.145,0,0,1-.8-.181l-.352-.313a2.025,2.025,0,0,1-.271-.661q.008-.247.017-.494a1.535,1.535,0,0,1,.474-.7c.253-.18.513-.351.769-.525a7.963,7.963,0,0,0,2.288-1.875,2.078,2.078,0,0,0,.5-.917,1.684,1.684,0,0,0,.081-1.314.635.635,0,0,0-.159-.427,1.47,1.47,0,0,0-.433-.638.807.807,0,0,0-.315-.311,2.366,2.366,0,0,0-.732-.528.366.366,0,0,0-.25-.15,2.572,2.572,0,0,0-.821-.4.308.308,0,0,0-.238-.1,3.113,3.113,0,0,0-.9-.329.841.841,0,0,0-.416-.137,3.845,3.845,0,0,0-.9-.242l-.33-.082A4.051,4.051,0,0,0,356.7,97a.66.66,0,0,0-.413-.075,3.786,3.786,0,0,0-1.067-.159.7.7,0,0,0-.411-.069,4.75,4.75,0,0,0-1.065-.1.713.713,0,0,0-.412-.057,1.966,1.966,0,0,1-.9-.28l-.165-.158a2.306,2.306,0,0,1-.337-.731q0-.205.006-.41a1.517,1.517,0,0,1,1.065-1.07l.411-.006a5.82,5.82,0,0,0,1.144.1.471.471,0,0,0,.333.058l1.056.156.4.074,1.006.184a.566.566,0,0,0,.329.08l.983.246.152.041,1.068.338.34.112.9.344a.243.243,0,0,0,.21.095l.851.413c.029.074.1.075.162.089l.8.479a.9.9,0,0,0,.351.244l.647.523.249.229a5.748,5.748,0,0,1,1.487,2.6Z" transform="translate(-323.887 -83.177)" fill="#fff"/>
          <path id="Path_447" data-name="Path 447" d="M150.512-35.758a12.722,12.722,0,0,1,1.969-.767l.54-.088a6.587,6.587,0,0,1,1.181-.014l.4.061.91.314a.43.43,0,0,0,.251.144l.571.417.333.323.477.585a.429.429,0,0,0,.164.244l.477.9.068.172.3.808.129.419.2.894a.868.868,0,0,0,.079.411l.12,1.08.039.4q-.01.616-.021,1.232a1.547,1.547,0,0,1-.966.966,1.7,1.7,0,0,1-1.058-.178l-.173-.135a2.478,2.478,0,0,1-.4-.66l-.029-.405a4.643,4.643,0,0,0-.046-1.156L156-30.2a3.319,3.319,0,0,0-.148-1.066.457.457,0,0,0-.071-.333,2.659,2.659,0,0,0-.316-.992.644.644,0,0,0-.181-.343,1.391,1.391,0,0,0-.5-.629.6.6,0,0,0-.33-.236,1.487,1.487,0,0,0-.984-.255.746.746,0,0,0-.411.007,4.14,4.14,0,0,0-2.053.807,1.308,1.308,0,0,0-.18.087,17.542,17.542,0,0,0-4.259,4.344,26.871,26.871,0,0,0-2.4,3.618,5.093,5.093,0,0,0-.555.977,21.716,21.716,0,0,0-1.325,2.549,3.1,3.1,0,0,0-.388.818,20.213,20.213,0,0,0-.966,2.163,2.893,2.893,0,0,0-.269.706A13.391,13.391,0,0,0,139.927-16a2.141,2.141,0,0,0-.225.657,11.034,11.034,0,0,0-.524,1.723,1.338,1.338,0,0,0-.158.572,2.227,2.227,0,0,0-.126.335,1.382,1.382,0,0,1-1.34,1.19l-.406-.064a2.485,2.485,0,0,1-.66-.485l-.152-.271a1.9,1.9,0,0,1-.008-1.033,1.326,1.326,0,0,0,.159-.574l.538-1.733.193-.646.669-1.887a2.305,2.305,0,0,0,.249-.652l.9-2.137a2.756,2.756,0,0,0,.335-.734l1.243-2.467a5.248,5.248,0,0,0,.486-.893l2-3.206,1.04-1.468c.493-.6.977-1.2,1.48-1.787a22.018,22.018,0,0,1,3.925-3.606Z" transform="translate(-125.904 36.648)" fill="#fff"/>
          <path id="Path_448" data-name="Path 448" d="M89,.133l-.426-.486-.13-.336-.2-.977a.514.514,0,0,0-.07-.329l-.115-1.084-.046-.392q0-.615,0-1.231l.052-.494.273-1.475.2-.56a4.623,4.623,0,0,1,2.5-2.565l.634-.179,1.335-.151.411.011,1.066.152.33.079.982.268c.061.083.153.081.243.087l.811.323.409.2.631.3a.643.643,0,0,0,.31.171,2.21,2.21,0,0,1,.542.637l.09.324a1.356,1.356,0,0,1-1.474,1.493l-.33-.081-.724-.352a.621.621,0,0,0-.334-.173,3.008,3.008,0,0,0-.908-.4c-.058-.086-.151-.084-.238-.1a3.03,3.03,0,0,0-.993-.294l-.412-.072a2.311,2.311,0,0,0-2.381,1.064,3.292,3.292,0,0,0-.469,1.864q0,.206,0,.412a5.163,5.163,0,0,0,.094,1.083l.064.393a4.147,4.147,0,0,0,.214.99.553.553,0,0,0,.07.329,1.745,1.745,0,0,1-.077,1c-.273.574-.773.8-1.618.714Z" transform="translate(-81.616 12.302)" fill="#fff"/>
          <path id="Path_449" data-name="Path 449" d="M260.309,98.834l-.813-.36-.16-.065-.991-.5a.429.429,0,0,0-.255-.131,3.475,3.475,0,0,0-.732-.428.4.4,0,0,0-.25-.15,2.7,2.7,0,0,0-.637-.415.868.868,0,0,0-.35-.234,3.887,3.887,0,0,0-.728-.52l-.256-.2-.567-.436a.869.869,0,0,0-.328-.257,2.6,2.6,0,0,0-.571-.483.9.9,0,0,0-.323-.277,2.191,2.191,0,0,1-.407-.712l-.026-.32a1.392,1.392,0,0,1,1.235-1.27l.413.029.635.347a1.065,1.065,0,0,0,.353.306,3.013,3.013,0,0,0,.643.53.548.548,0,0,0,.258.212,2.148,2.148,0,0,0,.551.428.817.817,0,0,0,.34.255,2.583,2.583,0,0,0,.66.476.826.826,0,0,0,.333.236,2.53,2.53,0,0,0,.65.421l.336.217a3.628,3.628,0,0,0,.817.444.4.4,0,0,0,.249.14,3.1,3.1,0,0,0,.814.362.592.592,0,0,0,.334.137,2.62,2.62,0,0,0,.9.265.623.623,0,0,0,.412.083,2.529,2.529,0,0,0,1.147.037,2.286,2.286,0,0,0,1.974-1.932,3.264,3.264,0,0,0,.161-1.4l-.01-.41a4.267,4.267,0,0,0-.1-1.088l-.072-.389a4.321,4.321,0,0,0-.231-.983.512.512,0,0,0-.087-.329,3.378,3.378,0,0,0-.313-.986.277.277,0,0,0-.086-.244,4.025,4.025,0,0,0-.385-1.064L264.777,88l-.34-.82a.994.994,0,0,0-.194-.4,3.059,3.059,0,0,0-.338-.733.593.593,0,0,0-.159-.328,4.738,4.738,0,0,0-.464-.9c-.017-.065-.017-.14-.094-.174a3.691,3.691,0,0,0-.482-.88.572.572,0,0,0-.174-.3,2.463,2.463,0,0,0-.351-.618.822.822,0,0,0-.224-.357,3.89,3.89,0,0,0-.481-.778.522.522,0,0,0-.179-.283,2.364,2.364,0,0,0-.419-.634.816.816,0,0,0-.237-.35,2.75,2.75,0,0,0-.425-.632.759.759,0,0,0-.239-.334l-.414-.57a.838.838,0,0,0-.243-.331,2.855,2.855,0,0,0-.488-.656.825.825,0,0,0-.25-.328l-.432-.57a.528.528,0,0,0-.206-.255,3.554,3.554,0,0,0-.528-.648,1.078,1.078,0,0,0-.3-.355,2.1,2.1,0,0,0-.48-.559.829.829,0,0,0-.272-.31l-.555-.622a.356.356,0,0,0-.184-.2,3.106,3.106,0,0,0-.563-.586.628.628,0,0,0-.247-.257l-.491-.645a.325.325,0,0,0-.076-.247,1.361,1.361,0,0,1,1.544-1.569l.329.1.589.486a.588.588,0,0,0,.235.245,3.141,3.141,0,0,0,.562.585.648.648,0,0,0,.247.259,2.614,2.614,0,0,0,.495.559.576.576,0,0,0,.229.253,3.823,3.823,0,0,0,.573.658.81.81,0,0,0,.267.325,2.631,2.631,0,0,0,.478.575.829.829,0,0,0,.263.322l.434.571a.548.548,0,0,0,.205.255,3.17,3.17,0,0,0,.5.654.809.809,0,0,0,.251.339l.472.653a.427.427,0,0,0,.175.241l.505.733a.818.818,0,0,0,.239.354,2.816,2.816,0,0,0,.411.633.4.4,0,0,0,.161.247l.443.732.219.346a3.1,3.1,0,0,0,.42.721.407.407,0,0,0,.142.254,5.19,5.19,0,0,0,.487.89c.017.066.018.141.1.173a3.834,3.834,0,0,0,.418.818.616.616,0,0,0,.164.335,3.285,3.285,0,0,0,.34.729.617.617,0,0,0,.155.329l.345.819a.665.665,0,0,0,.147.329,3.576,3.576,0,0,0,.321.823l.11.326.315.9a.973.973,0,0,0,.144.438l.222.806.094.321.217,1,.08.4.152.973a.709.709,0,0,0,.062.411l.042,1.147-.006.5-.137,1.314-.131.572c-.116.289-.217.584-.349.864a4.228,4.228,0,0,1-2.856,2.347l-.535.085-1.181.04a.83.83,0,0,0-.418-.046l-1.064-.183a.467.467,0,0,0-.325-.087L260.749,99A.989.989,0,0,0,260.309,98.834Z" transform="translate(-232.987 -61.961)" fill="#fff"/>
          <path id="Path_450" data-name="Path 450" d="M127.27,339.732l-1.149-.068a.48.48,0,0,0-.329-.083l-.814-.343-.248-.154-.583-.48-.32-.34-.416-.564a.421.421,0,0,0-.157-.248l-.47-.972-.066-.187-.3-.89a.613.613,0,0,0-.086-.329l-.2-1-.057-.4-.122-1.074-.027-.4.023-1.231a1.547,1.547,0,0,1,.966-.966,2.049,2.049,0,0,1,.877.076l.354.238a2.477,2.477,0,0,1,.4.66l.029.405a5.542,5.542,0,0,0,.033,1.161.764.764,0,0,0,.036.4,4.269,4.269,0,0,0,.1,1.065l.078.412a3.188,3.188,0,0,0,.242.9.541.541,0,0,0,.142.331,1.754,1.754,0,0,0,.5.817.322.322,0,0,0,.187.187,1.378,1.378,0,0,0,.82.415.931.931,0,0,0,.55.054,3.32,3.32,0,0,0,1.9-.631,6.372,6.372,0,0,0,1.461-1.051c.285-.248.59-.477.85-.748a1.594,1.594,0,0,1,1.534-.521l.329.162a2.616,2.616,0,0,1,.491.576.346.346,0,0,0,.084.246,1.668,1.668,0,0,1-.658,1.5,17.618,17.618,0,0,1-3.035,2.2l-.8.351a11.8,11.8,0,0,1-1.661.478A1.077,1.077,0,0,0,127.27,339.732Z" transform="translate(-112.749 -299.913)" fill="#fff"/>
          <circle id="Ellipse_9" data-name="Ellipse 9" cx="4.9" cy="4.9" r="4.9" transform="translate(16.1 14.7)" fill="#aaf4f6"/>
        </g>
      </g>
      <g id="Ik9mBQ.tif" transform="translate(-1536.878 2294)">
        <g id="Group_298" data-name="Group 298" transform="translate(300.878 -188)">
          <path id="Path_461" data-name="Path 461" d="M332.3-188a2.374,2.374,0,0,1,1.5,2.018c.111.769.319,1.525.488,2.286.134.6.518.771,1.072.464.954-.529,1.9-1.073,2.852-1.6a1.94,1.94,0,0,1,2.637.373c1.139,1.153,2.288,2.3,3.429,3.448a1.87,1.87,0,0,1,.342,2.537c-.529.954-1.067,1.9-1.6,2.856-.344.619-.181.964.519,1.118q1.284.283,2.569.565a1.9,1.9,0,0,1,1.658,2.069c0,1.348.012,2.7-.007,4.042,0,.342.053.5.438.46.426-.038.859,0,1.288-.011a1.942,1.942,0,0,1,1.921,1.175q2.753,5.508,5.491,11.025a1.867,1.867,0,0,1-1.808,2.8q-19.715.006-39.431,0c-1.641,0-3.281.012-4.921-.01-.385-.005-.479.1-.479.483q.018,9.843,0,19.686c0,.469.191.47.544.469q18.221-.01,36.443.007c.444,0,.537-.112.535-.543q-.024-8.115-.009-16.229a1.872,1.872,0,0,1,1.227-1.873,1.846,1.846,0,0,1,2.07.542,1.842,1.842,0,0,1,.454,1.234q0,9.345,0,18.69A2.044,2.044,0,0,1,350.111-128h-42.3a2.4,2.4,0,0,1-1.307-2.322c.035-7.163.017-14.327.022-21.49,0-.362.023-.605-.5-.579-1.09.054-2.186.037-3.278.011a1.843,1.843,0,0,1-1.672-2.656c1.865-3.788,3.766-7.558,5.665-11.33a1.772,1.772,0,0,1,1.66-1.007c.488-.008.977-.024,1.463.005.341.021.417-.1.413-.424-.017-1.386-.011-2.772-.006-4.157a1.882,1.882,0,0,1,1.619-1.982q1.341-.293,2.683-.586c.6-.132.772-.52.466-1.071-.539-.97-1.089-1.934-1.629-2.9a1.874,1.874,0,0,1,.361-2.534q1.715-1.722,3.436-3.437a1.971,1.971,0,0,1,2.731-.329c.907.532,1.823,1.046,2.741,1.559.57.319.938.136,1.083-.52.163-.742.362-1.478.477-2.227a2.384,2.384,0,0,1,1.5-2.02Zm19.925,31.857c-1.227-2.452-2.432-4.847-3.619-7.25-.132-.266-.324-.231-.533-.231q-1.757,0-3.514,0-17.218,0-34.436-.011a.782.782,0,0,0-.832.521c-.643,1.353-1.332,2.685-2,4.025-.485.968-.968,1.938-1.472,2.947Zm-28.448-11.233c-.041-.2-.07-.35-.1-.5-.582-2.7.461-6.35,4.712-6.841a5.3,5.3,0,0,1,5.869,3.68,5.984,5.984,0,0,1,.076,3.238c-.089.338-.023.436.336.432,1.445-.017,2.891-.036,4.335,0a15.527,15.527,0,0,0,4.576-.472c.3-.084.47-.165.45-.527a17.947,17.947,0,0,1,0-1.815c.014-.305-.111-.411-.38-.465-.784-.156-1.565-.324-2.345-.5a1.89,1.89,0,0,1-1.515-1.383,8.972,8.972,0,0,0-.69-1.735,2.055,2.055,0,0,1,.064-2.164c.485-.823.933-1.667,1.415-2.492a.4.4,0,0,0-.08-.593c-.5-.461-.918-1.214-1.488-1.35-.54-.129-1.138.553-1.729.844-.017.009-.033.02-.051.03-1.783.969-1.767,1.224-4.054.343a3.3,3.3,0,0,1-2.516-3.069.444.444,0,0,0-.008-.058c-.309-1.481-.309-1.482-1.851-1.483a5.037,5.037,0,0,1-.644,0c-.342-.045-.483.093-.544.426-.139.747-.319,1.486-.473,2.23a1.915,1.915,0,0,1-1.443,1.593,8.546,8.546,0,0,0-1.733.7,1.987,1.987,0,0,1-2.058-.05c-.828-.476-1.672-.925-2.494-1.412-.278-.164-.456-.191-.688.077a12.576,12.576,0,0,1-1.117,1.119.485.485,0,0,0-.109.732c.511.852.979,1.731,1.465,2.6A1.864,1.864,0,0,1,319-174.4a10.389,10.389,0,0,0-.744,1.839,1.917,1.917,0,0,1-1.6,1.435c-.745.151-1.484.33-2.23.474-.294.057-.434.161-.419.493.028.6.028,1.211,0,1.815-.015.328.122.429.414.5a15.351,15.351,0,0,0,4.106.484C320.263-167.42,322-167.376,323.775-167.376Zm5.2,0a2.111,2.111,0,0,0,2.041-1.89,2.385,2.385,0,0,0-1.991-1.984,2.357,2.357,0,0,0-2.01,2.021A2.112,2.112,0,0,0,328.977-167.375Z" transform="translate(-300.878 188)" fill="#fff"/>
          <path id="Path_462" data-name="Path 462" d="M422.69-139.225c-1.775,0-3.512-.044-5.245.014a15.352,15.352,0,0,1-4.107-.484c-.292-.07-.429-.171-.414-.5.028-.6.028-1.211,0-1.815-.015-.332.125-.436.419-.493.746-.145,1.485-.323,2.23-.474a1.917,1.917,0,0,0,1.6-1.435,10.387,10.387,0,0,1,.744-1.839,1.864,1.864,0,0,0-.041-1.847c-.486-.867-.954-1.746-1.465-2.6a.485.485,0,0,1,.109-.732,12.583,12.583,0,0,0,1.117-1.119c.232-.267.411-.241.688-.077.822.487,1.666.936,2.494,1.412a1.987,1.987,0,0,0,2.058.05,8.548,8.548,0,0,1,1.733-.7,1.915,1.915,0,0,0,1.443-1.593c.154-.744.334-1.483.473-2.23.062-.333.2-.471.544-.426a5.048,5.048,0,0,0,.644,0c1.542,0,1.542,0,1.851,1.483a.45.45,0,0,1,.008.058,3.3,3.3,0,0,0,2.516,3.069c2.287.881,2.272.626,4.054-.343.017-.009.033-.021.051-.03.591-.291,1.189-.974,1.729-.844.57.136.984.889,1.488,1.35a.4.4,0,0,1,.08.593c-.483.824-.93,1.669-1.415,2.492a2.055,2.055,0,0,0-.064,2.164,8.975,8.975,0,0,1,.69,1.735,1.89,1.89,0,0,0,1.514,1.383c.78.172,1.562.339,2.345.5.27.054.394.16.38.465a17.938,17.938,0,0,0,0,1.815c.02.362-.146.443-.45.527a15.528,15.528,0,0,1-4.576.472c-1.444-.037-2.89-.019-4.335,0-.36,0-.425-.094-.336-.432a5.984,5.984,0,0,0-.076-3.238,5.3,5.3,0,0,0-5.869-3.68c-4.251.492-5.294,4.139-4.712,6.841C422.62-139.575,422.649-139.425,422.69-139.225Z" transform="translate(-399.793 159.849)" fill="#9fcdf9"/>
        </g>
      </g>
      <text id="Resource_Infrastructure" data-name="Resource Infrastructure" transform="translate(-1327 2218)" fill="#568ce0" font-size="20" font-family="Quicksand-SemiBold, Quicksand" font-weight="600" letter-spacing="0.03em"><tspan x="0" y="0">Resource Infrastructure</tspan></text>
      <circle id="Ellipse_5" data-name="Ellipse 5" cx="35" cy="35" r="35" transform="translate(-1243 2261)" fill="#8787f6"/>
      <g id="UotDIQ.tif" transform="translate(-1046 2613.005)">
        <g id="Group_297" data-name="Group 297" transform="translate(-182 -333.005)">
          <path id="Path_453" data-name="Path 453" d="M-182-167.36a1.234,1.234,0,0,0,.177-.57,6.988,6.988,0,0,1,6.474-5.13c.689-.013,1.379-.009,2.069,0A1.246,1.246,0,0,1-172-171.822a1.251,1.251,0,0,1-1.264,1.259,25.2,25.2,0,0,0-2.689.061,3.831,3.831,0,0,0-3.546,4.061q-.008,4.371,0,8.743c0,.6.015,1.2-.006,1.8-.009.266.049.35.332.346,1.093-.019,2.186-.009,3.279-.007a1.263,1.263,0,0,1,1.394,1.245,1.259,1.259,0,0,1-1.385,1.254c-1.6,0-3.2-.008-4.8.007a1.5,1.5,0,0,1-1.314-.866Z" transform="translate(182 185.564)" fill="#fff"/>
          <path id="Path_454" data-name="Path 454" d="M211.994-154.1a1.706,1.706,0,0,1-1.783.872c-1.482-.044-2.967-.008-4.45-.015a1.219,1.219,0,0,1-1.2-.873,1.228,1.228,0,0,1,.452-1.385,1.3,1.3,0,0,1,.8-.243c1.093.006,2.187-.017,3.279.013.364.01.411-.108.409-.43q-.018-5.017-.006-10.034a4.135,4.135,0,0,0-3.3-4.32,11.169,11.169,0,0,0-2.945-.227,1.234,1.234,0,0,1-1.188-.845,1.234,1.234,0,0,1,.386-1.373,1.111,1.111,0,0,1,.636-.273,8.879,8.879,0,0,1,5.5,1.194,6.741,6.741,0,0,1,3.345,4.617c0,.016.039.026.06.038Z" transform="translate(-171.994 185.74)" fill="#fff"/>
          <path id="Path_455" data-name="Path 455" d="M-43.958-169.959q-4.354,0-8.708,0a1.253,1.253,0,0,1-1.371-1.386c0-3.645-.008-7.289,0-10.933a9.318,9.318,0,0,1,7.673-8.916,13.657,13.657,0,0,1,5.768.221,9.34,9.34,0,0,1,6.685,8.858q.011,5.35,0,10.7a1.279,1.279,0,0,1-1.46,1.457Zm-.025-2.5c2.407,0,4.815-.006,7.222.007.3,0,.368-.082.362-.37-.018-.937,0-1.874-.007-2.811-.024-2.446.089-4.894-.054-7.337a6.22,6.22,0,0,0-4.547-5.589A13.476,13.476,0,0,0-45-188.833a6.373,6.373,0,0,0-6.536,6.665c0,3.11,0,6.22-.007,9.33,0,.3.062.389.377.387C-48.772-172.466-46.378-172.459-43.983-172.46Z" transform="translate(64.037 202.46)" fill="#fff"/>
          <path id="Path_456" data-name="Path 456" d="M14.982-333.005a5.232,5.232,0,0,1,5.008,5.041A5.242,5.242,0,0,1,14.978-323a5.234,5.234,0,0,1-4.989-5.061A5.246,5.246,0,0,1,14.982-333.005ZM15-330.5a2.309,2.309,0,0,0-2.51,2.46,2.312,2.312,0,0,0,2.47,2.539,2.31,2.31,0,0,0,2.529-2.479A2.312,2.312,0,0,0,15-330.5Z" transform="translate(5.01 333.005)" fill="#fff"/>
          <path id="Path_457" data-name="Path 457" d="M180.117-278.4a3.718,3.718,0,0,1-3.5,3.521,3.725,3.725,0,0,1-3.513-3.471,3.717,3.717,0,0,1,3.521-3.542A3.725,3.725,0,0,1,180.117-278.4Zm-2.013.033a1.337,1.337,0,0,0-1.475-1.511,1.338,1.338,0,0,0-1.511,1.476,1.343,1.343,0,0,0,1.515,1.51A1.331,1.331,0,0,0,178.1-278.369Z" transform="translate(-145.361 285.887)" fill="#fff"/>
          <path id="Path_458" data-name="Path 458" d="M-111.378-281.877a3.72,3.72,0,0,1,3.514,3.509,3.72,3.72,0,0,1-3.52,3.5,3.725,3.725,0,0,1-3.494-3.49A3.717,3.717,0,0,1-111.378-281.877Zm-1.486,3.478a1.337,1.337,0,0,0,1.465,1.521,1.338,1.338,0,0,0,1.521-1.466,1.344,1.344,0,0,0-1.5-1.52A1.33,1.33,0,0,0-112.865-278.4Z" transform="translate(120.122 285.872)" fill="#fff"/>
          <path id="Path_459" data-name="Path 459" d="M-14.524-142.473c-2.394,0-4.789-.006-7.183.008-.315,0-.378-.09-.377-.387.011-3.11.006-6.22.007-9.33a6.373,6.373,0,0,1,6.536-6.665,13.476,13.476,0,0,1,3.993.274A6.22,6.22,0,0,1-7-152.983c.142,2.443.03,4.891.054,7.337.009.937-.011,1.874.007,2.811.006.287-.063.372-.362.37C-9.71-142.479-12.117-142.473-14.524-142.473Z" transform="translate(34.578 172.473)" fill="#aba9f8"/>
          <path id="Path_460" data-name="Path 460" d="M44.514-301A2.312,2.312,0,0,1,47-298.476,2.31,2.31,0,0,1,44.475-296,2.312,2.312,0,0,1,42-298.535,2.309,2.309,0,0,1,44.514-301Z" transform="translate(-24.504 303.496)" fill="#aba9f8"/>
        </g>
      </g>
    </g>
  </g>
</svg>
