<svg xmlns="http://www.w3.org/2000/svg" id="product_hero" width="339.936" height="376.099" viewBox="0 0 339.936 376.099">
    <defs>
        <style>
            .cls-1{fill:#d37720}.cls-2{fill:#fff}
        </style>
    </defs>
    <path id="Path_43" d="M1436.036 588.442h-22.4l-11.2 19.4 11.2 19.4h22.4l11.2-19.4z" class="cls-1" data-name="Path 43" transform="translate(-1217.766 -567.36)"/>
    <path id="Path_44" d="M1436.036 688.442h-22.4l-11.2 19.4 11.2 19.4h22.4l11.2-19.4z" class="cls-1" data-name="Path 44" transform="translate(-1217.766 -583.033)"/>
    <path id="Path_45" d="M1436.036 788.442h-22.4l-11.2 19.4 11.2 19.4h22.4l11.2-19.4z" class="cls-1" data-name="Path 45" transform="translate(-1217.766 -598.706)"/>
    <path id="Path_48" d="M1436.036 938.442h-22.4l-11.2 19.4 11.2 19.4h22.4l11.2-19.4z" class="cls-2" data-name="Path 48" transform="translate(-1217.766 -622.215)"/>
    <path id="Path_49" d="M1436.036 888.442h-22.4l-11.2 19.4 11.2 19.4h22.4l11.2-19.4z" class="cls-2" data-name="Path 49" transform="translate(-1217.766 -614.379)"/>
    <path id="Path_51" d="M1480.035 613.442h-22.4l-11.2 19.4 11.2 19.4h22.4l11.2-19.4z" class="cls-1" data-name="Path 51" transform="translate(-1224.662 -571.278)"/>
    <path id="Path_52" d="M1480.035 713.442h-22.4l-11.2 19.4 11.2 19.4h22.4l11.2-19.4z" class="cls-2" data-name="Path 52" transform="translate(-1224.662 -586.951)"/>
    <path id="Path_53" d="M1480.035 813.442h-22.4l-11.2 19.4 11.2 19.4h22.4l11.2-19.4z" class="cls-1" data-name="Path 53" transform="translate(-1224.662 -602.624)"/>
    <path id="Path_55" d="M1480.035 863.442h-22.4l-11.2 19.4 11.2 19.4h22.4l11.2-19.4z" class="cls-1" data-name="Path 55" transform="translate(-1224.662 -610.46)"/>
    <path id="Path_56" d="M1480.035 913.442h-22.4l-11.2 19.4 11.2 19.4h22.4l11.2-19.4z" class="cls-1" data-name="Path 56" transform="translate(-1224.662 -618.297)"/>
    <path id="Path_57" d="M1523.035 638.442h-22.4l-11.2 19.4 11.2 19.4h22.4l11.2-19.4z" class="cls-2" data-name="Path 57" transform="translate(-1231.401 -575.197)"/>
    <path id="Path_59" d="M1523.035 788.442h-22.4l-11.2 19.4 11.2 19.4h22.4l11.2-19.4z" class="cls-1" data-name="Path 59" transform="translate(-1231.401 -598.706)"/>
    <path id="Path_60" d="M1523.035 738.442h-22.4l-11.2 19.4 11.2 19.4h22.4l11.2-19.4z" class="cls-2" data-name="Path 60" transform="translate(-1231.401 -590.869)"/>
    <path id="Path_61" d="M1523.035 838.442h-22.4l-11.2 19.4 11.2 19.4h22.4l11.2-19.4z" class="cls-1" data-name="Path 61" transform="translate(-1231.401 -606.542)"/>
    <path id="Path_62" d="M1523.035 888.442h-22.4l-11.2 19.4 11.2 19.4h22.4l11.2-19.4z" class="cls-1" data-name="Path 62" transform="translate(-1231.401 -614.379)"/>
    <path id="Path_63" d="M1567.035 663.442h-22.4l-11.2 19.4 11.2 19.4h22.4l11.2-19.4z" class="cls-2" data-name="Path 63" transform="translate(-1238.297 -579.115)"/>
    <path id="Path_64" d="M1567.035 713.442h-22.4l-11.2 19.4 11.2 19.4h22.4l11.2-19.4z" class="cls-2" data-name="Path 64" transform="translate(-1238.297 -586.951)"/>
    <path id="Path_65" d="M1567.035 813.442h-22.4l-11.2 19.4 11.2 19.4h22.4l11.2-19.4z" class="cls-1" data-name="Path 65" transform="translate(-1238.297 -602.624)"/>
    <path id="Path_66" d="M1567.035 763.442h-22.4l-11.2 19.4 11.2 19.4h22.4l11.2-19.4z" class="cls-1" data-name="Path 66" transform="translate(-1238.297 -594.787)"/>
    <path id="Path_67" d="M1567.035 863.442h-22.4l-11.2 19.4 11.2 19.4h22.4l11.2-19.4z" class="cls-1" data-name="Path 67" transform="translate(-1238.297 -610.46)"/>
    <path id="Path_68" d="M1217.036 663.442h-22.4l-11.2 19.4 11.2 19.4h22.4l11.2-19.4z" class="cls-2" data-name="Path 68" transform="translate(-1183.442 -579.115)"/>
    <path id="Path_69" d="M1217.036 713.442h-22.4l-11.2 19.4 11.2 19.4h22.4l11.2-19.4z" class="cls-2" data-name="Path 69" transform="translate(-1183.442 -586.951)"/>
    <path id="Path_70" d="M1217.036 813.442h-22.4l-11.2 19.4 11.2 19.4h22.4l11.2-19.4z" class="cls-1" data-name="Path 70" transform="translate(-1183.442 -602.624)"/>
    <path id="Path_71" d="M1217.036 763.442h-22.4l-11.2 19.4 11.2 19.4h22.4l11.2-19.4z" class="cls-1" data-name="Path 71" transform="translate(-1183.442 -594.787)"/>
    <path id="Path_72" d="M1217.036 863.442h-22.4l-11.2 19.4 11.2 19.4h22.4l11.2-19.4z" class="cls-1" data-name="Path 72" transform="translate(-1183.442 -610.46)"/>
    <path id="Path_73" d="M1261.035 638.442h-22.4l-11.2 19.4 11.2 19.4h22.4l11.2-19.4z" class="cls-2" data-name="Path 73" transform="translate(-1190.338 -575.197)"/>
    <path id="Path_75" d="M1261.035 788.442h-22.4l-11.2 19.4 11.2 19.4h22.4l11.2-19.4z" class="cls-1" data-name="Path 75" transform="translate(-1190.338 -598.706)"/>
    <path id="Path_76" d="M1261.035 738.442h-22.4l-11.2 19.4 11.2 19.4h22.4l11.2-19.4z" class="cls-2" data-name="Path 76" transform="translate(-1190.338 -590.869)"/>
    <path id="Path_77" d="M1261.035 838.442h-22.4l-11.2 19.4 11.2 19.4h22.4l11.2-19.4z" class="cls-1" data-name="Path 77" transform="translate(-1190.338 -606.542)"/>
    <path id="Path_78" d="M1261.035 888.442h-22.4l-11.2 19.4 11.2 19.4h22.4l11.2-19.4z" class="cls-1" data-name="Path 78" transform="translate(-1190.338 -614.379)"/>
    <path id="Path_80" d="M1305.035 613.442h-22.4l-11.2 19.4 11.2 19.4h22.4l11.2-19.4z" class="cls-1" data-name="Path 80" transform="translate(-1197.234 -571.278)"/>
    <path id="Path_81" d="M1305.035 713.442h-22.4l-11.2 19.4 11.2 19.4h22.4l11.2-19.4z" class="cls-2" data-name="Path 81" transform="translate(-1197.234 -586.951)"/>
    <path id="Path_82" d="M1305.035 813.442h-22.4l-11.2 19.4 11.2 19.4h22.4l11.2-19.4z" class="cls-1" data-name="Path 82" transform="translate(-1197.234 -602.624)"/>
    <path id="Path_84" d="M1305.035 863.442h-22.4l-11.2 19.4 11.2 19.4h22.4l11.2-19.4z" class="cls-1" data-name="Path 84" transform="translate(-1197.234 -610.46)"/>
    <path id="Path_85" d="M1305.035 913.442h-22.4l-11.2 19.4 11.2 19.4h22.4l11.2-19.4z" class="cls-1" data-name="Path 85" transform="translate(-1197.234 -618.297)"/>
    <path id="Path_87" d="M1348.035 588.442h-22.4l-11.2 19.4 11.2 19.4h22.4l11.2-19.4z" class="cls-1" data-name="Path 87" transform="translate(-1203.973 -567.36)"/>
    <path id="Path_88" d="M1348.035 688.442h-22.4l-11.2 19.4 11.2 19.4h22.4l11.2-19.4z" class="cls-1" data-name="Path 88" transform="translate(-1203.973 -583.033)"/>
    <path id="Path_89" d="M1348.035 788.442h-22.4l-11.2 19.4 11.2 19.4h22.4l11.2-19.4z" class="cls-1" data-name="Path 89" transform="translate(-1203.973 -598.706)"/>
    <path id="Path_92" d="M1348.035 938.442h-22.4l-11.2 19.4 11.2 19.4h22.4l11.2-19.4z" class="cls-2" data-name="Path 92" transform="translate(-1203.973 -622.215)"/>
    <path id="Path_93" d="M1348.035 888.442h-22.4l-11.2 19.4 11.2 19.4h22.4l11.2-19.4z" class="cls-2" data-name="Path 93" transform="translate(-1203.973 -614.379)"/>
    <path id="Path_94" d="M1392.035 563.442h-22.4l-11.2 19.4 11.2 19.4h22.4l11.2-19.4z" class="cls-1" data-name="Path 94" transform="translate(-1210.869 -563.442)"/>
    <path id="Path_95" d="M1392.035 663.442h-22.4l-11.2 19.4 11.2 19.4h22.4l11.2-19.4z" class="cls-1" data-name="Path 95" transform="translate(-1210.869 -579.115)"/>
    <path id="Path_100" d="M1392.035 863.442h-22.4l-11.2 19.4 11.2 19.4h22.4l11.2-19.4z" class="cls-2" data-name="Path 100" transform="translate(-1210.869 -610.46)"/>
    <path id="Path_101" d="M1392.035 963.442h-22.4l-11.2 19.4 11.2 19.4h22.4l11.2-19.4z" class="cls-2" data-name="Path 101" transform="translate(-1210.869 -626.133)"/>
    <g id="Group_13" data-name="Group 13" transform="translate(37.104 42.164)">
        <path id="Path_42" d="M1436.036 638.442h-22.4l-11.2 19.4 11.2 19.4h22.4l11.2-19.4z" class="cls-1" data-name="Path 42" transform="translate(-1254.869 -617.36)"/>
        <path id="Path_46" d="M1436.036 738.442h-22.4l-11.2 19.4 11.2 19.4h22.4l11.2-19.4z" class="cls-1" data-name="Path 46" transform="translate(-1254.869 -633.033)"/>
        <path id="Path_47" d="M1436.036 838.442h-22.4l-11.2 19.4 11.2 19.4h22.4l11.2-19.4z" class="cls-1" data-name="Path 47" transform="translate(-1254.869 -648.706)"/>
        <path id="Path_50" d="M1480.035 663.442h-22.4l-11.2 19.4 11.2 19.4h22.4l11.2-19.4z" class="cls-2" data-name="Path 50" transform="translate(-1261.766 -621.278)"/>
        <path id="Path_54" d="M1480.035 763.442h-22.4l-11.2 19.4 11.2 19.4h22.4l11.2-19.4z" class="cls-1" data-name="Path 54" transform="translate(-1261.766 -636.951)"/>
        <path id="Path_58" d="M1523.035 688.442h-22.4l-11.2 19.4 11.2 19.4h22.4l11.2-19.4z" class="cls-2" data-name="Path 58" transform="translate(-1268.505 -625.197)"/>
        <path id="Path_74" d="M1261.035 688.442h-22.4l-11.2 19.4 11.2 19.4h22.4l11.2-19.4z" class="cls-2" data-name="Path 74" transform="translate(-1227.442 -625.197)"/>
        <path id="Path_79" d="M1305.035 663.442h-22.4l-11.2 19.4 11.2 19.4h22.4l11.2-19.4z" class="cls-2" data-name="Path 79" transform="translate(-1234.338 -621.278)"/>
        <path id="Path_83" d="M1305.035 763.442h-22.4l-11.2 19.4 11.2 19.4h22.4l11.2-19.4z" class="cls-1" data-name="Path 83" transform="translate(-1234.338 -636.951)"/>
        <path id="Path_86" d="M1348.035 638.442h-22.4l-11.2 19.4 11.2 19.4h22.4l11.2-19.4z" class="cls-1" data-name="Path 86" transform="translate(-1241.077 -617.36)"/>
        <path id="Path_90" d="M1348.035 738.442h-22.4l-11.2 19.4 11.2 19.4h22.4l11.2-19.4z" class="cls-1" data-name="Path 90" transform="translate(-1241.077 -633.033)"/>
        <path id="Path_91" d="M1348.035 838.442h-22.4l-11.2 19.4 11.2 19.4h22.4l11.2-19.4z" class="cls-1" data-name="Path 91" transform="translate(-1241.077 -648.706)"/>
        <path id="Path_96" d="M1392.035 613.442h-22.4l-11.2 19.4 11.2 19.4h22.4l11.2-19.4z" class="cls-1" data-name="Path 96" transform="translate(-1247.973 -613.442)"/>
        <path id="Path_97" d="M1392.035 713.442h-22.4l-11.2 19.4 11.2 19.4h22.4l11.2-19.4z" class="cls-1" data-name="Path 97" transform="translate(-1247.973 -629.115)"/>
        <path id="Path_98" d="M1392.035 813.442h-22.4l-11.2 19.4 11.2 19.4h22.4l11.2-19.4z" class="cls-1" data-name="Path 98" transform="translate(-1247.973 -644.788)"/>
        <path id="Path_102" d="M1392.035 913.442h-22.4l-11.2 19.4 11.2 19.4h22.4l11.2-19.4z" class="cls-2" data-name="Path 102" transform="translate(-1247.973 -660.46)"/>
    </g>
</svg>
