<svg xmlns="http://www.w3.org/2000/svg" width="798" height="399" viewBox="0 0 798 399">
  <g id="products-tab-learning" transform="translate(1737 -1938)">
    <g id="Group_287" data-name="Group 287" transform="translate(-1918 -2715)">
      <rect id="Rectangle_27" data-name="Rectangle 27" width="105" height="41" rx="20.5" transform="translate(576 4958)" fill="#fff" opacity="0.897"/>
      <rect id="Rectangle_70" data-name="Rectangle 70" width="133" height="41" rx="20.5" transform="matrix(1, 0.017, -0.017, 1, 796.366, 4957.087)" fill="#fff" opacity="0.897"/>
      <rect id="Rectangle_43" data-name="Rectangle 43" width="142" height="41" rx="20.5" transform="translate(576 4893)" fill="#fff" opacity="0.897"/>
      <rect id="Rectangle_69" data-name="Rectangle 69" width="91" height="41" rx="20.5" transform="translate(796 4893)" fill="#fff" opacity="0.897"/>
      <rect id="Rectangle_28" data-name="Rectangle 28" width="161" height="41" rx="20.5" transform="translate(576 4698)" fill="#fff" opacity="0.897"/>
      <rect id="Rectangle_66" data-name="Rectangle 66" width="168" height="41" rx="20.5" transform="translate(796 4698)" fill="#fff" opacity="0.897"/>
      <rect id="Rectangle_41" data-name="Rectangle 41" width="154" height="41" rx="20.5" transform="translate(576 4828)" fill="#fff" opacity="0.897"/>
      <rect id="Rectangle_68" data-name="Rectangle 68" width="120" height="41" rx="20.5" transform="translate(796 4828)" fill="#fff" opacity="0.897"/>
      <rect id="Rectangle_29" data-name="Rectangle 29" width="190" height="41" rx="20.5" transform="translate(576 4763)" fill="#fff" opacity="0.897"/>
      <rect id="Rectangle_67" data-name="Rectangle 67" width="183" height="41" rx="20.5" transform="translate(796 4763)" fill="#fff" opacity="0.897"/>
      <text id="Single_Sign-In" data-name="Single Sign-In" transform="translate(598 4918)" fill="#00c4d2" font-size="14" font-family="Raleway-Medium, Raleway" font-weight="500" letter-spacing="0.03em"><tspan x="0" y="0">Single Sign-In</tspan></text>
      <text id="AI_Tutor" data-name="AI Tutor" transform="translate(818 4918)" fill="#00c4d2" font-size="14" font-family="Raleway-Medium, Raleway" font-weight="500" letter-spacing="0.03em"><tspan x="0" y="0">AI Tutor</tspan></text>
      <text id="Tablet_Management" data-name="Tablet Management" transform="translate(598 4788)" fill="#00c4d2" font-size="14" font-family="Raleway-Medium, Raleway" font-weight="500" letter-spacing="0.03em"><tspan x="0" y="0">Tablet Management</tspan></text>
      <text id="Lecture_Annotation" data-name="Lecture Annotation" transform="translate(818 4788)" fill="#00c4d2" font-size="14" font-family="Raleway-Medium, Raleway" font-weight="500" letter-spacing="0.03em"><tspan x="0" y="0">Lecture Annotation</tspan></text>
      <text id="Homework_Tool" data-name="Homework Tool" transform="translate(598 4853)" fill="#00c4d2" font-size="14" font-family="Raleway-Medium, Raleway" font-weight="500" letter-spacing="0.03em"><tspan x="0" y="0">Homework Tool</tspan></text>
      <text id="Exam_Tools" data-name="Exam Tools" transform="translate(818 4853)" fill="#00c4d2" font-size="14" font-family="Raleway-Medium, Raleway" font-weight="500" letter-spacing="0.03em"><tspan x="0" y="0">Exam Tools</tspan></text>
      <text id="Chat_Tool" data-name="Chat Tool" transform="translate(598 4983)" fill="#00c4d2" font-size="14" font-family="Raleway-Medium, Raleway" font-weight="500" letter-spacing="0.03em"><tspan x="0" y="0">Chat Tool</tspan></text>
      <text id="Media_Player" data-name="Media Player" transform="translate(818 4983)" fill="#00c4d2" font-size="14" font-family="Raleway-Medium, Raleway" font-weight="500" letter-spacing="0.03em"><tspan x="0" y="0">Media Player</tspan></text>
      <text id="Lesson_Planning" data-name="Lesson Planning" transform="translate(598 4723)" fill="#00c4d2" font-size="14" font-family="Raleway-Medium, Raleway" font-weight="500" letter-spacing="0.03em"><tspan x="0" y="0">Lesson Planning</tspan></text>
      <text id="Parental_Updates" data-name="Parental Updates" transform="translate(818 4723)" fill="#00c4d2" font-size="14" font-family="Raleway-Medium, Raleway" font-weight="500" letter-spacing="0.03em"><tspan x="0" y="0">Parental Updates</tspan></text>
    </g>
    <g id="Group_320" data-name="Group 320" transform="translate(-360 6)">
      <circle id="Ellipse_4" data-name="Ellipse 4" cx="168.5" cy="168.5" r="168.5" transform="translate(-1377 1967)" fill="#00dce8" opacity="0.072"/>
      <circle id="Ellipse_3" data-name="Ellipse 3" cx="54" cy="54" r="54" transform="translate(-1262 2082)" fill="#00d5e6"/>
      <circle id="Ellipse_5" data-name="Ellipse 5" cx="35" cy="35" r="35" transform="translate(-1243 2261)" fill="#8787f6"/>
      <circle id="Ellipse_6" data-name="Ellipse 6" cx="35" cy="35" r="35" transform="translate(-1243 1932)" fill="#568ce0"/>
      <g id="UOCYc9.tif" transform="translate(-1248 2143.648)">
        <g id="Group_296" data-name="Group 296" transform="translate(10 -36.648)">
          <path id="Path_445" data-name="Path 445" d="M14.692,140.364l-1.165-.729-.153-.113-1.006-.8L12,138.37a8.638,8.638,0,0,1-2-3.386V132.64c.226-.189.207-.479.291-.724a10.713,10.713,0,0,1,2.862-4.191c.741-.716,1.566-1.328,2.364-1.975l1.629-1.06,3.766-1.97,1.014-.429,2.852-1.1a2.571,2.571,0,0,0,.807-.27,3.13,3.13,0,0,1,1.243.136l.506.352a2.9,2.9,0,0,1,.518.95l.072.554a2.063,2.063,0,0,1-.836,1.393,11.2,11.2,0,0,1-1.035.484,2.922,2.922,0,0,0-.933.309,20.27,20.27,0,0,0-2.816,1.108,5.546,5.546,0,0,0-1.188.513,21.6,21.6,0,0,0-4.839,2.9,8.221,8.221,0,0,0-2.018,2.251,3.3,3.3,0,0,0-.492,2.289.713.713,0,0,0,.117.471,2.4,2.4,0,0,0,.662,1.181.867.867,0,0,0,.349.4,3.062,3.062,0,0,0,.955.788.54.54,0,0,0,.349.233,3.144,3.144,0,0,0,1.037.579.818.818,0,0,0,.492.23,5.19,5.19,0,0,0,1.276.53l.486.155a4.385,4.385,0,0,0,1.285.373.627.627,0,0,0,.465.121,5.25,5.25,0,0,0,1.53.338.64.64,0,0,0,.469.1,6.48,6.48,0,0,0,1.522.236,1.291,1.291,0,0,0,.588.1,7.412,7.412,0,0,0,1.522.141,1.2,1.2,0,0,0,.589.077l1.517.082a1.132,1.132,0,0,0,.592.046l1.755.023.587.006,1.757-.014.588-.007a11.5,11.5,0,0,0,1.873-.107l.68-.027a11.568,11.568,0,0,0,1.9-.189l.67-.039,1.906-.229.705-.1a11.234,11.234,0,0,0,2.111-.316,1.422,1.422,0,0,0,.7-.113,10.42,10.42,0,0,0,2.111-.392l.8-.15a15.661,15.661,0,0,0,2.244-.549,2.023,2.023,0,0,0,.819-.2,2.966,2.966,0,0,1,1.253.11l.506.339a3.531,3.531,0,0,1,.566.943l.041.578a2.14,2.14,0,0,1-1.9,1.854,2.408,2.408,0,0,0-.777.165l-2.269.547a1.411,1.411,0,0,0-.7.136l-2.107.375-.8.133-2.009.31a1.268,1.268,0,0,0-.7.091,12.587,12.587,0,0,0-1.995.242l-.648.036-1.809.148-.706.06-1.755.056a1.544,1.544,0,0,0-.7.029,9.217,9.217,0,0,0-1.639.016,1.4,1.4,0,0,0-.713-.018,8.772,8.772,0,0,0-1.635-.062l-.587-.018a7.647,7.647,0,0,0-1.64-.114l-.589-.079-1.52-.149-.588-.1-1.389-.213-.583-.1-1.424-.287-.471-.115-1.4-.353-.228-.061-1.515-.488-.486-.163-1.283-.5-.359-.182-1.152-.561Z" transform="translate(-10 -102.447)" fill="#fff"/>
          <path id="Path_446" data-name="Path 446" d="M371.865,105.148c-.23.188-.2.479-.284.724a12.213,12.213,0,0,1-4.163,5.5c-.781.641-1.646,1.16-2.47,1.738l-.818.254a3.065,3.065,0,0,1-1.14-.259l-.5-.447a2.893,2.893,0,0,1-.388-.944q.012-.353.024-.706a2.193,2.193,0,0,1,.677-1c.361-.258.732-.5,1.1-.75a11.376,11.376,0,0,0,3.269-2.678,2.969,2.969,0,0,0,.719-1.311A2.406,2.406,0,0,0,368,103.39a.907.907,0,0,0-.227-.611,2.1,2.1,0,0,0-.619-.911,1.153,1.153,0,0,0-.45-.444,3.38,3.38,0,0,0-1.046-.755.522.522,0,0,0-.357-.214,3.675,3.675,0,0,0-1.173-.577.44.44,0,0,0-.34-.145,4.448,4.448,0,0,0-1.293-.47,1.2,1.2,0,0,0-.594-.2,5.492,5.492,0,0,0-1.287-.346l-.471-.118a5.788,5.788,0,0,0-1.4-.27.943.943,0,0,0-.591-.107A5.409,5.409,0,0,0,356.631,98a.993.993,0,0,0-.587-.1,6.786,6.786,0,0,0-1.521-.141,1.018,1.018,0,0,0-.589-.081,2.809,2.809,0,0,1-1.282-.4l-.235-.225a3.3,3.3,0,0,1-.481-1.045l.009-.586a2.167,2.167,0,0,1,1.522-1.528l.587-.009a8.313,8.313,0,0,0,1.634.147.672.672,0,0,0,.475.083l1.508.222.569.105,1.437.263a.809.809,0,0,0,.47.114l1.4.351.217.059,1.526.483.485.16,1.287.491a.348.348,0,0,0,.3.136l1.216.59c.042.106.142.107.231.127l1.145.684a1.29,1.29,0,0,0,.5.349l.925.747.356.327a8.212,8.212,0,0,1,2.124,3.716Z" transform="translate(-311.865 -78.588)" fill="#fff"/>
          <path id="Path_447" data-name="Path 447" d="M156.619-35.376a18.174,18.174,0,0,1,2.814-1.1l.772-.126a9.409,9.409,0,0,1,1.688-.02l.572.087,1.3.449a.614.614,0,0,0,.358.205l.815.6.475.461.682.835a.613.613,0,0,0,.235.349l.681,1.289.1.245.429,1.154.184.6L168-29.073a1.24,1.24,0,0,0,.113.587l.171,1.542.056.567q-.015.88-.029,1.759a2.211,2.211,0,0,1-1.38,1.38,2.432,2.432,0,0,1-1.511-.255l-.247-.193a3.54,3.54,0,0,1-.567-.942l-.042-.579a6.632,6.632,0,0,0-.065-1.652l-.044-.574a4.741,4.741,0,0,0-.212-1.523.653.653,0,0,0-.1-.475,3.8,3.8,0,0,0-.452-1.418.92.92,0,0,0-.259-.489,1.988,1.988,0,0,0-.72-.9.857.857,0,0,0-.472-.337,2.124,2.124,0,0,0-1.405-.364,1.066,1.066,0,0,0-.587.01,5.914,5.914,0,0,0-2.932,1.153,1.868,1.868,0,0,0-.257.124,25.061,25.061,0,0,0-6.084,6.206,38.386,38.386,0,0,0-3.424,5.168,7.275,7.275,0,0,0-.793,1.4,31.023,31.023,0,0,0-1.893,3.641,4.428,4.428,0,0,0-.554,1.168,28.874,28.874,0,0,0-1.38,3.09,4.132,4.132,0,0,0-.384,1.009A19.126,19.126,0,0,0,141.5-7.158a3.059,3.059,0,0,0-.321.939,15.763,15.763,0,0,0-.748,2.461,1.912,1.912,0,0,0-.225.818,3.183,3.183,0,0,0-.18.479,1.974,1.974,0,0,1-1.914,1.7l-.58-.091a3.55,3.55,0,0,1-.943-.692l-.217-.388a2.713,2.713,0,0,1-.012-1.476,1.894,1.894,0,0,0,.227-.819l.768-2.476.276-.923.955-2.7a3.294,3.294,0,0,0,.356-.931l1.28-3.053a3.936,3.936,0,0,0,.479-1.048l1.776-3.525a7.5,7.5,0,0,0,.695-1.276l2.855-4.58,1.486-2.1c.7-.852,1.4-1.714,2.115-2.553a31.454,31.454,0,0,1,5.607-5.151Z" transform="translate(-121.465 36.648)" fill="#fff"/>
          <path id="Path_448" data-name="Path 448" d="M89.423,4.529l-.608-.694-.186-.479-.282-1.4a.735.735,0,0,0-.1-.47L88.082-.059l-.066-.56q0-.879,0-1.758l.074-.705.389-2.107.29-.8a6.6,6.6,0,0,1,3.579-3.665l.905-.256,1.907-.216.587.016,1.523.216.471.112,1.4.383c.088.119.219.116.347.125l1.158.462.584.283.9.432a.919.919,0,0,0,.443.245,3.157,3.157,0,0,1,.774.911l.129.463a1.938,1.938,0,0,1-2.105,2.133l-.471-.116-1.034-.5a.887.887,0,0,0-.478-.247,4.3,4.3,0,0,0-1.3-.572c-.082-.123-.215-.12-.34-.138a4.329,4.329,0,0,0-1.419-.421l-.589-.1a3.3,3.3,0,0,0-3.4,1.52,4.7,4.7,0,0,0-.67,2.664q0,.295,0,.589a7.376,7.376,0,0,0,.135,1.548l.092.561a5.924,5.924,0,0,0,.305,1.414.79.79,0,0,0,.1.47A2.493,2.493,0,0,1,92.2,3.752c-.39.82-1.1,1.139-2.312,1.02Z" transform="translate(-78.874 13.234)" fill="#fff"/>
          <path id="Path_449" data-name="Path 449" d="M263.478,110.86l-1.162-.514-.228-.092-1.416-.714a.613.613,0,0,0-.365-.186,4.964,4.964,0,0,0-1.046-.612.578.578,0,0,0-.358-.214,3.857,3.857,0,0,0-.91-.593,1.24,1.24,0,0,0-.5-.334,5.553,5.553,0,0,0-1.041-.743l-.366-.283-.81-.622a1.242,1.242,0,0,0-.468-.368,3.716,3.716,0,0,0-.815-.689,1.284,1.284,0,0,0-.461-.4,3.13,3.13,0,0,1-.581-1.017l-.038-.457a1.989,1.989,0,0,1,1.765-1.814l.59.042.908.5a1.522,1.522,0,0,0,.5.437,4.3,4.3,0,0,0,.919.758.783.783,0,0,0,.368.3,3.067,3.067,0,0,0,.787.611,1.167,1.167,0,0,0,.485.365,3.691,3.691,0,0,0,.943.681,1.18,1.18,0,0,0,.476.337,3.615,3.615,0,0,0,.928.6l.48.31a5.183,5.183,0,0,0,1.167.634.575.575,0,0,0,.356.2,4.431,4.431,0,0,0,1.163.517.846.846,0,0,0,.477.2,3.742,3.742,0,0,0,1.284.379.89.89,0,0,0,.589.118,3.613,3.613,0,0,0,1.639.052,3.266,3.266,0,0,0,2.821-2.76,4.662,4.662,0,0,0,.231-1.994l-.014-.586a6.1,6.1,0,0,0-.147-1.554l-.1-.556a6.175,6.175,0,0,0-.329-1.4.731.731,0,0,0-.125-.47,4.822,4.822,0,0,0-.448-1.409.4.4,0,0,0-.123-.349,5.749,5.749,0,0,0-.55-1.52l-.093-.256-.486-1.171a1.42,1.42,0,0,0-.277-.574,4.371,4.371,0,0,0-.482-1.048.846.846,0,0,0-.228-.468,6.769,6.769,0,0,0-.663-1.284c-.024-.094-.024-.2-.134-.248a5.273,5.273,0,0,0-.689-1.257.817.817,0,0,0-.248-.43,3.519,3.519,0,0,0-.5-.883,1.175,1.175,0,0,0-.321-.51,5.557,5.557,0,0,0-.688-1.111.745.745,0,0,0-.256-.4,3.376,3.376,0,0,0-.6-.906,1.165,1.165,0,0,0-.339-.5,3.93,3.93,0,0,0-.607-.9,1.085,1.085,0,0,0-.341-.478l-.591-.814a1.2,1.2,0,0,0-.347-.473,4.078,4.078,0,0,0-.7-.938,1.178,1.178,0,0,0-.358-.469l-.617-.815a.754.754,0,0,0-.295-.364,5.079,5.079,0,0,0-.754-.926,1.54,1.54,0,0,0-.43-.507,3,3,0,0,0-.686-.8,1.185,1.185,0,0,0-.388-.444l-.793-.889a.508.508,0,0,0-.263-.281,4.438,4.438,0,0,0-.8-.837.9.9,0,0,0-.352-.367l-.7-.922a.464.464,0,0,0-.109-.352,1.944,1.944,0,0,1,2.206-2.241l.47.137.841.695a.839.839,0,0,0,.335.349,4.488,4.488,0,0,0,.8.836.925.925,0,0,0,.353.37,3.733,3.733,0,0,0,.707.8.823.823,0,0,0,.328.361,5.463,5.463,0,0,0,.819.94,1.158,1.158,0,0,0,.381.464,3.758,3.758,0,0,0,.682.821,1.184,1.184,0,0,0,.376.46l.619.815a.783.783,0,0,0,.293.364,4.529,4.529,0,0,0,.712.935,1.156,1.156,0,0,0,.358.484l.674.933a.61.61,0,0,0,.25.344l.722,1.048a1.168,1.168,0,0,0,.341.506,4.023,4.023,0,0,0,.587.9.574.574,0,0,0,.229.353l.633,1.046.313.494a4.429,4.429,0,0,0,.6,1.03.582.582,0,0,0,.2.363,7.419,7.419,0,0,0,.7,1.271c.024.095.026.2.137.248a5.479,5.479,0,0,0,.6,1.168.88.88,0,0,0,.234.478,4.693,4.693,0,0,0,.486,1.042.882.882,0,0,0,.222.47l.492,1.17a.949.949,0,0,0,.211.471,5.111,5.111,0,0,0,.459,1.176l.157.465.451,1.287A1.39,1.39,0,0,0,274,96.5l.317,1.152.134.459.31,1.429.114.569.217,1.39a1.013,1.013,0,0,0,.089.587l.06,1.638q0,.354-.009.708l-.2,1.877-.187.817c-.165.412-.31.834-.5,1.235a6.04,6.04,0,0,1-4.08,3.353l-.764.122-1.687.058a1.185,1.185,0,0,0-.6-.066l-1.52-.262a.667.667,0,0,0-.464-.124l-1.13-.354A1.414,1.414,0,0,0,263.478,110.86Z" transform="translate(-224.448 -58.184)" fill="#fff"/>
          <path id="Path_450" data-name="Path 450" d="M129.559,343.908l-1.641-.1a.686.686,0,0,0-.47-.119l-1.162-.49-.355-.22-.833-.685-.457-.485-.594-.805a.6.6,0,0,0-.225-.354l-.671-1.389-.094-.266-.425-1.271a.875.875,0,0,0-.123-.47l-.285-1.425-.081-.568-.174-1.534-.038-.574.033-1.759a2.21,2.21,0,0,1,1.38-1.38,2.928,2.928,0,0,1,1.253.108l.505.339a3.54,3.54,0,0,1,.567.942q.021.289.042.579a7.917,7.917,0,0,0,.048,1.658,1.091,1.091,0,0,0,.052.567,6.1,6.1,0,0,0,.144,1.522l.111.589a4.555,4.555,0,0,0,.346,1.287.773.773,0,0,0,.2.473,2.506,2.506,0,0,0,.718,1.167.459.459,0,0,0,.268.267,1.969,1.969,0,0,0,1.171.593,1.331,1.331,0,0,0,.786.077,4.742,4.742,0,0,0,2.709-.9,9.1,9.1,0,0,0,2.088-1.5c.407-.354.843-.681,1.214-1.069a2.277,2.277,0,0,1,2.192-.745l.47.232a3.738,3.738,0,0,1,.7.823.494.494,0,0,0,.12.352,2.383,2.383,0,0,1-.94,2.139,25.171,25.171,0,0,1-4.336,3.136l-1.143.5a16.857,16.857,0,0,1-2.373.683A1.539,1.539,0,0,0,129.559,343.908Z" transform="translate(-108.814 -287.023)" fill="#fff"/>
          <circle id="Ellipse_9" data-name="Ellipse 9" cx="7" cy="7" r="7" transform="translate(23 21)" fill="#aaf4f6"/>
        </g>
      </g>
      <g id="UotDIQ.tif" transform="translate(-1046 2613.005)">
        <g id="Group_297" data-name="Group 297" transform="translate(-182 -333.005)">
          <path id="Path_453" data-name="Path 453" d="M-182-167.36a1.234,1.234,0,0,0,.177-.57,6.988,6.988,0,0,1,6.474-5.13c.689-.013,1.379-.009,2.069,0A1.246,1.246,0,0,1-172-171.822a1.251,1.251,0,0,1-1.264,1.259,25.2,25.2,0,0,0-2.689.061,3.831,3.831,0,0,0-3.546,4.061q-.008,4.371,0,8.743c0,.6.015,1.2-.006,1.8-.009.266.049.35.332.346,1.093-.019,2.186-.009,3.279-.007a1.263,1.263,0,0,1,1.394,1.245,1.259,1.259,0,0,1-1.385,1.254c-1.6,0-3.2-.008-4.8.007a1.5,1.5,0,0,1-1.314-.866Z" transform="translate(182 185.564)" fill="#fff"/>
          <path id="Path_454" data-name="Path 454" d="M211.994-154.1a1.706,1.706,0,0,1-1.783.872c-1.482-.044-2.967-.008-4.45-.015a1.219,1.219,0,0,1-1.2-.873,1.228,1.228,0,0,1,.452-1.385,1.3,1.3,0,0,1,.8-.243c1.093.006,2.187-.017,3.279.013.364.01.411-.108.409-.43q-.018-5.017-.006-10.034a4.135,4.135,0,0,0-3.3-4.32,11.169,11.169,0,0,0-2.945-.227,1.234,1.234,0,0,1-1.188-.845,1.234,1.234,0,0,1,.386-1.373,1.111,1.111,0,0,1,.636-.273,8.879,8.879,0,0,1,5.5,1.194,6.741,6.741,0,0,1,3.345,4.617c0,.016.039.026.06.038Z" transform="translate(-171.994 185.74)" fill="#fff"/>
          <path id="Path_455" data-name="Path 455" d="M-43.958-169.959q-4.354,0-8.708,0a1.253,1.253,0,0,1-1.371-1.386c0-3.645-.008-7.289,0-10.933a9.318,9.318,0,0,1,7.673-8.916,13.657,13.657,0,0,1,5.768.221,9.34,9.34,0,0,1,6.685,8.858q.011,5.35,0,10.7a1.279,1.279,0,0,1-1.46,1.457Zm-.025-2.5c2.407,0,4.815-.006,7.222.007.3,0,.368-.082.362-.37-.018-.937,0-1.874-.007-2.811-.024-2.446.089-4.894-.054-7.337a6.22,6.22,0,0,0-4.547-5.589A13.476,13.476,0,0,0-45-188.833a6.373,6.373,0,0,0-6.536,6.665c0,3.11,0,6.22-.007,9.33,0,.3.062.389.377.387C-48.772-172.466-46.378-172.459-43.983-172.46Z" transform="translate(64.037 202.46)" fill="#fff"/>
          <path id="Path_456" data-name="Path 456" d="M14.982-333.005a5.232,5.232,0,0,1,5.008,5.041A5.242,5.242,0,0,1,14.978-323a5.234,5.234,0,0,1-4.989-5.061A5.246,5.246,0,0,1,14.982-333.005ZM15-330.5a2.309,2.309,0,0,0-2.51,2.46,2.312,2.312,0,0,0,2.47,2.539,2.31,2.31,0,0,0,2.529-2.479A2.312,2.312,0,0,0,15-330.5Z" transform="translate(5.01 333.005)" fill="#fff"/>
          <path id="Path_457" data-name="Path 457" d="M180.117-278.4a3.718,3.718,0,0,1-3.5,3.521,3.725,3.725,0,0,1-3.513-3.471,3.717,3.717,0,0,1,3.521-3.542A3.725,3.725,0,0,1,180.117-278.4Zm-2.013.033a1.337,1.337,0,0,0-1.475-1.511,1.338,1.338,0,0,0-1.511,1.476,1.343,1.343,0,0,0,1.515,1.51A1.331,1.331,0,0,0,178.1-278.369Z" transform="translate(-145.361 285.887)" fill="#fff"/>
          <path id="Path_458" data-name="Path 458" d="M-111.378-281.877a3.72,3.72,0,0,1,3.514,3.509,3.72,3.72,0,0,1-3.52,3.5,3.725,3.725,0,0,1-3.494-3.49A3.717,3.717,0,0,1-111.378-281.877Zm-1.486,3.478a1.337,1.337,0,0,0,1.465,1.521,1.338,1.338,0,0,0,1.521-1.466,1.344,1.344,0,0,0-1.5-1.52A1.33,1.33,0,0,0-112.865-278.4Z" transform="translate(120.122 285.872)" fill="#fff"/>
          <path id="Path_459" data-name="Path 459" d="M-14.524-142.473c-2.394,0-4.789-.006-7.183.008-.315,0-.378-.09-.377-.387.011-3.11.006-6.22.007-9.33a6.373,6.373,0,0,1,6.536-6.665,13.476,13.476,0,0,1,3.993.274A6.22,6.22,0,0,1-7-152.983c.142,2.443.03,4.891.054,7.337.009.937-.011,1.874.007,2.811.006.287-.063.372-.362.37C-9.71-142.479-12.117-142.473-14.524-142.473Z" transform="translate(34.578 172.473)" fill="#aba9f8"/>
          <path id="Path_460" data-name="Path 460" d="M44.514-301A2.312,2.312,0,0,1,47-298.476,2.31,2.31,0,0,1,44.475-296,2.312,2.312,0,0,1,42-298.535,2.309,2.309,0,0,1,44.514-301Z" transform="translate(-24.504 303.496)" fill="#aba9f8"/>
        </g>
      </g>
      <g id="Ik9mBQ.tif" transform="translate(-1528.878 2134)">
        <g id="Group_298" data-name="Group 298" transform="translate(300.878 -188)">
          <path id="Path_461" data-name="Path 461" d="M323.215-188a1.688,1.688,0,0,1,1.066,1.435c.079.547.227,1.084.347,1.625.1.428.368.548.762.33.678-.376,1.35-.763,2.028-1.14a1.379,1.379,0,0,1,1.874.266c.81.82,1.627,1.633,2.438,2.451a1.33,1.33,0,0,1,.243,1.8c-.376.678-.759,1.353-1.135,2.031-.244.44-.128.685.369.795l1.826.4a1.35,1.35,0,0,1,1.179,1.471c0,.958.008,1.916-.005,2.874,0,.243.038.352.312.327.3-.027.611,0,.916-.008a1.381,1.381,0,0,1,1.366.835q1.957,3.916,3.9,7.838a1.327,1.327,0,0,1-1.286,1.991q-14.016,0-28.032,0c-1.166,0-2.333.009-3.5-.007-.274,0-.341.074-.34.343q.012,7,0,14c0,.333.136.334.387.334q12.954-.007,25.908.005c.316,0,.381-.079.38-.386q-.017-5.769-.007-11.538a1.331,1.331,0,0,1,.872-1.331,1.312,1.312,0,0,1,1.472.385,1.31,1.31,0,0,1,.322.877q0,6.644,0,13.287a1.453,1.453,0,0,1-1,1.363H305.8a1.71,1.71,0,0,1-.929-1.651c.025-5.092.012-10.185.016-15.277,0-.258.016-.43-.354-.412-.775.038-1.554.026-2.331.008a1.311,1.311,0,0,1-1.189-1.888c1.326-2.693,2.677-5.373,4.027-8.055a1.26,1.26,0,0,1,1.18-.716c.347-.006.695-.017,1.04,0,.243.015.3-.072.294-.3-.012-.985-.008-1.97,0-2.956A1.338,1.338,0,0,1,308.705-178q.954-.208,1.907-.417c.426-.094.549-.37.331-.762-.383-.69-.774-1.375-1.158-2.064a1.332,1.332,0,0,1,.257-1.8q1.219-1.224,2.443-2.444a1.4,1.4,0,0,1,1.942-.234c.644.378,1.3.744,1.948,1.108.405.227.667.1.77-.37.116-.527.257-1.051.339-1.584A1.7,1.7,0,0,1,318.55-188Zm14.165,22.648c-.872-1.743-1.729-3.446-2.573-5.154-.094-.189-.231-.164-.379-.164h-2.5q-12.241,0-24.481-.008a.556.556,0,0,0-.591.37c-.457.962-.947,1.908-1.423,2.861-.345.688-.688,1.377-1.047,2.095Zm-20.224-7.986c-.029-.142-.05-.249-.073-.355a3.808,3.808,0,0,1,3.35-4.863,3.767,3.767,0,0,1,4.172,2.616,4.254,4.254,0,0,1,.054,2.3c-.063.24-.017.31.239.307,1.027-.012,2.055-.025,3.082,0a11.039,11.039,0,0,0,3.253-.336c.216-.06.334-.118.32-.375a12.757,12.757,0,0,1,0-1.291c.01-.217-.079-.292-.27-.33-.557-.111-1.112-.23-1.667-.353a1.344,1.344,0,0,1-1.077-.983,6.378,6.378,0,0,0-.49-1.233,1.461,1.461,0,0,1,.045-1.538c.345-.585.663-1.185,1.006-1.771a.284.284,0,0,0-.057-.422c-.358-.327-.653-.863-1.058-.96-.384-.092-.809.393-1.229.6-.012.006-.024.014-.036.021-1.267.689-1.256.87-2.882.244a2.344,2.344,0,0,1-1.789-2.182.316.316,0,0,0-.005-.041c-.22-1.053-.22-1.053-1.316-1.054a3.581,3.581,0,0,1-.458,0c-.243-.032-.343.066-.387.3-.1.531-.227,1.056-.336,1.585a1.362,1.362,0,0,1-1.026,1.132,6.075,6.075,0,0,0-1.232.494,1.413,1.413,0,0,1-1.463-.036c-.589-.339-1.189-.657-1.773-1-.2-.117-.324-.136-.489.054a8.937,8.937,0,0,1-.794.8.345.345,0,0,0-.078.52c.363.606.7,1.23,1.041,1.847a1.325,1.325,0,0,1,.029,1.313,7.386,7.386,0,0,0-.529,1.307A1.363,1.363,0,0,1,312.1-176c-.529.108-1.055.234-1.585.337-.209.04-.309.115-.3.35.02.429.02.861,0,1.291-.011.233.086.3.294.354a10.913,10.913,0,0,0,2.919.344C314.659-173.369,315.894-173.338,317.156-173.338Zm3.7,0a1.5,1.5,0,0,0,1.451-1.343,1.7,1.7,0,0,0-1.416-1.411,1.676,1.676,0,0,0-1.429,1.437A1.5,1.5,0,0,0,320.854-173.338Z" transform="translate(-300.878 188)" fill="#fff"/>
          <path id="Path_462" data-name="Path 462" d="M419.867-144.107c-1.262,0-2.5-.031-3.729.01a10.914,10.914,0,0,1-2.919-.344c-.208-.05-.3-.122-.294-.354.02-.429.02-.861,0-1.291-.011-.236.089-.31.3-.35.53-.1,1.056-.229,1.585-.337a1.363,1.363,0,0,0,1.138-1.02,7.387,7.387,0,0,1,.529-1.307,1.325,1.325,0,0,0-.029-1.313c-.346-.617-.678-1.241-1.042-1.847a.345.345,0,0,1,.078-.52,8.943,8.943,0,0,0,.794-.8c.165-.19.292-.171.489-.054.584.346,1.184.665,1.773,1a1.413,1.413,0,0,0,1.463.036,6.076,6.076,0,0,1,1.232-.494,1.362,1.362,0,0,0,1.026-1.132c.11-.529.238-1.054.336-1.585.044-.237.144-.335.387-.3a3.587,3.587,0,0,0,.458,0c1.1,0,1.1,0,1.316,1.054a.316.316,0,0,1,.005.041,2.344,2.344,0,0,0,1.789,2.182c1.626.626,1.615.445,2.882-.244.012-.007.023-.015.036-.021.42-.207.845-.692,1.229-.6.405.1.7.632,1.058.96a.284.284,0,0,1,.057.422c-.343.586-.661,1.186-1.006,1.771a1.461,1.461,0,0,0-.045,1.538,6.381,6.381,0,0,1,.49,1.233,1.344,1.344,0,0,0,1.077.983c.555.122,1.11.241,1.667.353.192.038.28.113.27.33a12.757,12.757,0,0,0,0,1.291c.014.257-.1.315-.32.375a11.039,11.039,0,0,1-3.253.336c-1.027-.027-2.055-.014-3.082,0-.256,0-.3-.067-.239-.307a4.254,4.254,0,0,0-.054-2.3,3.767,3.767,0,0,0-4.172-2.616,3.808,3.808,0,0,0-3.35,4.864C419.817-144.356,419.838-144.249,419.867-144.107Z" transform="translate(-403.589 158.769)" fill="#9fcdf9"/>
        </g>
      </g>
      <text id="LEARNING" transform="translate(-1252 2218)" fill="#00dce8" font-size="20" font-family="Quicksand-SemiBold, Quicksand" font-weight="600" letter-spacing="0.03em"><tspan x="0" y="0">Learning</tspan></text>
    </g>
  </g>
</svg>
