<svg xmlns="http://www.w3.org/2000/svg" width="798" height="402" viewBox="0 0 798 402">
  <g id="products-tab-administration" transform="translate(1737 -1938)">
    <g id="Group_287" data-name="Group 287" transform="translate(-1918 -2715)">
      <rect id="Rectangle_27" data-name="Rectangle 27" width="105" height="41" rx="20.5" transform="translate(576 4958)" fill="#fff" opacity="0.897"/>
      <rect id="Rectangle_70" data-name="Rectangle 70" width="133" height="41" rx="20.5" transform="matrix(1, 0.017, -0.017, 1, 796.366, 4957.087)" fill="#fff" opacity="0.897"/>
      <rect id="Rectangle_43" data-name="Rectangle 43" width="142" height="41" rx="20.5" transform="translate(576 4893)" fill="#fff" opacity="0.897"/>
      <rect id="Rectangle_69" data-name="Rectangle 69" width="91" height="41" rx="20.5" transform="translate(796 4893)" fill="#fff" opacity="0.897"/>
      <rect id="Rectangle_28" data-name="Rectangle 28" width="161" height="41" rx="20.5" transform="translate(576 4698)" fill="#fff" opacity="0.897"/>
      <rect id="Rectangle_66" data-name="Rectangle 66" width="168" height="41" rx="20.5" transform="translate(796 4698)" fill="#fff" opacity="0.897"/>
      <rect id="Rectangle_41" data-name="Rectangle 41" width="154" height="41" rx="20.5" transform="translate(576 4828)" fill="#fff" opacity="0.897"/>
      <rect id="Rectangle_68" data-name="Rectangle 68" width="120" height="41" rx="20.5" transform="translate(796 4828)" fill="#fff" opacity="0.897"/>
      <rect id="Rectangle_29" data-name="Rectangle 29" width="190" height="41" rx="20.5" transform="translate(576 4763)" fill="#fff" opacity="0.897"/>
      <rect id="Rectangle_67" data-name="Rectangle 67" width="183" height="41" rx="20.5" transform="translate(796 4763)" fill="#fff" opacity="0.897"/>
      <text id="Single_Sign-In" data-name="Single Sign-In" transform="translate(598 4918)" fill="#8787f6" font-size="14" font-family="Raleway-Medium, Raleway" font-weight="500" letter-spacing="0.03em"><tspan x="0" y="0">Single Sign-In</tspan></text>
      <text id="AI_Tutor" data-name="AI Tutor" transform="translate(818 4918)" fill="#8787f6" font-size="14" font-family="Raleway-Medium, Raleway" font-weight="500" letter-spacing="0.03em"><tspan x="0" y="0">AI Tutor</tspan></text>
      <text id="Tablet_Management" data-name="Tablet Management" transform="translate(598 4788)" fill="#8787f6" font-size="14" font-family="Raleway-Medium, Raleway" font-weight="500" letter-spacing="0.03em"><tspan x="0" y="0">Tablet Management</tspan></text>
      <text id="Lecture_Annotation" data-name="Lecture Annotation" transform="translate(818 4788)" fill="#8787f6" font-size="14" font-family="Raleway-Medium, Raleway" font-weight="500" letter-spacing="0.03em"><tspan x="0" y="0">Lecture Annotation</tspan></text>
      <text id="Homework_Tool" data-name="Homework Tool" transform="translate(598 4853)" fill="#8787f6" font-size="14" font-family="Raleway-Medium, Raleway" font-weight="500" letter-spacing="0.03em"><tspan x="0" y="0">Homework Tool</tspan></text>
      <text id="Exam_Tools" data-name="Exam Tools" transform="translate(818 4853)" fill="#8787f6" font-size="14" font-family="Raleway-Medium, Raleway" font-weight="500" letter-spacing="0.03em"><tspan x="0" y="0">Exam Tools</tspan></text>
      <text id="Chat_Tool" data-name="Chat Tool" transform="translate(598 4983)" fill="#8787f6" font-size="14" font-family="Raleway-Medium, Raleway" font-weight="500" letter-spacing="0.03em"><tspan x="0" y="0">Chat Tool</tspan></text>
      <text id="Media_Player" data-name="Media Player" transform="translate(818 4983)" fill="#8787f6" font-size="14" font-family="Raleway-Medium, Raleway" font-weight="500" letter-spacing="0.03em"><tspan x="0" y="0">Media Player</tspan></text>
      <text id="Lesson_Planning" data-name="Lesson Planning" transform="translate(598 4723)" fill="#8787f6" font-size="14" font-family="Raleway-Medium, Raleway" font-weight="500" letter-spacing="0.03em"><tspan x="0" y="0">Lesson Planning</tspan></text>
      <text id="Parental_Updates" data-name="Parental Updates" transform="translate(818 4723)" fill="#8787f6" font-size="14" font-family="Raleway-Medium, Raleway" font-weight="500" letter-spacing="0.03em"><tspan x="0" y="0">Parental Updates</tspan></text>
    </g>
    <g id="Group_320" data-name="Group 320" transform="translate(-360 6)">
      <circle id="Ellipse_4" data-name="Ellipse 4" cx="168.5" cy="168.5" r="168.5" transform="translate(-1377 1967)" fill="#8787f6" opacity="0.072"/>
      <circle id="Ellipse_3" data-name="Ellipse 3" cx="35" cy="35" r="35" transform="translate(-1243 2264)" fill="#00d5e6"/>
      <circle id="Ellipse_5" data-name="Ellipse 5" cx="54" cy="54" r="54" transform="translate(-1262 2082)" fill="#8787f6"/>
      <circle id="Ellipse_6" data-name="Ellipse 6" cx="35" cy="35" r="35" transform="translate(-1243 1932)" fill="#568ce0"/>
      <g id="UOCYc9.tif" transform="translate(-1239 2315.648)">
        <g id="Group_296" data-name="Group 296" transform="translate(10 -36.648)">
          <path id="Path_445" data-name="Path 445" d="M13.284,134.528l-.815-.51-.107-.079-.7-.559-.259-.247a6.047,6.047,0,0,1-1.4-2.37v-1.641c.158-.132.145-.336.2-.507a7.5,7.5,0,0,1,2-2.934c.518-.5,1.1-.93,1.655-1.382L15,123.556l2.636-1.379.71-.3,2-.77a1.8,1.8,0,0,0,.565-.189,2.191,2.191,0,0,1,.87.1l.354.246a2.027,2.027,0,0,1,.363.665l.05.388a1.444,1.444,0,0,1-.585.975,7.837,7.837,0,0,1-.724.339,2.045,2.045,0,0,0-.653.216,14.19,14.19,0,0,0-1.972.775,3.882,3.882,0,0,0-.831.359A15.116,15.116,0,0,0,14.4,127.01a5.755,5.755,0,0,0-1.413,1.575,2.313,2.313,0,0,0-.344,1.6.5.5,0,0,0,.082.329,1.679,1.679,0,0,0,.464.826.607.607,0,0,0,.244.277,2.144,2.144,0,0,0,.668.551.378.378,0,0,0,.244.163,2.2,2.2,0,0,0,.726.406.573.573,0,0,0,.344.161,3.633,3.633,0,0,0,.893.371l.341.108a3.069,3.069,0,0,0,.9.261.439.439,0,0,0,.325.085,3.675,3.675,0,0,0,1.071.236.448.448,0,0,0,.329.073,4.536,4.536,0,0,0,1.066.166.9.9,0,0,0,.412.07,5.189,5.189,0,0,0,1.065.1.837.837,0,0,0,.412.054l1.062.057a.792.792,0,0,0,.414.032l1.229.016.411,0,1.23-.01.412,0a8.054,8.054,0,0,0,1.311-.075l.476-.019a8.1,8.1,0,0,0,1.33-.132l.469-.027,1.334-.16.494-.071a7.864,7.864,0,0,0,1.477-.221,1,1,0,0,0,.489-.079,7.294,7.294,0,0,0,1.478-.274l.562-.1a10.962,10.962,0,0,0,1.571-.385,1.416,1.416,0,0,0,.573-.141,2.076,2.076,0,0,1,.877.077l.354.237a2.471,2.471,0,0,1,.4.66l.029.4a1.5,1.5,0,0,1-1.327,1.3,1.686,1.686,0,0,0-.544.115L36.742,136a.987.987,0,0,0-.492.1l-1.475.263-.563.093-1.406.217a.888.888,0,0,0-.491.064,8.811,8.811,0,0,0-1.4.169l-.453.025-1.266.1-.494.042-1.228.039a1.081,1.081,0,0,0-.492.02,6.453,6.453,0,0,0-1.147.011.978.978,0,0,0-.5-.012,6.139,6.139,0,0,0-1.144-.043l-.411-.013a5.354,5.354,0,0,0-1.148-.08l-.412-.056-1.064-.1-.412-.069-.972-.149-.408-.067-1-.2-.33-.08-.983-.247-.159-.043-1.06-.342-.34-.114-.9-.349-.251-.127-.807-.392Z" transform="translate(-10 -107.986)" fill="#fff"/>
          <path id="Path_446" data-name="Path 446" d="M365.887,101.769c-.161.132-.141.336-.2.507a8.549,8.549,0,0,1-2.914,3.849c-.547.449-1.152.812-1.729,1.217l-.573.178a2.145,2.145,0,0,1-.8-.181l-.352-.313a2.025,2.025,0,0,1-.271-.661q.008-.247.017-.494a1.535,1.535,0,0,1,.474-.7c.253-.18.513-.351.769-.525a7.963,7.963,0,0,0,2.288-1.875,2.078,2.078,0,0,0,.5-.917,1.684,1.684,0,0,0,.081-1.314.635.635,0,0,0-.159-.427,1.47,1.47,0,0,0-.433-.638.807.807,0,0,0-.315-.311,2.366,2.366,0,0,0-.732-.528.366.366,0,0,0-.25-.15,2.572,2.572,0,0,0-.821-.4.308.308,0,0,0-.238-.1,3.113,3.113,0,0,0-.9-.329.841.841,0,0,0-.416-.137,3.845,3.845,0,0,0-.9-.242l-.33-.082A4.051,4.051,0,0,0,356.7,97a.66.66,0,0,0-.413-.075,3.786,3.786,0,0,0-1.067-.159.7.7,0,0,0-.411-.069,4.75,4.75,0,0,0-1.065-.1.713.713,0,0,0-.412-.057,1.966,1.966,0,0,1-.9-.28l-.165-.158a2.306,2.306,0,0,1-.337-.731q0-.205.006-.41a1.517,1.517,0,0,1,1.065-1.07l.411-.006a5.82,5.82,0,0,0,1.144.1.471.471,0,0,0,.333.058l1.056.156.4.074,1.006.184a.566.566,0,0,0,.329.08l.983.246.152.041,1.068.338.34.112.9.344a.243.243,0,0,0,.21.095l.851.413c.029.074.1.075.162.089l.8.479a.9.9,0,0,0,.351.244l.647.523.249.229a5.748,5.748,0,0,1,1.487,2.6Z" transform="translate(-323.887 -83.177)" fill="#fff"/>
          <path id="Path_447" data-name="Path 447" d="M150.512-35.758a12.722,12.722,0,0,1,1.969-.767l.54-.088a6.587,6.587,0,0,1,1.181-.014l.4.061.91.314a.43.43,0,0,0,.251.144l.571.417.333.323.477.585a.429.429,0,0,0,.164.244l.477.9.068.172.3.808.129.419.2.894a.868.868,0,0,0,.079.411l.12,1.08.039.4q-.01.616-.021,1.232a1.547,1.547,0,0,1-.966.966,1.7,1.7,0,0,1-1.058-.178l-.173-.135a2.478,2.478,0,0,1-.4-.66l-.029-.405a4.643,4.643,0,0,0-.046-1.156L156-30.2a3.319,3.319,0,0,0-.148-1.066.457.457,0,0,0-.071-.333,2.659,2.659,0,0,0-.316-.992.644.644,0,0,0-.181-.343,1.391,1.391,0,0,0-.5-.629.6.6,0,0,0-.33-.236,1.487,1.487,0,0,0-.984-.255.746.746,0,0,0-.411.007,4.14,4.14,0,0,0-2.053.807,1.308,1.308,0,0,0-.18.087,17.542,17.542,0,0,0-4.259,4.344,26.871,26.871,0,0,0-2.4,3.618,5.093,5.093,0,0,0-.555.977,21.716,21.716,0,0,0-1.325,2.549,3.1,3.1,0,0,0-.388.818,20.213,20.213,0,0,0-.966,2.163,2.893,2.893,0,0,0-.269.706A13.391,13.391,0,0,0,139.927-16a2.141,2.141,0,0,0-.225.657,11.034,11.034,0,0,0-.524,1.723,1.338,1.338,0,0,0-.158.572,2.227,2.227,0,0,0-.126.335,1.382,1.382,0,0,1-1.34,1.19l-.406-.064a2.485,2.485,0,0,1-.66-.485l-.152-.271a1.9,1.9,0,0,1-.008-1.033,1.326,1.326,0,0,0,.159-.574l.538-1.733.193-.646.669-1.887a2.305,2.305,0,0,0,.249-.652l.9-2.137a2.756,2.756,0,0,0,.335-.734l1.243-2.467a5.248,5.248,0,0,0,.486-.893l2-3.206,1.04-1.468c.493-.6.977-1.2,1.48-1.787a22.018,22.018,0,0,1,3.925-3.606Z" transform="translate(-125.904 36.648)" fill="#fff"/>
          <path id="Path_448" data-name="Path 448" d="M89,.133l-.426-.486-.13-.336-.2-.977a.514.514,0,0,0-.07-.329l-.115-1.084-.046-.392q0-.615,0-1.231l.052-.494.273-1.475.2-.56a4.623,4.623,0,0,1,2.5-2.565l.634-.179,1.335-.151.411.011,1.066.152.33.079.982.268c.061.083.153.081.243.087l.811.323.409.2.631.3a.643.643,0,0,0,.31.171,2.21,2.21,0,0,1,.542.637l.09.324a1.356,1.356,0,0,1-1.474,1.493l-.33-.081-.724-.352a.621.621,0,0,0-.334-.173,3.008,3.008,0,0,0-.908-.4c-.058-.086-.151-.084-.238-.1a3.03,3.03,0,0,0-.993-.294l-.412-.072a2.311,2.311,0,0,0-2.381,1.064,3.292,3.292,0,0,0-.469,1.864q0,.206,0,.412a5.163,5.163,0,0,0,.094,1.083l.064.393a4.147,4.147,0,0,0,.214.99.553.553,0,0,0,.07.329,1.745,1.745,0,0,1-.077,1c-.273.574-.773.8-1.618.714Z" transform="translate(-81.616 12.302)" fill="#fff"/>
          <path id="Path_449" data-name="Path 449" d="M260.309,98.834l-.813-.36-.16-.065-.991-.5a.429.429,0,0,0-.255-.131,3.475,3.475,0,0,0-.732-.428.4.4,0,0,0-.25-.15,2.7,2.7,0,0,0-.637-.415.868.868,0,0,0-.35-.234,3.887,3.887,0,0,0-.728-.52l-.256-.2-.567-.436a.869.869,0,0,0-.328-.257,2.6,2.6,0,0,0-.571-.483.9.9,0,0,0-.323-.277,2.191,2.191,0,0,1-.407-.712l-.026-.32a1.392,1.392,0,0,1,1.235-1.27l.413.029.635.347a1.065,1.065,0,0,0,.353.306,3.013,3.013,0,0,0,.643.53.548.548,0,0,0,.258.212,2.148,2.148,0,0,0,.551.428.817.817,0,0,0,.34.255,2.583,2.583,0,0,0,.66.476.826.826,0,0,0,.333.236,2.53,2.53,0,0,0,.65.421l.336.217a3.628,3.628,0,0,0,.817.444.4.4,0,0,0,.249.14,3.1,3.1,0,0,0,.814.362.592.592,0,0,0,.334.137,2.62,2.62,0,0,0,.9.265.623.623,0,0,0,.412.083,2.529,2.529,0,0,0,1.147.037,2.286,2.286,0,0,0,1.974-1.932,3.264,3.264,0,0,0,.161-1.4l-.01-.41a4.267,4.267,0,0,0-.1-1.088l-.072-.389a4.321,4.321,0,0,0-.231-.983.512.512,0,0,0-.087-.329,3.378,3.378,0,0,0-.313-.986.277.277,0,0,0-.086-.244,4.025,4.025,0,0,0-.385-1.064L264.777,88l-.34-.82a.994.994,0,0,0-.194-.4,3.059,3.059,0,0,0-.338-.733.593.593,0,0,0-.159-.328,4.738,4.738,0,0,0-.464-.9c-.017-.065-.017-.14-.094-.174a3.691,3.691,0,0,0-.482-.88.572.572,0,0,0-.174-.3,2.463,2.463,0,0,0-.351-.618.822.822,0,0,0-.224-.357,3.89,3.89,0,0,0-.481-.778.522.522,0,0,0-.179-.283,2.364,2.364,0,0,0-.419-.634.816.816,0,0,0-.237-.35,2.75,2.75,0,0,0-.425-.632.759.759,0,0,0-.239-.334l-.414-.57a.838.838,0,0,0-.243-.331,2.855,2.855,0,0,0-.488-.656.825.825,0,0,0-.25-.328l-.432-.57a.528.528,0,0,0-.206-.255,3.554,3.554,0,0,0-.528-.648,1.078,1.078,0,0,0-.3-.355,2.1,2.1,0,0,0-.48-.559.829.829,0,0,0-.272-.31l-.555-.622a.356.356,0,0,0-.184-.2,3.106,3.106,0,0,0-.563-.586.628.628,0,0,0-.247-.257l-.491-.645a.325.325,0,0,0-.076-.247,1.361,1.361,0,0,1,1.544-1.569l.329.1.589.486a.588.588,0,0,0,.235.245,3.141,3.141,0,0,0,.562.585.648.648,0,0,0,.247.259,2.614,2.614,0,0,0,.495.559.576.576,0,0,0,.229.253,3.823,3.823,0,0,0,.573.658.81.81,0,0,0,.267.325,2.631,2.631,0,0,0,.478.575.829.829,0,0,0,.263.322l.434.571a.548.548,0,0,0,.205.255,3.17,3.17,0,0,0,.5.654.809.809,0,0,0,.251.339l.472.653a.427.427,0,0,0,.175.241l.505.733a.818.818,0,0,0,.239.354,2.816,2.816,0,0,0,.411.633.4.4,0,0,0,.161.247l.443.732.219.346a3.1,3.1,0,0,0,.42.721.407.407,0,0,0,.142.254,5.19,5.19,0,0,0,.487.89c.017.066.018.141.1.173a3.834,3.834,0,0,0,.418.818.616.616,0,0,0,.164.335,3.285,3.285,0,0,0,.34.729.617.617,0,0,0,.155.329l.345.819a.665.665,0,0,0,.147.329,3.576,3.576,0,0,0,.321.823l.11.326.315.9a.973.973,0,0,0,.144.438l.222.806.094.321.217,1,.08.4.152.973a.709.709,0,0,0,.062.411l.042,1.147-.006.5-.137,1.314-.131.572c-.116.289-.217.584-.349.864a4.228,4.228,0,0,1-2.856,2.347l-.535.085-1.181.04a.83.83,0,0,0-.418-.046l-1.064-.183a.467.467,0,0,0-.325-.087L260.749,99A.989.989,0,0,0,260.309,98.834Z" transform="translate(-232.987 -61.961)" fill="#fff"/>
          <path id="Path_450" data-name="Path 450" d="M127.27,339.732l-1.149-.068a.48.48,0,0,0-.329-.083l-.814-.343-.248-.154-.583-.48-.32-.34-.416-.564a.421.421,0,0,0-.157-.248l-.47-.972-.066-.187-.3-.89a.613.613,0,0,0-.086-.329l-.2-1-.057-.4-.122-1.074-.027-.4.023-1.231a1.547,1.547,0,0,1,.966-.966,2.049,2.049,0,0,1,.877.076l.354.238a2.477,2.477,0,0,1,.4.66l.029.405a5.542,5.542,0,0,0,.033,1.161.764.764,0,0,0,.036.4,4.269,4.269,0,0,0,.1,1.065l.078.412a3.188,3.188,0,0,0,.242.9.541.541,0,0,0,.142.331,1.754,1.754,0,0,0,.5.817.322.322,0,0,0,.187.187,1.378,1.378,0,0,0,.82.415.931.931,0,0,0,.55.054,3.32,3.32,0,0,0,1.9-.631,6.372,6.372,0,0,0,1.461-1.051c.285-.248.59-.477.85-.748a1.594,1.594,0,0,1,1.534-.521l.329.162a2.616,2.616,0,0,1,.491.576.346.346,0,0,0,.084.246,1.668,1.668,0,0,1-.658,1.5,17.618,17.618,0,0,1-3.035,2.2l-.8.351a11.8,11.8,0,0,1-1.661.478A1.077,1.077,0,0,0,127.27,339.732Z" transform="translate(-112.749 -299.913)" fill="#fff"/>
          <circle id="Ellipse_9" data-name="Ellipse 9" cx="4.9" cy="4.9" r="4.9" transform="translate(16.1 14.7)" fill="#aaf4f6"/>
        </g>
      </g>
      <g id="UotDIQ.tif" transform="translate(-1056 2444.005)">
        <g id="Group_297" data-name="Group 297" transform="translate(-182 -333.005)">
          <path id="Path_453" data-name="Path 453" d="M-182-164.506a1.852,1.852,0,0,0,.266-.855,10.481,10.481,0,0,1,9.71-7.695c1.034-.02,2.069-.013,3.1,0A1.869,1.869,0,0,1-167-171.2a1.876,1.876,0,0,1-1.9,1.889,37.8,37.8,0,0,0-4.034.092,5.747,5.747,0,0,0-5.318,6.092q-.012,6.557,0,13.115c0,.9.023,1.8-.009,2.693-.014.4.073.525.5.518,1.639-.028,3.279-.013,4.918-.011a1.894,1.894,0,0,1,2.091,1.867,1.888,1.888,0,0,1-2.078,1.881c-2.4.005-4.8-.012-7.2.011a2.249,2.249,0,0,1-1.971-1.3Z" transform="translate(182 191.811)" fill="#fff"/>
          <path id="Path_454" data-name="Path 454" d="M216.994-144.519a2.559,2.559,0,0,1-2.675,1.309c-2.223-.066-4.45-.012-6.676-.022a1.828,1.828,0,0,1-1.807-1.309,1.842,1.842,0,0,1,.677-2.077,1.951,1.951,0,0,1,1.207-.365c1.64.009,3.28-.025,4.919.02.545.015.616-.162.614-.645q-.027-7.525-.01-15.051a6.2,6.2,0,0,0-4.946-6.479,16.753,16.753,0,0,0-4.417-.341,1.851,1.851,0,0,1-1.782-1.267,1.852,1.852,0,0,1,.579-2.06,1.666,1.666,0,0,1,.953-.409,13.319,13.319,0,0,1,8.254,1.791A10.111,10.111,0,0,1,216.9-164.5c0,.024.059.039.09.058Z" transform="translate(-156.994 191.98)" fill="#fff"/>
          <path id="Path_455" data-name="Path 455" d="M-38.917-159.241q-6.531,0-13.061,0a1.88,1.88,0,0,1-2.056-2.079c0-5.467-.012-10.933,0-16.4a13.977,13.977,0,0,1,11.51-13.374,20.486,20.486,0,0,1,8.652.331,14.01,14.01,0,0,1,10.028,13.288q.017,8.024,0,16.049a1.919,1.919,0,0,1-2.191,2.186Zm-.038-3.751c3.611,0,7.222-.009,10.833.011.449,0,.551-.124.543-.555-.028-1.4,0-2.811-.011-4.216-.036-3.669.133-7.341-.081-11.005a9.331,9.331,0,0,0-6.82-8.384,20.214,20.214,0,0,0-5.99-.411,9.56,9.56,0,0,0-9.8,10c0,4.665.006,9.33-.01,13.995,0,.445.094.584.566.581C-46.138-163-42.546-162.991-38.955-162.992Z" transform="translate(69.035 207.992)" fill="#fff"/>
          <path id="Path_456" data-name="Path 456" d="M17.479-333.005a7.848,7.848,0,0,1,7.513,7.562A7.863,7.863,0,0,1,17.473-318,7.851,7.851,0,0,1,9.99-325.6,7.869,7.869,0,0,1,17.479-333.005Zm.028,3.751a3.464,3.464,0,0,0-3.765,3.69,3.468,3.468,0,0,0,3.7,3.808,3.465,3.465,0,0,0,3.793-3.719A3.467,3.467,0,0,0,17.506-329.254Z" transform="translate(12.509 333.005)" fill="#fff"/>
          <path id="Path_457" data-name="Path 457" d="M183.623-276.656a5.576,5.576,0,0,1-5.251,5.282,5.588,5.588,0,0,1-5.269-5.207,5.576,5.576,0,0,1,5.282-5.313A5.588,5.588,0,0,1,183.623-276.656Zm-3.02.05a2.006,2.006,0,0,0-2.212-2.266,2.007,2.007,0,0,0-2.266,2.214,2.015,2.015,0,0,0,2.273,2.265A2,2,0,0,0,180.6-276.606Z" transform="translate(-131.489 287.884)" fill="#fff"/>
          <path id="Path_458" data-name="Path 458" d="M-109.629-281.877a5.581,5.581,0,0,1,5.271,5.263,5.579,5.579,0,0,1-5.28,5.257,5.588,5.588,0,0,1-5.24-5.236A5.576,5.576,0,0,1-109.629-281.877Zm-2.229,5.217a2.006,2.006,0,0,0,2.2,2.282,2.007,2.007,0,0,0,2.282-2.2,2.016,2.016,0,0,0-2.257-2.28A2,2,0,0,0-111.858-276.66Z" transform="translate(122.744 287.869)" fill="#fff"/>
          <path id="Path_459" data-name="Path 459" d="M-10.744-134.275c-3.591,0-7.183-.009-10.774.013-.472,0-.567-.136-.566-.581.016-4.665.009-9.33.01-13.995a9.56,9.56,0,0,1,9.8-10,20.214,20.214,0,0,1,5.99.411A9.331,9.331,0,0,1,.54-150.04c.214,3.665.045,7.337.081,11.005.014,1.405-.017,2.811.011,4.216.008.431-.094.557-.543.555C-3.522-134.285-7.133-134.276-10.744-134.275Z" transform="translate(40.824 179.276)" fill="#aba9f8"/>
          <path id="Path_460" data-name="Path 460" d="M45.769-301a3.467,3.467,0,0,1,3.734,3.78A3.465,3.465,0,0,1,45.71-293.5a3.468,3.468,0,0,1-3.7-3.808A3.464,3.464,0,0,1,45.769-301Z" transform="translate(-15.754 304.747)" fill="#aba9f8"/>
        </g>
      </g>
      <g id="Ik9mBQ.tif" transform="translate(-1528.878 2134)">
        <g id="Group_298" data-name="Group 298" transform="translate(300.878 -188)">
          <path id="Path_461" data-name="Path 461" d="M323.215-188a1.688,1.688,0,0,1,1.066,1.435c.079.547.227,1.084.347,1.625.1.428.368.548.762.33.678-.376,1.35-.763,2.028-1.14a1.379,1.379,0,0,1,1.874.266c.81.82,1.627,1.633,2.438,2.451a1.33,1.33,0,0,1,.243,1.8c-.376.678-.759,1.353-1.135,2.031-.244.44-.128.685.369.795l1.826.4a1.35,1.35,0,0,1,1.179,1.471c0,.958.008,1.916-.005,2.874,0,.243.038.352.312.327.3-.027.611,0,.916-.008a1.381,1.381,0,0,1,1.366.835q1.957,3.916,3.9,7.838a1.327,1.327,0,0,1-1.286,1.991q-14.016,0-28.032,0c-1.166,0-2.333.009-3.5-.007-.274,0-.341.074-.34.343q.012,7,0,14c0,.333.136.334.387.334q12.954-.007,25.908.005c.316,0,.381-.079.38-.386q-.017-5.769-.007-11.538a1.331,1.331,0,0,1,.872-1.331,1.312,1.312,0,0,1,1.472.385,1.31,1.31,0,0,1,.322.877q0,6.644,0,13.287a1.453,1.453,0,0,1-1,1.363H305.8a1.71,1.71,0,0,1-.929-1.651c.025-5.092.012-10.185.016-15.277,0-.258.016-.43-.354-.412-.775.038-1.554.026-2.331.008a1.311,1.311,0,0,1-1.189-1.888c1.326-2.693,2.677-5.373,4.027-8.055a1.26,1.26,0,0,1,1.18-.716c.347-.006.695-.017,1.04,0,.243.015.3-.072.294-.3-.012-.985-.008-1.97,0-2.956A1.338,1.338,0,0,1,308.705-178q.954-.208,1.907-.417c.426-.094.549-.37.331-.762-.383-.69-.774-1.375-1.158-2.064a1.332,1.332,0,0,1,.257-1.8q1.219-1.224,2.443-2.444a1.4,1.4,0,0,1,1.942-.234c.644.378,1.3.744,1.948,1.108.405.227.667.1.77-.37.116-.527.257-1.051.339-1.584A1.7,1.7,0,0,1,318.55-188Zm14.165,22.648c-.872-1.743-1.729-3.446-2.573-5.154-.094-.189-.231-.164-.379-.164h-2.5q-12.241,0-24.481-.008a.556.556,0,0,0-.591.37c-.457.962-.947,1.908-1.423,2.861-.345.688-.688,1.377-1.047,2.095Zm-20.224-7.986c-.029-.142-.05-.249-.073-.355a3.808,3.808,0,0,1,3.35-4.863,3.767,3.767,0,0,1,4.172,2.616,4.254,4.254,0,0,1,.054,2.3c-.063.24-.017.31.239.307,1.027-.012,2.055-.025,3.082,0a11.039,11.039,0,0,0,3.253-.336c.216-.06.334-.118.32-.375a12.757,12.757,0,0,1,0-1.291c.01-.217-.079-.292-.27-.33-.557-.111-1.112-.23-1.667-.353a1.344,1.344,0,0,1-1.077-.983,6.378,6.378,0,0,0-.49-1.233,1.461,1.461,0,0,1,.045-1.538c.345-.585.663-1.185,1.006-1.771a.284.284,0,0,0-.057-.422c-.358-.327-.653-.863-1.058-.96-.384-.092-.809.393-1.229.6-.012.006-.024.014-.036.021-1.267.689-1.256.87-2.882.244a2.344,2.344,0,0,1-1.789-2.182.316.316,0,0,0-.005-.041c-.22-1.053-.22-1.053-1.316-1.054a3.581,3.581,0,0,1-.458,0c-.243-.032-.343.066-.387.3-.1.531-.227,1.056-.336,1.585a1.362,1.362,0,0,1-1.026,1.132,6.075,6.075,0,0,0-1.232.494,1.413,1.413,0,0,1-1.463-.036c-.589-.339-1.189-.657-1.773-1-.2-.117-.324-.136-.489.054a8.937,8.937,0,0,1-.794.8.345.345,0,0,0-.078.52c.363.606.7,1.23,1.041,1.847a1.325,1.325,0,0,1,.029,1.313,7.386,7.386,0,0,0-.529,1.307A1.363,1.363,0,0,1,312.1-176c-.529.108-1.055.234-1.585.337-.209.04-.309.115-.3.35.02.429.02.861,0,1.291-.011.233.086.3.294.354a10.913,10.913,0,0,0,2.919.344C314.659-173.369,315.894-173.338,317.156-173.338Zm3.7,0a1.5,1.5,0,0,0,1.451-1.343,1.7,1.7,0,0,0-1.416-1.411,1.676,1.676,0,0,0-1.429,1.437A1.5,1.5,0,0,0,320.854-173.338Z" transform="translate(-300.878 188)" fill="#fff"/>
          <path id="Path_462" data-name="Path 462" d="M419.867-144.107c-1.262,0-2.5-.031-3.729.01a10.914,10.914,0,0,1-2.919-.344c-.208-.05-.3-.122-.294-.354.02-.429.02-.861,0-1.291-.011-.236.089-.31.3-.35.53-.1,1.056-.229,1.585-.337a1.363,1.363,0,0,0,1.138-1.02,7.387,7.387,0,0,1,.529-1.307,1.325,1.325,0,0,0-.029-1.313c-.346-.617-.678-1.241-1.042-1.847a.345.345,0,0,1,.078-.52,8.943,8.943,0,0,0,.794-.8c.165-.19.292-.171.489-.054.584.346,1.184.665,1.773,1a1.413,1.413,0,0,0,1.463.036,6.076,6.076,0,0,1,1.232-.494,1.362,1.362,0,0,0,1.026-1.132c.11-.529.238-1.054.336-1.585.044-.237.144-.335.387-.3a3.587,3.587,0,0,0,.458,0c1.1,0,1.1,0,1.316,1.054a.316.316,0,0,1,.005.041,2.344,2.344,0,0,0,1.789,2.182c1.626.626,1.615.445,2.882-.244.012-.007.023-.015.036-.021.42-.207.845-.692,1.229-.6.405.1.7.632,1.058.96a.284.284,0,0,1,.057.422c-.343.586-.661,1.186-1.006,1.771a1.461,1.461,0,0,0-.045,1.538,6.381,6.381,0,0,1,.49,1.233,1.344,1.344,0,0,0,1.077.983c.555.122,1.11.241,1.667.353.192.038.28.113.27.33a12.757,12.757,0,0,0,0,1.291c.014.257-.1.315-.32.375a11.039,11.039,0,0,1-3.253.336c-1.027-.027-2.055-.014-3.082,0-.256,0-.3-.067-.239-.307a4.254,4.254,0,0,0-.054-2.3,3.767,3.767,0,0,0-4.172-2.616,3.808,3.808,0,0,0-3.35,4.864C419.817-144.356,419.838-144.249,419.867-144.107Z" transform="translate(-403.589 158.769)" fill="#9fcdf9"/>
        </g>
      </g>
      <text id="Intelligent_Administration" data-name="Intelligent Administration" transform="translate(-1335 2218)" fill="#8787f6" font-size="20" font-family="Quicksand-SemiBold, Quicksand" font-weight="600" letter-spacing="0.03em"><tspan x="0" y="0">Intelligent Administration</tspan></text>
    </g>
  </g>
</svg>
